{
    "asset" : {
        "generator" : "Khronos glTF Blender I/O v1.1.46",
        "version" : "2.0"
    },
    "scene" : 0,
    "scenes" : [
        {
            "name" : "Scene",
            "nodes" : [
                26
            ]
        }
    ],
    "nodes" : [
        {
            "name" : "node_id24",
            "rotation" : [
                -0.2840152978897095,
                0,
                0,
                0.9588198065757751
            ],
            "scale" : [
                0.042283784598112106,
                0.042283788323402405,
                0.042283788323402405
            ],
            "translation" : [
                -0.055588264018297195,
                0.030112657696008682,
                -0.2197655290365219
            ]
        },
        {
            "name" : "node_id26",
            "rotation" : [
                -0.21061135828495026,
                -0.08928162604570389,
                -0.9052401781082153,
                0.3580669164657593
            ],
            "scale" : [
                0.042283784598112106,
                0.042283788323402405,
                0.042283788323402405
            ],
            "translation" : [
                0.25599998235702515,
                0.4818873405456543,
                -0.021240830421447754
            ]
        },
        {
            "name" : "node_id29",
            "rotation" : [
                -0.8886173367500305,
                0,
                0,
                0.4586494565010071
            ],
            "scale" : [
                0.042283784598112106,
                0.042283784598112106,
                0.042283784598112106
            ],
            "translation" : [
                -0.055588264018297195,
                0.030112657696008682,
                0.21976600587368011
            ]
        },
        {
            "mesh" : 0,
            "name" : "node_id22",
            "rotation" : [
                0,
                0,
                -1,
                7.549790126404332e-08
            ],
            "scale" : [
                6.388261795043945,
                6.388261795043945,
                6.388261795043945
            ],
            "translation" : [
                -60.33061599731445,
                206.7196807861328,
                203.14837646484375
            ]
        },
        {
            "name" : "node_id25",
            "rotation" : [
                0.16907566785812378,
                -0.2721712589263916,
                -0.7558804750442505,
                0.5709474086761475
            ],
            "scale" : [
                42.283790588378906,
                42.283790588378906,
                42.283782958984375
            ],
            "translation" : [
                -224.0405731201172,
                347.31866455078125,
                22.22412109375
            ]
        },
        {
            "name" : "node_id27",
            "rotation" : [
                0.16907566785812378,
                -0.2721712589263916,
                -0.7558804750442505,
                0.5709474086761475
            ],
            "scale" : [
                42.283790588378906,
                42.283790588378906,
                42.283782958984375
            ],
            "translation" : [
                -100.36991882324219,
                172.26885986328125,
                125.72894287109375
            ]
        },
        {
            "name" : "node_id28",
            "rotation" : [
                0.16907566785812378,
                -0.2721712589263916,
                -0.7558804750442505,
                0.5709474086761475
            ],
            "scale" : [
                42.283790588378906,
                42.283790588378906,
                42.283782958984375
            ],
            "translation" : [
                -6.185680389404297,
                140.1934356689453,
                31.953933715820312
            ]
        },
        {
            "name" : "node_id21",
            "translation" : [
                0,
                0,
                -0.2667415738105774
            ]
        },
        {
            "children" : [
                7
            ],
            "name" : "node_id20",
            "rotation" : [
                0.10797154158353806,
                0.0627361387014389,
                -0.9921002388000488,
                0.011977937072515488
            ],
            "translation" : [
                0,
                0,
                -0.3213617205619812
            ]
        },
        {
            "children" : [
                8
            ],
            "name" : "node_id19",
            "rotation" : [
                0.8916492462158203,
                0.06401803344488144,
                0.1334109902381897,
                0.42786070704460144
            ],
            "translation" : [
                -0.31377077102661133,
                0.23538514971733093,
                0.35179826617240906
            ]
        },
        {
            "name" : "node_id8",
            "translation" : [
                0,
                0,
                -0.2667416036128998
            ]
        },
        {
            "children" : [
                10
            ],
            "name" : "node_id7",
            "rotation" : [
                0.10797005146741867,
                -0.06307470053434372,
                0.9920781254768372,
                0.012039745226502419
            ],
            "translation" : [
                0,
                0,
                -0.3213616609573364
            ]
        },
        {
            "children" : [
                11
            ],
            "name" : "node_id6",
            "rotation" : [
                0.8903660178184509,
                -0.06441623717546463,
                -0.1332191675901413,
                0.4305247366428375
            ],
            "translation" : [
                0.32522061467170715,
                0.23538516461849213,
                0.35179826617240906
            ]
        },
        {
            "name" : "node_id12",
            "translation" : [
                0,
                0,
                -0.5551064014434814
            ]
        },
        {
            "children" : [
                13
            ],
            "name" : "node_id11",
            "rotation" : [
                -0.0026644724421203136,
                0.0774351954460144,
                -0.9969757795333862,
                0.006006947718560696
            ],
            "translation" : [
                0,
                0,
                -0.885012686252594
            ]
        },
        {
            "children" : [
                14
            ],
            "name" : "node_id10",
            "rotation" : [
                -0.0002925406151916832,
                -0.011677952483296394,
                -0.009124338626861572,
                0.999890148639679
            ],
            "translation" : [
                0,
                0,
                -1.2602766752243042
            ]
        },
        {
            "name" : "node_id15",
            "translation" : [
                0,
                0,
                -1.5524566173553467
            ]
        },
        {
            "children" : [
                16
            ],
            "name" : "node_id14",
            "rotation" : [
                0.02762162871658802,
                -0.08210083097219467,
                0.15424750745296478,
                0.98422771692276
            ],
            "translation" : [
                0,
                0,
                -1.6519203186035156
            ]
        },
        {
            "children" : [
                17
            ],
            "name" : "node_id13",
            "rotation" : [
                -0.42266255617141724,
                -0.3404332995414734,
                0.384482741355896,
                0.7467493414878845
            ],
            "translation" : [
                0.6276595592498779,
                -0.5029979348182678,
                -0.6082400679588318
            ]
        },
        {
            "name" : "node_id18",
            "translation" : [
                0,
                0,
                -1.5524566173553467
            ]
        },
        {
            "children" : [
                19
            ],
            "name" : "node_id17",
            "rotation" : [
                0.06627185642719269,
                0.029473496600985527,
                0.27523672580718994,
                0.9586365818977356
            ],
            "translation" : [
                0,
                0,
                -1.6519207954406738
            ]
        },
        {
            "children" : [
                20
            ],
            "name" : "node_id16",
            "rotation" : [
                -0.33657094836235046,
                0.4135907292366028,
                -0.2391965091228485,
                0.8114479184150696
            ],
            "translation" : [
                -0.7072460055351257,
                -0.5064935088157654,
                -0.6092193126678467
            ]
        },
        {
            "children" : [
                15,
                18,
                21
            ],
            "name" : "node_id9",
            "rotation" : [
                0.027902299538254738,
                0.00940044317394495,
                0.0031906275544315577,
                0.9995613694190979
            ],
            "translation" : [
                0,
                0,
                -1
            ]
        },
        {
            "children" : [
                9,
                12,
                22
            ],
            "name" : "node_id5",
            "rotation" : [
                0.6905794739723206,
                0,
                0,
                0.723256528377533
            ],
            "translation" : [
                0,
                0.001910513499751687,
                -0.006990722380578518
            ]
        },
        {
            "children" : [
                23
            ],
            "name" : "node_id4",
            "rotation" : [
                -0.13299345970153809,
                0,
                0,
                0.9911169409751892
            ],
            "scale" : [
                42.28378677368164,
                42.28377914428711,
                42.28377914428711
            ],
            "translation" : [
                -60.33061599731445,
                190.13543701171875,
                157.35565185546875
            ]
        },
        {
            "children" : [
                3,
                4,
                5,
                6,
                24
            ],
            "name" : "node_id30",
            "scale" : [
                0.0010000000474974513,
                0.0010000000474974513,
                0.0010000000474974513
            ]
        },
        {
            "children" : [
                0,
                1,
                2,
                25
            ],
            "name" : "root",
            "rotation" : [
                0.7071068286895752,
                0,
                0,
                0.7071067094802856
            ],
            "scale" : [
                15.648757934570312,
                15.648759841918945,
                15.648759841918945
            ],
            "translation" : [
                1.32184898853302,
                2.279172420501709,
                -3.0886878967285156
            ]
        }
    ],
    "materials" : [
        {
            "alphaCutoff" : 0.5,
            "alphaMode" : "MASK",
            "doubleSided" : true,
            "name" : "50",
            "pbrMetallicRoughness" : {}
        }
    ],
    "meshes" : [
        {
            "name" : "mesh_id23",
            "primitives" : [
                {
                    "attributes" : {
                        "POSITION" : 0,
                        "NORMAL" : 1,
                        "TEXCOORD_0" : 2
                    },
                    "indices" : 3,
                    "material" : 0
                }
            ]
        }
    ],
    "accessors" : [
        {
            "bufferView" : 0,
            "componentType" : 5126,
            "count" : 5747,
            "max" : [
                30.62950897216797,
                15.689048767089844,
                -0.2917831540107727
            ],
            "min" : [
                -30.379528045654297,
                -25.059932708740234,
                -34.842491149902344
            ],
            "type" : "VEC3"
        },
        {
            "bufferView" : 1,
            "componentType" : 5126,
            "count" : 5747,
            "type" : "VEC3"
        },
        {
            "bufferView" : 2,
            "componentType" : 5126,
            "count" : 5747,
            "type" : "VEC2"
        },
        {
            "bufferView" : 3,
            "componentType" : 5123,
            "count" : 27306,
            "type" : "SCALAR"
        }
    ],
    "bufferViews" : [
        {
            "buffer" : 0,
            "byteLength" : 68964,
            "byteOffset" : 0
        },
        {
            "buffer" : 0,
            "byteLength" : 68964,
            "byteOffset" : 68964
        },
        {
            "buffer" : 0,
            "byteLength" : 45976,
            "byteOffset" : 137928
        },
        {
            "buffer" : 0,
            "byteLength" : 54612,
            "byteOffset" : 183904
        }
    ],
    "buffers" : [
        {
            "byteLength" : 238516,
            "uri" : "data:application/octet-stream;base64,"
        }
    ]
}
