{"accessors" : [{"bufferView" : 0, "byteOffset" : 0, "componentType" : 5123, "count" : 1878, "type" : "SCALAR", "max" : [496], "min" : [0]}, {"bufferView" : 1, "byteOffset" : 0, "componentType" : 5126, "count" : 497, "type" : "VEC3", "max" : [40.5, 19.7999992370605, 24.3999996185303], "min" : [-39, -13.8999996185303, -76.0999984741211]}, {"bufferView" : 1, "byteOffset" : 12, "componentType" : 5126, "count" : 497, "type" : "VEC4", "max" : [1, 0.748414099216461, 0.63828319311142, 1], "min" : [0.000773993786424398, 0, 0, 1]}, {"bufferView" : 1, "byteOffset" : 28, "componentType" : 5126, "count" : 497, "type" : "VEC2", "max" : [1, 1], "min" : [0, 0]}], "asset" : {"generator" : "Aspose.3D 20.2.1", "version" : "2.0"}, "buffers" : [{"uri" : "buffer.bin", "byteLength" : 21656}], "bufferViews" : [{"buffer" : 0, "byteOffset" : 0, "byteLength" : 3756, "target" : 34963}, {"buffer" : 0, "byteOffset" : 3760, "byteLength" : 17892, "byteStride" : 36, "target" : 34962}], "materials" : [{"pbrMetallicRoughness" : {"baseColorFactor" : [1, 1, 1, 1], "metallicFactor" : 0, "roughnessFactor" : 1}, "emissiveFactor" : [0, 0, 0], "alphaMode" : "OPAQUE", "doubleSided" : false}], "meshes" : [{"primitives" : [{"attributes" : {"POSITION" : 1, "COLOR" : 2, "TEXCOORD_0" : 3}, "indices" : 0, "material" : 0, "mode" : 4}]}], "nodes" : [{"mesh" : 0}], "scene" : 0, "scenes" : [{"nodes" : [0]}]}