<?xml version="1.0" standalone="no"?>
<!DOCTYPE svg PUBLIC "-//W3C//DTD SVG 1.1//EN" "http://www.w3.org/Graphics/SVG/1.1/DTD/svg11.dtd" >
<svg>
<metadata>
Created by FontForge 20120731 at Fri Sep  6 20:02:39 2019
 By www
Copyright (c) 2005-2018 Ascender Corporation. All rights reserved.
</metadata>
<defs>
<font id="InkFree" horiz-adv-x="428" >
  <font-face 
    font-family="Ink Free"
    font-weight="400"
    font-stretch="normal"
    units-per-em="1000"
    panose-1="3 8 4 2 0 5 0 0 0 0"
    ascent="800"
    descent="-200"
    x-height="450"
    cap-height="666"
    bbox="-249 -328 1289 905"
    underline-thickness="50"
    underline-position="-50"
    unicode-range="U+000D-2122"
  />
<missing-glyph horiz-adv-x="762" 
d="M100 688h562v-688h-562v688zM625 35v618h-487v-618h487zM355 246.5q-11 29.5 -11 51.5q0 30 18.5 53t58.5 57q12 8 32 27q23 22 35.5 41t12.5 39q0 37 -46 37q-30 0 -70.5 -14t-76.5 -34t-52 -37q-18 -18 -28 -18t-20.5 8t-10.5 19q0 4 6 9t11.5 8t9.5 6
q54 35 118.5 64.5t118.5 29.5q40 0 64 -18.5t24 -51.5q0 -28 -18 -54t-50 -53q-6 -5 -25 -21.5t-33 -30.5t-22 -26q-14 -19 -14 -40q0 -19 9 -41q1 -3 4 -9.5t3 -10.5q0 -9 -6.5 -14.5t-14.5 -5.5q-16 0 -27 29.5zM372 98.5q-9 7.5 -9 23.5q0 15 17 31t35 16q31 0 31 -22
q0 -14 -17.5 -35t-33.5 -21q-14 0 -23 7.5z" />
    <glyph glyph-name=".notdef" horiz-adv-x="762" 
d="M100 688h562v-688h-562v688zM625 35v618h-487v-618h487zM355 246.5q-11 29.5 -11 51.5q0 30 18.5 53t58.5 57q12 8 32 27q23 22 35.5 41t12.5 39q0 37 -46 37q-30 0 -70.5 -14t-76.5 -34t-52 -37q-18 -18 -28 -18t-20.5 8t-10.5 19q0 4 6 9t11.5 8t9.5 6
q54 35 118.5 64.5t118.5 29.5q40 0 64 -18.5t24 -51.5q0 -28 -18 -54t-50 -53q-6 -5 -25 -21.5t-33 -30.5t-22 -26q-14 -19 -14 -40q0 -19 9 -41q1 -3 4 -9.5t3 -10.5q0 -9 -6.5 -14.5t-14.5 -5.5q-16 0 -27 29.5zM372 98.5q-9 7.5 -9 23.5q0 15 17 31t35 16q31 0 31 -22
q0 -14 -17.5 -35t-33.5 -21q-14 0 -23 7.5z" />
    <glyph glyph-name="glyph1" horiz-adv-x="0" 
 />
    <glyph glyph-name="glyph1" horiz-adv-x="0" 
 />
    <glyph glyph-name="uni000D" unicode="&#xd;" horiz-adv-x="287" 
 />
    <glyph glyph-name="space" unicode=" " horiz-adv-x="287" 
 />
    <glyph glyph-name="exclam" unicode="!" horiz-adv-x="200" 
d="M134 571q-15 -147 -15 -294q0 -32 4 -65t4 -39q0 -24 -20 -24q-7 0 -15 16.5t-13.5 43t-5.5 55.5q0 80 8 320q1 29 10.5 54t33.5 25q8 0 10.5 -8.5t2.5 -32.5q0 -3 -4 -51zM139 -25q-19 0 -31 11.5t-17 26t-5 22.5q0 11 10.5 21t21.5 10q7 0 11 -6t9 -17q8 -18 16 -24
t13 -15.5t5 -13.5q0 -15 -33 -15z" />
    <glyph glyph-name="quotedbl" unicode="&#x22;" horiz-adv-x="339" 
d="M134 538.5q-5 -31.5 -14 -36.5q-7 -4 -13 -4q-10 0 -17 10q-4 7 -4 62l-2 61q-1 17 -7 50q-6 36 -6 48q0 14 6 18q3 2 13 2t21 -4.5t15 -11.5q5 -11 9 -46.5t4 -74.5q0 -42 -5 -73.5zM261.5 538q-4.5 -31 -13.5 -36q-7 -4 -13 -4q-10 0 -17 10q-4 7 -4 62l-2 61
q-1 17 -7 50q-6 36 -6 48q0 14 6 18q3 2 12 2q11 0 22 -4.5t15 -11.5q5 -10 8.5 -45.5t3.5 -75.5q0 -43 -4.5 -74z" />
    <glyph glyph-name="numbersign" unicode="#" horiz-adv-x="608" 
d="M640 518q-3 -16 -40 -21t-86 -9l-59 -3l-20 -156q57 7 104 14q13 1 24 3t18 2h1q11 0 11 -16q0 -2 -2 -10q-7 -34 -122 -42q-24 -2 -40 -2l-1 -11q-11 -101 -20 -157q-2 -11 -3 -21q-1 -11 -9.5 -18.5t-19.5 -8.5h-1q-15 0 -15 47q0 20 4 64q7 54 8 67q4 25 5 35l-23 -1
q-23 -1 -69 -2.5t-74 -3.5q-24 -122 -29 -211q-2 -30 -3 -34q-2 -11 -11 -18t-21 -7q-19 1 -19 61q0 32 5 72t8 55l10 49l6 29q-64 -7 -74 -8q-7 -1 -16 -2t-20 -1q-12 0 -18 4t-6 14l1 10q4 17 22 24.5t36 8.5q42 2 87 2q25 103 35 151q3 0 -43 -4q-27 -3 -38 -3
q-35 0 -35 21q0 5 1 7q4 17 26.5 24.5t45.5 8.5l54 2l6 40l16 93q9 47 21 81q3 9 10.5 13.5t16.5 4.5h1q19 0 19 -37q0 -15 -5 -43l-28 -126l-6 -25q25 0 37 1q59 0 107 3l3 38q4 64 6 83q5 44 14 83q2 9 9.5 14.5t16.5 5.5h2q21 1 21 -49q0 -13 -2 -29q-3 -37 -18 -143
l94 7l74 6h1q10 0 10 -16q0 -6 -1 -10zM268 474q-8 0 -13 -1l-34 -156q86 2 120 4q28 2 44 4q1 12 5 31q3 21 7 52t9 74q-62 -3 -138 -8z" />
    <glyph glyph-name="dollar" unicode="$" horiz-adv-x="550" 
d="M479 121q-32 -31 -84 -59.5t-106 -43.5l5 -82q0 -18 -7 -28.5t-17 -10.5q-7 0 -13.5 34t-6.5 80q-20 -4 -44 -4q-47 0 -74 10.5t-27 29.5q0 9 21.5 34.5t29.5 25.5q12 0 12 -5q0 -3 -10.5 -8.5t-10.5 -9.5q0 -3 8.5 -9t25 -11t40.5 -5q9 0 27 2v30q0 102 1 165
q-101 32 -158.5 60.5t-57.5 62.5q0 46 67 104.5t155 111.5l1 87q1 47 8.5 82.5t29.5 35.5q14 0 14 -13q0 -5 -1 -11t-2 -11q-6 -26 -6 -45l-2 -54l-2 -48q24 13 64.5 28t60.5 15q16 0 30 -7.5t14 -18.5l2.5 -17.5t2.5 -18.5q0 -6 -3.5 -10.5t-7.5 -4.5t-7 7.5t-10.5 12.5
t-29.5 5q-17 0 -49 -11.5t-69 -31.5q-7 -173 -9 -273q110 -35 168.5 -61.5t58.5 -56.5q0 -23 -32 -54zM135.5 459.5q-48.5 -43.5 -48.5 -74.5q0 -18 42 -37t121 -44q2 173 4 240q-70 -41 -118.5 -84.5zM414.5 202q-42.5 17 -131.5 44q-1 -25 1 -77q2 -44 2 -66l1 -37
q42 10 81.5 28t64 38.5t24.5 35.5q0 17 -42.5 34z" />
    <glyph glyph-name="percent" unicode="%" horiz-adv-x="986" 
d="M568 365q-13 -42 -42 -115q-5 -13 -26.5 -71.5t-34.5 -108.5q-6 -20 -42 -20q-16 0 -16 32q0 5 29 72q55 125 91 225.5t36 174.5q0 15 -4 21t-11 6q-38 0 -91.5 -17.5t-104.5 -47.5q-25 -47 -64.5 -96t-87.5 -82t-94 -33q-22 0 -39 21t-17 60q0 41 28.5 97t65 98t54.5 42
t27 -7.5t9 -17.5q0 -2 -16 -16q-47 -43 -81.5 -88.5t-34.5 -100.5q0 -16 8 -24.5t21 -8.5q19 0 55.5 25.5t64.5 59.5t28 59q0 6 -9.5 19t-9.5 21q0 15 13.5 25.5t34.5 10.5q16 0 40 -11q48 25 117.5 45.5t94.5 20.5q34 0 45 -14t11 -45q0 -56 -48 -211zM922.5 109.5
q-18.5 -54.5 -55 -90.5t-89.5 -36q-69 0 -104.5 43.5t-35.5 104.5q0 38 12 75t28.5 60.5t27.5 23.5q18 0 27 -14t9 -30q0 -5 -5 -14.5t-12 -19.5q-17 -26 -26.5 -46.5t-9.5 -44.5q0 -36 20.5 -62.5t62.5 -26.5q40 0 68.5 29.5t43 73.5t14.5 85q0 43 -18.5 72.5t-41.5 29.5
q-21 0 -54 -15q-23 -10 -39 -10q-9 0 -15 6.5t-6 14.5q0 21 30 36.5t66 15.5q61 0 91 -42t30 -109q0 -55 -18.5 -109.5z" />
    <glyph glyph-name="ampersand" unicode="&#x26;" horiz-adv-x="640" 
d="M674.5 159q-12.5 -47 -46 -85.5t-90.5 -38.5q-66 0 -132 33q-83 -85 -205 -85q-77 0 -122.5 40t-45.5 109q0 55 34.5 95.5t77 64t94.5 45.5q3 59 30 121.5t68.5 103.5t86.5 41q29 0 46 -16t17 -45q0 -57 -60.5 -118t-140.5 -105q1 -60 33.5 -111.5t83.5 -83.5
q19 21 35 50q14 27 26 56.5t15 42.5q1 6 3 15.5t4.5 14.5t6.5 5q6 0 11 -9.5t5 -17.5q0 -22 -15 -66.5t-33 -76.5q-13 -23 -22 -36q54 -22 102 -22q54 0 81.5 42.5t41.5 101.5q3 10 5.5 16.5t5.5 6.5q4 0 8 -3.5t4 -7.5q0 -30 -12.5 -77zM443 558.5q-6 7.5 -19 7.5
q-33 0 -65.5 -37.5t-53.5 -88t-21 -82.5q56 32 110.5 86.5t54.5 95.5q0 11 -6 18.5zM281 180q-35 53 -41 114q-3 -1 -41 -16.5t-72 -55t-34 -88.5q0 -46 28.5 -73t87.5 -27q50 0 87.5 15.5t70.5 41.5q-51 36 -86 89z" />
    <glyph glyph-name="quotesingle" unicode="'" horiz-adv-x="212" 
d="M134 538.5q-5 -31.5 -14 -36.5q-7 -4 -13 -4q-10 0 -17 10q-4 7 -4 62l-2 61q-1 17 -7 50q-6 36 -6 48q0 14 6 18q3 2 13 2t21 -4.5t15 -11.5q5 -11 9 -46.5t4 -74.5q0 -42 -5 -73.5z" />
    <glyph glyph-name="parenleft" unicode="(" horiz-adv-x="405" 
d="M357.5 -146.5q-11.5 -9.5 -27.5 -9.5q-31 0 -79.5 23.5t-89.5 92.5t-41 194q0 129 35 269t87.5 233.5t100.5 93.5q22 0 22 -23q0 -7 -13 -11.5t-24 -10.5t-21 -22q-53 -86 -96.5 -217.5t-43.5 -308.5q0 -89 16 -141t53 -79t104 -38q13 -2 21 -8t8 -14q0 -14 -11.5 -23.5z
" />
    <glyph glyph-name="parenright" unicode=")" horiz-adv-x="405" 
d="M263 -15q-45 -79 -100 -114.5t-82 -35.5q-16 0 -27.5 9.5t-11.5 23.5q0 8 8 14t21 8q190 32 190 302q0 350 -84 485q-8 14 -17.5 20.5t-23.5 14.5q-7 3 -11.5 6.5t-4.5 8.5q0 23 22 23q47 0 85 -83t59.5 -213t21.5 -265q0 -125 -45 -204z" />
    <glyph glyph-name="asterisk" unicode="*" horiz-adv-x="358" 
d="M341.5 465.5q-6.5 -5.5 -10.5 -5.5q-7 0 -36.5 17t-60.5 37l-28 18q-1 -42 -5.5 -88.5t-10.5 -71.5q-1 -4 -6.5 -11.5t-8.5 -7.5q-15 0 -16 10q-3 12 -3 94l-2 76l-29 -23q-47 -38 -57 -44q-14 -9 -33 -9q-3 0 -7 3t-4 7q0 17 4 25t10.5 14t9.5 9q14 14 91 61l-49 33
q-24 16 -44.5 29.5t-22.5 18.5q-2 4 -8 14t-6 18q0 4 7.5 10.5t13.5 6.5q10 0 18 -5q11 -6 53 -41l50 -39v98q0 17 2.5 25.5t11.5 8.5q21 0 29 -17q8 -12 12 -117q36 21 66.5 36t41.5 15q4 0 6 -3.5t2 -7.5q0 -7 -5.5 -11.5t-7.5 -6.5q-15 -15 -95 -66q8 -6 62 -40
q7 -5 35 -23t31 -23l4 -6t2 -9q0 -3 -6.5 -8.5z" />
    <glyph glyph-name="plus" unicode="+" horiz-adv-x="472" 
d="M435 268.5q-11 -7.5 -36 -12.5q-57 -11 -131 -19q-1 -16 -1 -45q0 -53 3 -80.5t9 -58.5q4 -18 4 -23q0 -7 -8 -11t-19 -4q-23 0 -29 39t-6 77v100q-115 -12 -165 -12q-12 0 -22.5 6.5t-10.5 15.5q0 13 9 17t30 4q56 0 160 13v57q0 39 2.5 90t4.5 64q2 14 18 14
q18 0 24 -16t6 -34q0 -20 -4 -98q-2 -23 -4 -71q71 12 118 24q8 2 13.5 13.5t11.5 11.5q11 0 22.5 -12.5t11.5 -25.5q0 -16 -11 -23.5z" />
    <glyph glyph-name="comma" unicode="," horiz-adv-x="212" 
d="M160.5 9q-23.5 -50 -51.5 -92t-42 -42q-10 0 -16.5 5.5t-6.5 14.5q0 6 11.5 28.5t14.5 27.5l28 54l18 46q11 30 18 44.5t14 14.5q11 0 23.5 -12.5t12.5 -23.5q0 -15 -23.5 -65z" />
    <glyph glyph-name="hyphen" unicode="-" horiz-adv-x="340" 
d="M283 235.5q-14 -6.5 -53 -10.5l-67 -8q-24 -3 -45 -4.5t-51 -1.5q-13 0 -23 5t-10 17q0 13 9 17t30 4q38 0 53.5 0.5t27.5 3.5q4 1 23 4.5t61 9.5q8 1 13.5 13t11.5 12q11 0 22.5 -12.5t11.5 -25.5q0 -17 -14 -23.5z" />
    <glyph glyph-name="period" unicode="." horiz-adv-x="212" 
d="M139 -25q-19 0 -34.5 21.5t-25 48t-9.5 34.5q0 11 10.5 21t21.5 10q7 0 11 -5.5t12 -18.5q10 -18 17 -23q13 -10 21.5 -37t8.5 -36q0 -15 -33 -15z" />
    <glyph glyph-name="slash" unicode="/" horiz-adv-x="364" 
d="M313 658q-16 -59 -59 -190q-59 -188 -84 -273q-42 -144 -60 -252q-5 -32 -9 -44q-3 -10 -10 -16t-16 -6q-5 0 -8 1q-12 3 -12 38q0 39 13 102t21 89q21 74 55 177q6 19 23.5 72.5t31.5 104.5q6 20 22 84l29 106q15 53 31 93q8 15 22 15q5 0 8 -1q14 -4 14 -31
q0 -28 -12 -69z" />
    <glyph glyph-name="zero" unicode="0" horiz-adv-x="564" 
d="M476.5 118q-45.5 -88 -120 -144.5t-154.5 -56.5q-72 0 -111 54t-39 140q0 103 25.5 208.5t68.5 190.5q-8 0 -15 6t-7 15q0 13 15.5 24t36.5 16q2 2 7 8.5t14 6.5q10 0 19 -3.5t11 -7.5q28 5 57 5q68 0 122 -37t85 -102.5t31 -146.5q0 -88 -45.5 -176zM449.5 405.5
q-26.5 52.5 -70 83t-91.5 30.5q-23 0 -61 -6l-21 -3q-46 -82 -71.5 -193t-25.5 -205q0 -63 24.5 -103.5t77.5 -40.5q61 0 123 51.5t102 127.5t40 145q0 61 -26.5 113.5z" />
    <glyph glyph-name="one" unicode="1" horiz-adv-x="440" 
d="M321 -31q3 -12 6.5 -28.5t3.5 -20.5q0 -11 -12.5 -20.5t-27.5 -9.5q-9 0 -18 17.5t-13 44.5q-18 105 -32 325l-14 213q-78 -78 -161 -132q-22 -14 -31 -14q-10 0 -16 6.5t-6 12.5q0 13 23 28q51 33 91.5 70t81.5 79l14 14v1v15v10q0 7 3 9q2 2 4 2q6 3 14 3q20 0 32 -6
t12 -18t-12 -28q5 -24 6 -48q2 -59 15 -227.5t20 -221.5q5 -26 17 -76z" />
    <glyph glyph-name="two" unicode="2" horiz-adv-x="687" 
d="M665.5 -10.5q-12.5 -9.5 -33.5 -14.5q-37 -4 -120 -16q-72 -11 -98 -14l-79 -12q-63 -10 -102.5 -14.5t-86.5 -4.5q-17 0 -31.5 12t-14.5 34q0 12 4 19t13 17q58 58 99.5 104t102.5 119q62 75 92.5 128t30.5 110q0 52 -30.5 80.5t-79.5 28.5q-37 0 -65 -10.5t-78 -39.5
q-12 -6 -26 -17.5t-18 -14.5q-14 -12 -27.5 -21t-20.5 -9q-24 0 -24 27q0 23 26 41q6 4 43 25q22 11 35 19q46 26 80.5 37t82.5 11q69 0 111.5 -43t42.5 -109q0 -50 -22.5 -100.5t-50.5 -88.5t-67 -84q-21 -25 -106 -117l-52 -57q-3 -3 -16.5 -17.5t-13.5 -20.5
q0 -12 24 -12q32 0 84.5 9t62.5 11l87 15q20 3 99 13q70 9 87 13q13 8 28 15.5t20 7.5q20 0 20 -37q0 -13 -12.5 -22.5z" />
    <glyph glyph-name="three" unicode="3" horiz-adv-x="695" 
d="M226 -121q-18 0 -25.5 9t-7.5 21q0 20 42 26q137 20 228.5 79.5t91.5 160.5q0 114 -135 114q-43 0 -81.5 -6.5t-93.5 -19.5q-55 -31 -73 -39t-33 -8q-9 0 -16 9.5t-7 21.5q0 18 17 26q31 14 52 21q33 11 66 28q86 45 138 93t52 100q0 44 -29.5 60.5t-82.5 16.5
q-81 0 -155 -46q-21 -13 -36 -28.5t-20 -25.5q-9 -13 -24 -13q-31 0 -31 27q0 18 40 52.5t104.5 60.5t137.5 26q71 0 110.5 -30.5t39.5 -89.5q0 -49 -51.5 -106.5t-115.5 -96.5l4 -1q32 8 51 11t54 3q74 0 122.5 -41t48.5 -114q0 -113 -90.5 -185.5t-250.5 -110.5
q-25 -5 -41 -5z" />
    <glyph glyph-name="four" unicode="4" horiz-adv-x="698" 
d="M531.5 -59.5q-11.5 -9.5 -26.5 -9.5q-21 0 -31.5 71t-18.5 193q-25 -4 -85 -17.5t-111 -26.5q-180 -45 -203 -45q-7 0 -19.5 11t-12.5 21q0 11 13 23q17 15 87 91q61 68 112 119q52 52 160 187q36 45 46 56q14 16 20 27.5t9 15.5t10 4q12 0 26 -12t14 -25q0 -3 -6 -13
q-7 -14 -8 -33q-2 -33 -2 -274q0 -41 1 -59l20 4q60 12 99 17q8 1 13.5 13t11.5 12q11 0 22.5 -12.5t11.5 -25.5q0 -17 -14 -23.5t-53 -10.5l-78 -9l-30 -4q7 -103 27 -197q7 -39 7 -48q0 -11 -11.5 -20.5zM382.5 470.5q-52.5 -58.5 -113.5 -124.5q-92 -99 -163 -179l68 15
q55 10 75 15q60 14 140 29l63 13q-3 39 -3 61q0 66 1.5 147t2.5 102q-18 -20 -70.5 -78.5z" />
    <glyph glyph-name="five" unicode="5" horiz-adv-x="553" 
d="M310 -26q-48 -31 -71 -43q-15 -7 -26.5 -11.5t-19.5 -4.5q-14 0 -23 12t-9 23q0 15 18 19l21 6q34 11 57.5 21.5t59.5 33.5q68 44 100 93.5t32 106.5q0 40 -17.5 56t-52.5 16q-41 0 -88 -12t-108 -32q-46 -14 -52 -16q-7 -2 -16 -8t-16 -10q-9 -6 -16 -6q-6 0 -10 1
q-18 3 -18 24q0 3 9 50q13 68 21 117t8 82q-7 9 -7 21q0 18 35.5 37.5t112.5 44.5q59 20 124.5 32.5t119.5 12.5q8 0 13.5 -4.5t5.5 -11.5q0 -17 -18 -20q-121 -21 -196 -43q-50 -14 -78 -26t-59 -30q0 -61 -33 -219q0 1 50.5 18t113 31t116.5 14q55 0 83 -28t28 -78
q0 -72 -42 -135.5t-123 -115.5z" />
    <glyph glyph-name="six" unicode="6" horiz-adv-x="583" 
d="M530 175.5q-30 -49.5 -90 -92.5t-147 -71q4 -25 14 -44q4 -8 14.5 -17.5t10.5 -11.5q0 -9 -11.5 -18t-23.5 -9q-18 0 -32 23q-8 14 -13 32.5t-6 32.5q-2 0 -7 -0.5t-15 -0.5q-75 0 -117.5 64.5t-42.5 164.5q0 130 68.5 247.5t183.5 183.5q8 6 18.5 9t16.5 3q10 0 19 -6.5
t9 -17.5q0 -19 -26 -34q-130 -75 -185.5 -169t-55.5 -219q0 -73 31 -124.5t103 -51.5q9 99 41.5 171t80 109t100.5 37q45 0 68.5 -26t23.5 -66q0 -49 -30 -98.5zM465 319q-64 0 -111 -68.5t-62 -194.5q60 15 111 50.5t81.5 78.5t30.5 80q0 54 -50 54z" />
    <glyph glyph-name="seven" unicode="7" horiz-adv-x="587" 
d="M510.5 273.5q-5.5 -10.5 -13.5 -16.5q-7 -5 -32.5 -10.5t-53.5 -9.5l-27 -5q-26 -114 -32 -278q-1 -24 -12 -42t-25 -18q-8 0 -14.5 12t-12.5 26t-8 20q-16 38 -16 51q0 14 11 14q5 0 14.5 -6t13.5 -9q13 137 31 226q-84 -14 -110 -14q-12 0 -19.5 7t-7.5 18q0 7 9 11
t31 7q86 12 107 15q17 71 48 153t58 134q-9 -1 -73 -9t-123 -20l-88 -18q-9 -2 -33.5 -7t-49.5 -5q-18 0 -31 7.5t-13 19.5q0 25 19 25q41 0 83.5 6.5t120.5 22.5q64 13 119 19t87 6q24 0 36 -5t12 -21q0 -9 -3 -13t-11 -10q-29 -55 -59 -130t-49 -149q42 5 92 18q17 5 21 5
q3 0 6 -3t3 -6q0 -8 -5.5 -18.5z" />
    <glyph glyph-name="eight" unicode="8" horiz-adv-x="693" 
d="M601.5 58q-49.5 -69 -129 -112.5t-163.5 -43.5q-93 0 -149 47t-56 127q0 54 27.5 105.5t66.5 80.5q-24 -5 -49 -5q-44 0 -77.5 32.5t-33.5 82.5q0 91 46.5 160.5t116.5 111.5q22 13 34 17t24 4q7 0 12.5 -4t5.5 -10q3 1 11.5 4t19.5 4t25 1q55 0 92.5 -33.5t37.5 -96.5
q0 -38 -18 -71t-40.5 -57t-22.5 -22q2 0 16 2t43 2q56 0 104 -22t77 -64t29 -98q0 -73 -49.5 -142zM386.5 593q-25.5 22 -65.5 22q-26 0 -44 -8q0 -5 -6.5 -10.5t-13.5 -5.5q-20 0 -44 -5q-34 -12 -63 -45t-46.5 -76.5t-17.5 -88.5q0 -34 19.5 -52.5t57.5 -18.5
q54 0 112.5 34.5t97.5 87.5t39 105q0 39 -25.5 61zM553 302.5q-50 38.5 -126 38.5q-56 0 -99 -17q-80 -46 -127.5 -109.5t-47.5 -132.5q0 -68 41.5 -100.5t115.5 -32.5q68 0 136.5 34.5t112.5 92t44 121.5q0 67 -50 105.5z" />
    <glyph glyph-name="nine" unicode="9" horiz-adv-x="624" 
d="M536 480q-14 -21 -14 -26q0 -75 7 -285q6 -154 6 -211q0 -17 -12.5 -30.5t-24.5 -13.5q-14 0 -20 4.5t-6 14.5l2 30q6 50 6 98q0 28 -3 232l-1 88q-52 -80 -95 -133.5t-98 -90t-118 -36.5q-61 0 -93 37.5t-32 98.5q0 89 55.5 183t142 155t174.5 61q45 0 75.5 -28.5
t39.5 -71.5q12 -2 21.5 -10t9.5 -21q0 -10 -22 -45zM273.5 213.5q47.5 37.5 88.5 92t97 141.5q8 11 22 33v1q3 11 3 26q0 43 -24.5 70t-72.5 27q-61 0 -130.5 -53.5t-116.5 -135t-47 -159.5q0 -32 22 -56t61 -24q50 0 97.5 37.5z" />
    <glyph glyph-name="colon" unicode=":" horiz-adv-x="212" 
d="M132 328q-22 0 -35 32.5t-13 60.5q0 11 10.5 21t21.5 10q20 0 34.5 -38t14.5 -71q0 -15 -33 -15zM139 -25q-19 0 -34.5 21.5t-25 48t-9.5 34.5q0 11 10.5 21t21.5 10q9 0 25.5 -24t30.5 -53.5t14 -42.5q0 -15 -33 -15z" />
    <glyph glyph-name="semicolon" unicode=";" horiz-adv-x="212" 
d="M155.5 333q-9.5 -5 -23.5 -5q-22 0 -35 31.5t-13 61.5q0 11 10.5 21t21.5 10q13 0 24.5 -18t18 -41.5t6.5 -38.5q0 -16 -9.5 -21zM160.5 9q-23.5 -50 -51.5 -92t-42 -42q-10 0 -16.5 5.5t-6.5 14.5q0 6 11.5 28.5t14.5 27.5l28 54l18 46q11 30 18 44.5t14 14.5
q11 0 23.5 -12.5t12.5 -23.5q0 -15 -23.5 -65z" />
    <glyph glyph-name="less" unicode="&#x3c;" horiz-adv-x="484" 
d="M457 379.5q-12 -8.5 -30 -8.5q-23 0 -66 -22t-80 -46t-48 -32l-140 -91q9 -3 32 -10t41 -13q9 -2 35 -14q125 -52 191 -64q41 -7 41 -27q0 -10 -8 -16t-32 -6q-27 0 -69 14t-103 39q-72 29 -93 34q-44 13 -69 29.5t-25 28.5q0 23 71 64q91 67 189 127t142 60
q18 0 25.5 -4.5t7.5 -14.5q0 -19 -12 -27.5z" />
    <glyph glyph-name="equal" unicode="=" horiz-adv-x="494" 
d="M448 341.5q-14 -6.5 -53 -10.5q-64 -7 -164.5 -10.5t-163.5 -3.5q-13 0 -23 5t-10 17q0 13 9 17t30 4q88 0 166 3t164 15q8 1 13.5 13t11.5 12q11 0 22.5 -12.5t11.5 -25.5q0 -17 -14 -23.5zM464 173.5q-14 -4.5 -51 -8.5q-173 -20 -301 -20q-15 0 -29 5.5t-14 16.5
q0 13 9 17t30 4q145 0 259 14q44 4 52 4q59 0 59 -13q0 -15 -14 -19.5z" />
    <glyph glyph-name="greater" unicode="&#x3e;" horiz-adv-x="484" 
d="M419 146.5q-25 -16.5 -69 -29.5q-21 -5 -93 -34q-61 -25 -103 -39t-69 -14q-24 0 -32 6t-8 16q0 20 41 27q66 12 191 64q26 12 35 14q18 6 41 13t32 10l-157 110q-17 11 -67 45t-71 50q-14 11 -19 17.5t-5 17.5q0 9 13.5 15t26.5 6q3 0 55.5 -39.5t84.5 -63.5
q49 -38 123 -93q27 -16 51 -35.5t24 -34.5q0 -12 -25 -28.5z" />
    <glyph glyph-name="question" unicode="?" horiz-adv-x="499" 
d="M445 468.5q-23 -32.5 -63 -67.5l-29 -26q-4 -4 -30.5 -27t-42.5 -46q-17 -23 -17 -50q0 -23 11 -52q2 -4 5.5 -12t3.5 -13q0 -12 -8 -19t-18 -7q-18 0 -29 26q-20 49 -20 77q0 26 16 54q12 21 33 41t53 47l36 31q29 28 45 51.5t16 49.5q0 47 -58 47q-38 0 -89.5 -17.5
t-97 -43.5t-65.5 -47q-10 -9 -19.5 -16t-15.5 -7q-12 0 -25.5 10t-13.5 24q0 5 6 10t13.5 9.5t14.5 9.5q66 44 148 82t151 38q51 0 81.5 -23.5t30.5 -65.5q0 -35 -23 -67.5zM327 32.5q-10 -17.5 -25 -30t-29 -12.5q-40 0 -40 39q0 19 21.5 39.5t43.5 20.5q39 0 39 -28
q0 -11 -10 -28.5z" />
    <glyph glyph-name="at" unicode="@" horiz-adv-x="1000" 
d="M913 4q-47 -51 -121 -76.5t-155 -25.5q-63 0 -121.5 32t-98 94t-46.5 148q-46 -94 -109 -166t-123 -72q-34 0 -54 25.5t-20 62.5q0 112 81.5 211t185 160.5t151.5 61.5q9 0 12 -4t3 -12q0 -6 -10 -15.5t-21.5 -17t-14.5 -9.5q2 -2 6 -8.5t4 -12.5q0 -18 -21 -62
q-22 -48 -22 -108q0 -79 32 -137t84 -89t110 -31q65 0 127 20t102 60t40 98q0 162 -120.5 269.5t-289.5 158.5t-320 57q-26 1 -42.5 7t-16.5 23q0 15 10 20.5t29 5.5q160 0 346 -57.5t318 -180.5t132 -306q0 -73 -47 -124zM288.5 308q-64.5 -52 -114 -123t-49.5 -144
q0 -20 7 -30.5t18 -10.5q49 0 105.5 68t97.5 159q26 56 33 99q7 40 7 49q-40 -15 -104.5 -67z" />
    <glyph glyph-name="A" unicode="A" horiz-adv-x="622" 
d="M582.5 297q-3.5 -8 -9.5 -12q-7 -6 -29 -10.5t-30 -5.5q8 -38 8 -37q7 -25 15 -69q18 -101 37 -172q5 -23 5 -27q0 -10 -8 -17t-19 -7q-10 0 -18 10.5t-11 18.5q-9 34 -16.5 76t-17.5 101q-4 26 -13 64.5t-12 50.5q-59 -8 -203 -32l-58 -10l-21 -59l-28 -80
q-35 -109 -50 -168q-3 -14 -12 -23.5t-22 -9.5q-11 0 -18.5 6t-7.5 17t12 46.5t14 42.5q4 10 16 46q13 39 33.5 94.5t27.5 73.5q-51 -12 -76 -19q-38 -10 -47 -10q-11 0 -16.5 8.5t-5.5 18.5q0 12 6 16.5t20 8.5q38 9 80.5 18t58.5 12q10 29 15 49q4 13 10.5 32.5t14.5 48.5
l15 51q38 134 44 153q5 14 9.5 22t12.5 8q20 0 36 -6q2 2 6.5 8.5t10 9t14.5 2.5q18 0 41.5 -41t45.5 -97q13 -33 33 -98.5t26 -86.5q15 2 25.5 5.5l13.5 4.5q5 2 11 7t11 7.5t11 -0.5q13 -6 13 -25q0 -7 -3.5 -15zM434 380.5q-16 57.5 -30 93.5q-14 37 -36 76t-37 49
l-11 -26q-19 -38 -29 -69q-24 -72 -76 -238l117 20l96 15l27 4q-5 18 -21 75.5z" />
    <glyph glyph-name="B" unicode="B" horiz-adv-x="690" 
d="M611 213.5q-35 -48.5 -96 -109.5q-45 -45 -106 -88q-40 -28 -78.5 -48t-58.5 -20q-10 0 -17.5 5.5t-7.5 16.5q0 16 12 27.5t32 18.5q10 4 28 8q23 4 41 13q34 17 79.5 52.5t71.5 63.5q43 46 65.5 81.5t22.5 73.5q0 21 -20 30.5t-49 9.5q-74 0 -135 -26q-27 -12 -37 -17
q-36 -16 -59 -25q-26 -10 -50 -17.5t-32 -10.5l2 -38q0 -15 1.5 -48t1.5 -62q0 -69 -10 -112q-4 -14 -9 -20t-19 -6q-9 0 -17 6t-8 15q0 3 9 34t9 55q0 78 -7 199l-3 46q-6 66 -6 104q0 29 4 73.5t6 58.5q-38 -10 -97 -36q-17 -7 -44 -25q-25 -16 -34 -16q-8 0 -14 7t-6 17
q0 19 67 49t146 53q71 21 126 31t113 10q53 0 88.5 -20.5t35.5 -57.5q0 -88 -96 -182q43 6 78 6q46 0 79 -19t33 -64q0 -48 -35 -96.5zM482 592.5q-23 12.5 -62 12.5q-41 0 -103 -9.5t-96 -20.5q-17 -68 -17 -114q0 -65 6 -164q10 1 32.5 8t41.5 15q95 40 158 104t63 132
q0 24 -23 36.5z" />
    <glyph glyph-name="C" unicode="C" horiz-adv-x="548" 
d="M557 143q-42 -57 -113 -110.5t-156 -53.5q-90 0 -147 51.5t-57 152.5q0 69 24 156t56 151q33 65 76.5 108t87.5 43q43 0 66.5 -31t23.5 -77q0 -17 -6.5 -34.5t-14.5 -29.5t-12 -12q-8 0 -8 9q0 3 3.5 13.5t3.5 17.5q0 25 -6 47q-5 19 -20 31.5t-33 12.5q-72 0 -135 -139
q-25 -56 -42 -126t-17 -135q0 -45 18.5 -82t53 -59t80.5 -22q73 0 132.5 35t117.5 90q2 2 14 22.5t18 20.5t8 -3t2 -11q0 -10 -18 -36z" />
    <glyph glyph-name="D" unicode="D" horiz-adv-x="654" 
d="M584 317q-45 -70 -146 -159q-61 -54 -125.5 -102t-107.5 -68q-3 -11 -9 -16.5t-18 -5.5q-9 0 -13 3.5t-4 12.5q0 6 4.5 50t4.5 103q0 100 -3 181q-2 94 -2 132q0 59 12 97q9 24 32 24q8 0 14.5 -3t6.5 -9q-1 -5 -10.5 -35t-9.5 -57q0 -75 3 -164q2 -114 2 -158
q0 -75 -1 -90q36 14 97.5 58t103.5 80q87 78 127 140t40 129q0 81 -101.5 111t-265.5 30q-50 0 -134 -12q-16 -1 -50 -10q-15 -5 -21 -5q-8 0 -15.5 13t-7.5 26q0 5 7 9.5t22 6.5q60 8 102.5 12t99.5 4q182 0 296.5 -41t114.5 -139q0 -78 -45 -148z" />
    <glyph glyph-name="E" unicode="E" horiz-adv-x="592" 
d="M552 617q-27 -15 -84.5 -32t-94.5 -24q-58 -11 -116.5 -17.5t-75.5 -7.5q1 -58 3 -119.5t3 -84.5q39 5 117 19l38 6q63 11 97 40q18 14 26 14q7 0 11.5 -7.5t4.5 -15.5q0 -18 -40.5 -39.5t-89.5 -31.5q-41 -9 -92 -17t-67 -10q6 -171 35 -254q29 -10 57 -14.5t72 -4.5
t84 11.5t64.5 28.5t24.5 32q0 8 -3 15.5t-8 15.5q-2 3 -6.5 9.5t-4.5 10.5q0 10 22 10q16 0 27.5 -13.5t11.5 -29.5q0 -32 -28.5 -63t-78 -50.5t-109.5 -19.5q-61 0 -100 6.5t-59 25.5q-24 27 -33.5 94t-16.5 179q-19 -5 -42.5 -8.5t-35.5 -3.5t-19.5 7.5t-7.5 18.5
q0 7 2.5 12t7.5 6q33 4 48 5l43 5q-4 129 -8 210q-15 0 -24 -1l-46 -1q-9 0 -14 5t-5 11q0 24 32 32q12 2 30.5 4.5t24.5 2.5q19 21 42 21q4 0 6.5 -6.5t2.5 -9.5q66 3 157 15q60 8 185 38l37 8q10 0 10 -12t-17 -21z" />
    <glyph glyph-name="F" unicode="F" horiz-adv-x="591" 
d="M519 317q-28 -3 -132.5 -25.5t-153.5 -35.5q0 -22 0.5 -92.5t2.5 -119.5q1 -19 4.5 -42t4.5 -33q6 -36 6 -43q0 -11 -10.5 -32.5t-17.5 -21.5t-13 7t-8 17q-10 45 -14 146q-5 123 -5 192q-6 -1 -19.5 -3.5t-23.5 -3.5q-10 0 -21 5t-11 12q0 8 5.5 12t12.5 6.5t10 3.5
q36 15 48 19l-8 223q-74 -12 -109 -12q-39 0 -54 19q-14 19 -14 35q0 9 13 9q2 0 23.5 -7t37.5 -7q32 0 102 10q0 2 1 15.5t9 24.5q5 9 9 12t9 3q19 0 19 -42q14 3 63.5 12t113.5 17t111 8q38 0 38 -15q0 -12 -8.5 -31t-19.5 -19q-4 0 -8 4.5t-6 5.5q-9 4 -26 4
q-31 0 -123.5 -13t-133.5 -22l7 -217q54 14 166 38t131 24q8 0 11 -2.5t3 -10.5q0 -31 -22 -34z" />
    <glyph glyph-name="G" unicode="G" horiz-adv-x="725" 
d="M666 -142.5q5 -14.5 11 -21t6 -11.5q0 -7 -7.5 -11t-16.5 -4q-22 0 -36.5 12.5t-14.5 36.5q0 126 2 206l2 89q3 93 3 139q-100 -223 -196 -336.5t-215 -113.5q-88 0 -129 54t-41 168q0 153 69 299.5t177.5 238.5t219.5 92q35 0 47.5 -22t12.5 -46q0 -25 -4.5 -39.5
t-10.5 -14.5q-5 0 -7.5 9t-5.5 32q-3 22 -10 32.5t-25 10.5q-92 0 -189.5 -90t-162 -227.5t-64.5 -268.5q0 -83 27.5 -129.5t99.5 -46.5q78 0 145 61t119.5 150.5t124.5 237.5q-51 -10 -143 -40l-39 -13l-37 -12q-37 -13 -60 -19.5t-38 -6.5q-10 0 -15.5 9.5t-5.5 20.5
q0 14 41 28.5t123 32.5q32 7 92 24q10 3 60.5 16t70.5 13h11.5t13.5 -7.5t4 -23.5q0 -9 -12 -16l-1 -77q-3 -78 -3 -170v-142v-55q2 -34 7 -48.5z" />
    <glyph glyph-name="H" unicode="H" horiz-adv-x="684" 
d="M604 249q-18 -6 -43.5 -7.5t-33.5 -1.5q-1 -31 -4 -69t-5 -63l-3 -31l-2 -32l-6 -77q-4 -51 -33 -51q-11 0 -21.5 25.5t-10.5 41.5q0 4 8 16t10 30q4 28 9 93t7 109q-39 -3 -84 -9l-90 -9t-110 -9q-4 -66 -9 -161t-5 -116q0 -8 2.5 -21t2.5 -20q0 -9 -13.5 -18t-21.5 -9
q-10 0 -16.5 13t-6.5 30q0 9 2 29.5t3 35.5q4 27 5 44q5 59 8 114t4 74q-63 -11 -119 -11q-19 0 -32.5 9.5t-13.5 27.5q0 13 6.5 19.5t26.5 6.5l53 -1q52 -2 84 -2q5 85 5 136q0 116 -2 208v37q0 15 11.5 24.5t26.5 9.5q11 0 15 -17t4 -38q0 -22 -5 -90q-6 -116 -6 -123
l-5 -143q84 2 285 26q4 29 14 152q4 65 7 95l6 78q13 147 13 184q0 13 10 21t23 8q18 0 18 -35q0 -22 -10 -117q-11 -124 -12 -138q-6 -77 -11.5 -147t-7.5 -94q18 3 32 9q18 6 28 6t23 -12t13 -17q0 -16 -23 -23z" />
    <glyph glyph-name="I" unicode="I" horiz-adv-x="663" 
d="M596 611q-19 -8 -56 -15q-41 -8 -104 -15.5t-102 -9.5q-3 -43 -8 -248t-6 -303q54 1 142 7q74 4 83 4q18 0 32.5 -8t14.5 -25q0 -14 -4.5 -20t-19.5 -6q-6 0 -33 3q-20 4 -34 4q-47 0 -188 -6q-5 -7 -11.5 -10.5t-11.5 -3.5q-6 0 -12 3t-7 9l-45 -5q-78 -10 -116 -10
q-33 0 -50 14q-9 8 -9 29q0 6 6.5 15t13.5 9q2 0 15.5 -5.5t25.5 -5.5q37 0 109 4l46 3l6 147q1 23 2 41.5t1 31.5l10 327q-104 -7 -99 -7q-102 -8 -120 -8q-17 0 -32 11t-15 28q0 12 6.5 19t17.5 7q8 0 16 -1l16 -2q25 -5 48 -5q22 0 84 3.5t83 4.5q1 13 9 21.5t21 8.5
q6 0 10 -8t4 -18q58 2 209 26q12 2 26.5 11t16.5 9q10 0 19 -8t9 -20q0 -19 -19 -27z" />
    <glyph glyph-name="J" unicode="J" horiz-adv-x="582" 
d="M592 587q-12 -12 -27 -15q-54 -12 -123 -13l4 -31q15 -110 25.5 -209t10.5 -190q0 -108 -41 -152.5t-132 -44.5q-58 0 -134 27t-130.5 67t-54.5 74q0 15 15 29t34 24t27 10q13 0 17 -7q5 -8 5 -12q0 -5 -7 -9q-16 -8 -22 -13t-6 -15q0 -24 40.5 -54t99.5 -51.5t110 -21.5
q44 0 71 10t42 42.5t15 97.5q0 109 -34 357q-3 23 -5.5 41.5t-3.5 31.5q-68 0 -109 1q-76 2 -128 9q-15 2 -24.5 11.5t-9.5 23.5q0 6 6 12t14 6q20 0 46 -3q72 -7 156 -7h40q-4 26 -3 37q1 9 11.5 17t21.5 8q12 0 19 -18q3 -8 10 -44q47 0 74.5 3.5t31.5 4.5q28 4 37 4
q10 0 16.5 -3t6.5 -9q0 -14 -12 -26z" />
    <glyph glyph-name="K" unicode="K" horiz-adv-x="575" 
d="M588 64q-6 -10 -13 -10q-49 0 -209 67l-27 12q-57 24 -88.5 36t-60.5 20q0 -124 -6 -174q-11 -40 -29 -40q-9 0 -16.5 5t-7.5 13q0 18 3 49q6 64 6 110v42q-10 7 -14.5 12.5t-4.5 12.5q0 9 5.5 16.5t12.5 14t10 10.5q1 21 1 73q0 130 -37 275l-4 20q0 14 11.5 22t26.5 8
q11 0 22.5 -43t18.5 -109.5t7 -133.5v-67q14 15 63 69t96 108q79 93 122 166q11 20 27 52q15 31 19 31q11 0 11 -24q0 -29 -9 -55.5t-26 -56.5q-28 -49 -64.5 -96.5t-92.5 -107.5q-21 -22 -37 -38t-28 -29q-52 -52 -83 -87q13 -5 60.5 -22t123.5 -43q54 -19 90 -30.5
t62 -20.5q6 -2 14 -4.5t17 -5.5q34 -11 34 -24t-6 -23z" />
    <glyph glyph-name="L" unicode="L" horiz-adv-x="575" 
d="M528.5 53q-11.5 -8 -27.5 -9l-172 -13l-119 -10l-62 -5q-8 0 -14.5 10t-6.5 19q0 7 4.5 10.5t10 5t7.5 2.5q1 54 1 252q0 146 -11.5 226.5t-11.5 86.5q0 14 10.5 22t21.5 8q7 0 11 -5.5t6 -17.5q10 -34 15.5 -125t5.5 -190q0 -84 -1 -156t-1 -97q13 1 50 3.5t76 5.5
q58 7 131 21q59 11 71 11q11 0 14 -10t3 -24q0 -13 -11.5 -21z" />
    <glyph glyph-name="M" unicode="M" horiz-adv-x="808" 
d="M764.5 37.5q-11.5 -8.5 -25.5 -8.5q-12 0 -19 1.5t-10 8.5q-9 15 -21 89t-23 170q-24 293 -37 299q-11 -24 -34 -90.5t-53 -173.5q-33 -115 -50 -158.5t-30 -53.5q-8 -7 -19.5 -13.5t-19.5 -6.5q-10 0 -13 2.5t-7 15.5q-4 15 -19 93.5t-23 141.5l-6 42q-17 130 -23 145
q-19 -17 -36 -75.5t-39 -165.5q-21 -83 -51 -270q-1 -11 -15 -20t-25 -9q-16 0 -18 31q-1 31 -13.5 134t-22.5 181q-14 111 -38 206q-7 30 -7 34q0 15 14.5 24.5t31.5 9.5q8 0 17 -62t19 -156l3 -33q4 -33 9 -69q19 -153 21 -192q20 116 45 233l9 44q22 106 48 160.5
t67 54.5q13 0 29 -67.5t25 -157.5q7 -64 18 -125t20 -85q6 17 24.5 75t34.5 110q49 167 104 299q10 21 19.5 30.5t33.5 9.5q13 0 28 -114t25 -264q27 -212 49 -231q15 -13 15 -28q0 -7 -11.5 -15.5z" />
    <glyph glyph-name="N" unicode="N" horiz-adv-x="690" 
d="M545 -5q-7 0 -93.5 107.5t-142.5 183.5q-8 11 -51 73q-63 92 -78 111l-2 -77l-1 -75q0 -71 -1.5 -154t-3.5 -132q-1 -12 -10.5 -22t-19.5 -10q-11 0 -15.5 6.5t-4.5 25.5q0 12 4 74q9 115 9 193q0 62 2 117.5t2 68.5l1 29v3q0 11 3.5 17.5t14.5 6.5h5q11 0 43.5 -39.5
t82.5 -107.5q11 -14 21 -27.5t19 -25.5q57 -73 60 -77q142 -181 155 -206q-2 8 -7 37t-9.5 76t-4.5 97q0 89 -17 235q-5 48 -5 59q0 38 43 38q10 0 15 -20.5t7 -86.5t2 -211q0 -46 3.5 -90t6.5 -78q5 -47 5 -71l1 -36q0 -12 -39 -12z" />
    <glyph glyph-name="O" unicode="O" horiz-adv-x="716" 
d="M603 213q-58 -94 -149 -152t-184 -58q-54 0 -102 22.5t-78 66.5t-30 106q0 106 55 219.5t153 213.5q10 9 19 12t21 3q10 0 19.5 -5t9.5 -12q0 -4 -3.5 -11.5t-4.5 -9.5q6 0 14.5 1.5t33.5 1.5q29 0 78.5 -9.5t72.5 -19.5q65 -29 99 -74.5t34 -97.5q0 -103 -58 -197z
M591 483.5q-27 36.5 -80 60.5q-29 13 -73 13q-14 0 -38 -2l-37 -1q-48 0 -48 20q0 7 1 13t2 8q-21 0 -34 -12q-82 -85 -126.5 -181t-44.5 -187q0 -85 42.5 -123.5t116.5 -38.5q84 0 164.5 48t131 126t50.5 162q0 58 -27 94.5z" />
    <glyph glyph-name="P" unicode="P" horiz-adv-x="556" 
d="M478 382.5q-48 -42.5 -134 -80.5q-31 -14 -63 -26t-42 -15q5 -122 5 -208q0 -28 6.5 -45.5t6.5 -22.5q0 -11 -11 -18.5t-23 -7.5q-15 0 -19 21q0 2 -2.5 18t-2.5 45q0 78 -6 256q-3 90 -3 128q0 32 1 59.5t1 37.5q-63 -17 -109 -35q-15 -7 -42 -23q-12 -7 -23.5 -13
t-17.5 -6q-8 0 -14 7t-6 17q0 13 38 32.5t92.5 37.5t100.5 27q54 10 120 10q91 0 143 -23.5t52 -70.5q0 -59 -48 -101.5zM437 524q-43 14 -106 14q-46 0 -94 -6q-1 -8 -2.5 -37t-1.5 -55l1 -73q1 -24 1 -61q21 2 89 30q66 29 111 64.5t45 75.5q0 34 -43 48z" />
    <glyph glyph-name="Q" unicode="Q" horiz-adv-x="705" 
d="M620 264q-36 -74 -104 -144l-17 -16q2 -11 4 -20.5t4 -18.5q11 -41 25 -77.5t22 -36.5q12 0 28 40q4 10 8.5 13t10.5 3q4 0 8 -2t4 -5q0 -5 -10 -36t-23 -57t-25 -26q-18 0 -28 14t-15.5 28.5t-7.5 19.5q-13 27 -35 99l-9 29q-63 -44 -106 -59.5t-101 -15.5
q-60 0 -105.5 31t-71 89.5t-25.5 139.5q0 106 51 208.5t126 187.5q3 4 14 17t24.5 21t28.5 8q16 0 31 -3q6 8 10.5 10.5t14.5 2.5q78 0 147.5 -27.5t113.5 -87t44 -149.5q0 -106 -36 -180zM576.5 562q-36.5 50 -96.5 73t-132 23q0 -12 -9.5 -21t-24.5 -9q-13 0 -39 4
q-80 -77 -127 -173.5t-47 -210.5q0 -101 41.5 -153t112.5 -52q60 0 98 15t97 58l-13 67q-26 128 -26 137q0 13 8 21.5t26 8.5q8 0 16.5 -37t20.5 -110l9 -53q57 62 89.5 126t32.5 159q0 77 -36.5 127z" />
    <glyph glyph-name="R" unicode="R" horiz-adv-x="625" 
d="M624 45q-10 -17 -21 -17q-10 0 -19 3.5t-27 13.5q-63 37 -165 72q-45 15 -106.5 31.5t-96.5 24.5l7 -129q1 -27 7 -45.5t6 -23.5q0 -11 -11 -18.5t-23 -7.5q-15 0 -19 21q0 2 -2.5 18t-2.5 45q0 19 -4 81q-1 21 -2 40.5t-1 34.5q-3 3 -7.5 7t-7.5 11q-3 9 -5 19t-2 15
q0 7 4 11t12 9q-6 250 -6 286q0 32 1 59t1 36q-6 -1 -36 -5t-48 -8q-64 -15 -97.5 -28.5t-64.5 -30.5q-9 -6 -17.5 -9.5t-16.5 -3.5t-14 7.5t-6 18.5q0 19 64 44t139 41q42 9 107 15.5t121 6.5q96 0 163.5 -21t102 -59t34.5 -87q0 -63 -36 -108t-95.5 -78t-161.5 -75
q-26 -12 -51.5 -22t-34.5 -14q0 -6 1 -9q108 -24 213 -55l21 -6q109 -33 161 -51.5t52 -30.5t-10 -29zM486 584q-29 28 -87.5 45.5t-141.5 17.5q-62 0 -78 -2q-1 -7 -2.5 -33t-1.5 -52l4 -160l4 -124q9 1 35.5 9.5t44.5 16.5q127 51 189.5 102.5t62.5 118.5q0 33 -29 61z
" />
    <glyph glyph-name="S" unicode="S" horiz-adv-x="550" 
d="M477.5 76.5q-33.5 -48.5 -94 -79t-137.5 -30.5q-65 0 -103 10.5t-38 29.5q0 10 14.5 33.5t22.5 23.5q12 0 12 -5q0 -3 -3.5 -7t-3.5 -8q0 -3 12.5 -9t38.5 -11t63 -5q59 0 103.5 23t68.5 58t24 68q0 43 -41.5 74t-133.5 59q-89 29 -137.5 48.5t-78.5 48t-30 69.5
q0 55 62 108.5t153 87t169 33.5q40 0 43 -16t3 -36q0 -15 -11 -15q-5 0 -11.5 3.5t-11.5 5.5q-6 2 -14 4t-23 2q-52 0 -125 -27t-126.5 -67t-53.5 -77q0 -30 24.5 -52t65.5 -37.5t116 -38.5q110 -32 162.5 -72t52.5 -98q0 -50 -33.5 -98.5z" />
    <glyph glyph-name="T" unicode="T" horiz-adv-x="705" 
d="M678 594.5q-7 -8.5 -18 -8.5q-3 0 -20.5 5.5t-32.5 5.5q-48 0 -109 -5t-101 -14q3 -48 5.5 -151.5t2.5 -217.5q0 -48 -1.5 -107t-4.5 -73q-2 -11 -13.5 -18t-23.5 -7q-7 0 -12 6t-5 14l1 35q6 78 6 192q0 82 -2 187.5t-4 130.5q-200 -22 -267 -41q-12 -4 -27 -4
q-18 0 -35 13t-17 28q0 10 6 14.5t15 4.5q57 3 96 6q89 8 224 25q0 31 1.5 44t6.5 13q19 0 34 -15q3 -3 5 -15.5t2 -16.5q22 1 72 10q108 17 148 17q48 0 64 -12q11 -8 11 -29q0 -8 -7 -16.5z" />
    <glyph glyph-name="U" unicode="U" horiz-adv-x="648" 
d="M619 -8.5q-10 -8.5 -25 -8.5q-20 0 -36.5 42t-20.5 87q-4 38 -8 177q-2 58 -3 72q-69 -168 -157.5 -295t-166.5 -127q-39 0 -67.5 47t-43.5 126.5t-15 174.5q0 77 9 174.5t22 140.5q4 12 11.5 19.5t17.5 7.5q25 0 25 -19q0 -3 -19 -72t-19 -258q0 -125 23.5 -205.5
t66.5 -80.5q42 0 100 68.5t110.5 163.5t76.5 167q16 53 21 159q3 41 5 43q8 10 24 10q18 0 18 -49q0 -59 3.5 -224t8.5 -209q4 -37 14.5 -58t22.5 -35t12 -18q0 -12 -10 -20.5z" />
    <glyph glyph-name="V" unicode="V" horiz-adv-x="548" 
d="M522 594q-16 -14 -28 -39q-13 -27 -26.5 -72t-38.5 -135l-28 -103q-51 -185 -63 -261q-3 -17 -16 -28.5t-39 -11.5q-6 0 -42.5 84.5t-95.5 225.5q-36 84 -73 156.5t-50 83.5q-17 13 -17 28q0 7 13.5 19t27.5 12q9 0 13 -3.5t11 -13.5q13 -19 43 -82.5t61 -138.5l82 -199
q39 -92 45 -108q2 19 18.5 90t39.5 160q34 129 55.5 203.5t40.5 118.5q17 39 29 53t27 14q5 0 16 -15.5t11 -20.5q0 -3 -16 -17z" />
    <glyph glyph-name="W" unicode="W" horiz-adv-x="709" 
d="M637 423q-6 -82 -13 -145q-5 -54 -19 -119t-34 -111.5t-41 -46.5q-13 0 -30 45t-44 132l-17 56q-18 58 -40 117.5t-34 84.5l-43 -147q-59 -202 -86 -277q-1 -2 -5.5 -14.5t-15.5 -19t-29 -6.5q-4 0 -16.5 52t-25.5 115q-33 143 -35 151q-24 98 -39.5 147t-27.5 59
q-17 13 -17 28q0 7 10.5 15.5t24.5 8.5q12 0 19 -1.5t11 -8.5q14 -23 54 -194q4 -13 10 -39q21 -87 35 -150q8 -32 13.5 -57.5t9.5 -38.5q1 9 20 70q33 102 51 173q19 72 35 119.5t25 59.5q6 7 16.5 12.5t20.5 5.5q7 0 11 -4.5t7 -11.5t6 -12q10 -20 32.5 -84t40.5 -126
l14 -46q32 -111 47 -148q35 70 48 234q7 62 7 175l-1 101q0 13 3 18.5t14 5.5q12 0 23 -7.5t11 -16.5q0 -72 -6 -154z" />
    <glyph glyph-name="X" unicode="X" horiz-adv-x="388" 
d="M371.5 93.5q-9.5 -33.5 -22 -60.5t-23.5 -27q-17 0 -70.5 89.5t-79.5 154.5q-27 -50 -53 -108t-26 -74q0 -3 3 -8t7 -7q1 -1 6 -3.5t5 -6.5q0 -5 -7.5 -14.5t-9.5 -12.5q-3 -4 -7 -9t-9 -13q-4 -6 -18 -28.5t-20 -22.5q-12 0 -19 9t-7 24q0 34 42 138t85 192
q-75 171 -101 223l-22 43q-12 22 -21 40t-9 23q0 14 10 14q9 0 29.5 -21.5t38.5 -55.5q20 -37 53 -105.5t50 -110.5q105 197 118 216q15 21 25 28t36 7q12 0 20.5 -3t8.5 -7q0 -5 -18 -21q-23 -21 -31 -33q-12 -16 -47 -78t-64 -117l-22 -40q39 -86 78.5 -153t53.5 -67
q6 0 10 7.5t11 27.5q2 5 5.5 17.5t8.5 12.5q7 0 9.5 -2.5t2.5 -12.5q0 -11 -9.5 -44.5z" />
    <glyph glyph-name="Y" unicode="Y" horiz-adv-x="486" 
d="M449 606q-6 -19 -20 -56q-11 -26 -28 -75q-44 -129 -67 -285q-3 -26 -6 -56t-3 -51q0 -12 7.5 -23t7.5 -14q0 -6 -13 -21.5t-29 -28.5t-26 -13q-20 0 -20 17q0 22 25 150.5t42 197.5q-24 -27 -43 -42t-47 -15q-40 0 -81 63.5t-82 152.5l-10 20q-14 29 -28 50t-14 24
q0 5 7.5 7.5t16.5 2.5q33 0 59 -63q36 -86 71.5 -148.5t73.5 -62.5q25 0 44 17t31 40q11 21 26.5 60t23.5 64q32 96 35 111q5 21 9 29.5t13 8.5q11 0 21 -7.5t10 -17.5q0 -17 -6 -36z" />
    <glyph glyph-name="Z" unicode="Z" horiz-adv-x="598" 
d="M461 440.5q-6 -10.5 -13 -16.5q-14 -13 -40.5 -19.5t-87.5 -17.5q-23 -38 -80 -159.5t-57 -136.5q0 -17 56.5 -26.5t107.5 -9.5q35 0 79.5 3.5t55.5 6.5q33 9 51.5 24t22.5 15q5 0 7 -6.5t2 -25.5q0 -66 -211 -66q-79 0 -151 19t-72 51q0 23 45.5 119.5t92.5 185.5
q-22 -3 -45 -10.5t-28 -9.5q-15 -5 -30 -11t-18 -6q-12 0 -23 13t-11 25q0 7 8.5 10.5t31.5 7.5l141 24q34 59 61 114.5t27 70.5q0 6 -16 6t-84 -10l-37 -5q-115 -18 -132 -18q-21 0 -21 8q0 10 13.5 20t38.5 15l25 5q68 13 83 15q68 9 77 11q49 7 60 7q18 0 32.5 -6
t14.5 -16q0 -13 -29.5 -81.5t-63.5 -130.5q48 11 94 32q18 7 20 7q3 0 6 -3t3 -6q0 -8 -6 -18.5z" />
    <glyph glyph-name="bracketleft" unicode="[" horiz-adv-x="405" 
d="M357.5 -132.5q-11.5 -9.5 -27.5 -9.5q-32 0 -86 -9q-7 -2 -23 -4q-41 -6 -63 -10.5t-27 -4.5q-8 0 -10.5 6.5t-1.5 25.5l1 292q0 168 -17 369l-2 28q0 18 36 33q2 1 59 37t108 36q22 0 22 -23q0 -11 -9 -15t-27 -7q-26 -4 -35 -9q-36 -18 -66.5 -36.5t-36.5 -28.5
q4 -41 8.5 -162.5t4.5 -218.5l-2 -276q4 0 20.5 2.5t44.5 9.5q51 13 76.5 18.5t46.5 5.5q11 0 14.5 -7.5t3.5 -18.5q0 -14 -11.5 -23.5z" />
    <glyph glyph-name="backslash" unicode="\" horiz-adv-x="364" 
d="M313 -122q-3 -1 -8 -1q-9 0 -16 6t-10 16q-4 12 -9 44q-18 108 -60 252q-18 64 -48 159t-40 128q-30 92 -55 176q-12 41 -12 69q0 27 14 31q3 1 8 1q15 0 22 -15q16 -40 31 -93l29 -106q16 -64 22 -84q23 -79 56 -177q34 -103 55 -177q10 -37 21.5 -94.5t11.5 -96.5
q0 -35 -12 -38z" />
    <glyph glyph-name="bracketright" unicode="]" horiz-adv-x="405" 
d="M291.5 -98.5q-2.5 -7.5 -11.5 -8.5q-52 -5 -61 -9q-25 -9 -41.5 -20t-38.5 -28q-12 -11 -19.5 -15.5t-15.5 -4.5q-12 0 -22 8t-10 17q0 13 5 21.5t19 14.5q16 6 48 22q37 17 57 25t42 11q-4 41 -8.5 162.5t-4.5 218.5l2 276l-65 -12q-35 -7 -62.5 -11.5t-44.5 -4.5
q-12 0 -18 8t-6 18q0 14 6.5 19.5t22.5 5.5q32 0 86 9q7 2 23 4q41 6 63 10.5t27 4.5q7 0 9.5 -6.5t2.5 -25.5l-1 -292q0 -168 17 -369l2 -28q0 -13 -2.5 -20.5z" />
    <glyph glyph-name="asciicircum" unicode="^" horiz-adv-x="484" 
d="M444 359q-6 -8 -16 -8q-20 0 -27 41q-7 39 -22 81.5t-42 109.5q-12 26 -14 35q-6 18 -13 41t-10 32l-91 -140q-8 -11 -32 -48t-46 -80t-22 -66q0 -18 -8.5 -30t-27.5 -12q-10 0 -15 7.5t-5 25.5q0 44 60 142t127 189q41 71 64 71q12 0 28.5 -25t29.5 -69q4 -19 17.5 -53
t16.5 -41q26 -62 40 -103t14 -68q0 -24 -6 -32z" />
    <glyph glyph-name="underscore" unicode="_" horiz-adv-x="472" 
d="M472 -79v-43h-473v43h473z" />
    <glyph glyph-name="grave" unicode="`" horiz-adv-x="460" 
d="M310.5 602q-5.5 -5 -14.5 -5q-13 0 -50.5 30t-69.5 64.5t-32 47.5q0 10 11 21t21 11q7 0 11.5 -5t15.5 -22q9 -15 24 -36q18 -23 56 -57q33 -31 33 -36q0 -8 -5.5 -13z" />
    <glyph glyph-name="a" unicode="a" horiz-adv-x="529" 
d="M473 49.5q7 -7.5 7 -12.5q0 -12 -10 -27.5t-20 -15.5q-17 0 -26 21t-9 49q0 24 3 144l1 38q0 23 -12 33q-45 -76 -84 -132t-99 -105.5t-126 -49.5q-32 0 -49.5 20t-17.5 52q0 40 36 109.5t92 141t112 117.5q37 30 59 40.5t39 10.5q16 0 33 -10t29 -28t12 -41
q0 -31 -17 -59l17 5q11 0 13 -27q1 -16 2.5 -65t2.5 -81q1 -33 2 -64t2 -49q1 -7 8 -14.5zM216 86q50 40 89.5 95.5t87.5 136.5q12 30 12 65q0 21 -12.5 36.5t-33.5 15.5q-25 0 -64 -34q-45 -38 -95 -101.5t-83 -125.5t-33 -98q0 -30 28 -30q54 0 104 40z" />
    <glyph glyph-name="b" unicode="b" horiz-adv-x="508" 
d="M412 201.5q-68 -100.5 -173 -177.5q-44 -33 -66 -33q-11 0 -18 8t-7 19t9.5 22t28.5 19q69 30 126 86.5t89 119.5t32 111q0 19 -8.5 28.5t-27.5 9.5q-42 0 -86 -34t-82 -89q-29 -42 -56 -101t-41 -125q-8 -35 -34 -35q-7 0 -15 12.5t-8 22.5q0 116 -8 341t-11 257
q0 6 -1 11.5t-2 10.5q-1 6 -2 12.5t-1 12.5q0 23 21 23q17 0 27.5 -21.5t10.5 -48.5v-53q0 -238 7 -366q4 -63 8 -70q11 33 34.5 74t49.5 76q47 64 102 102.5t100 38.5q31 0 50.5 -20t19.5 -58q0 -85 -68 -185.5z" />
    <glyph glyph-name="c" unicode="c" horiz-adv-x="371" 
d="M333.5 183q-20.5 -31 -41.5 -56q-52 -63 -93.5 -97t-86.5 -34q-38 0 -62.5 33t-24.5 76q0 64 34 162t86 170t104 72q22 0 38 -16q9 -9 17 -24t8 -27q0 -17 -4.5 -39.5t-9.5 -22.5q-10 0 -13 11t-4 28q-3 26 -6 34.5t-9 8.5q-47 0 -91 -65.5t-72 -152t-28 -133.5
q0 -66 44 -66q32 0 58.5 16t55.5 45q54 55 84 95q2 3 11.5 15.5t13.5 12.5q12 0 12 -9q0 -6 -20.5 -37z" />
    <glyph glyph-name="d" unicode="d" horiz-adv-x="475" 
d="M409 684q0 -20 -2 -78.5t-2 -117.5q0 -114 5 -232.5t8 -155.5q0 -6 1 -13t2 -13q4 -28 4 -34q0 -10 -14.5 -19t-22.5 -9q-11 0 -14.5 8.5t-3.5 23.5q0 55 3 115l1 56q0 28 -1 73.5t-3 76.5q-51 -164 -115.5 -271.5t-139.5 -107.5q-34 0 -57.5 32t-23.5 92q0 79 53.5 172
t122 160t101.5 67q32 0 32 -21q0 -14 -9.5 -32.5t-21 -33.5t-13.5 -15t-4.5 1.5t-2.5 3.5q0 5 5 17t5 16q0 5 -1 7t-6 2q-21 0 -75.5 -57.5t-97.5 -136.5t-43 -147q0 -24 10 -45t33 -21q73 0 135.5 123.5t108.5 280.5l-2 84q-3 111 -3 118q0 60 5 86q2 10 4.5 14t10.5 4
q10 0 20 -6.5t10 -17.5z" />
    <glyph glyph-name="e" unicode="e" horiz-adv-x="464" 
d="M436 240q0 -18 -26.5 -79t-80 -113t-131.5 -52q-64 0 -107 40t-43 123q0 78 36 154.5t94 125t120 48.5q37 0 62.5 -16.5t25.5 -47.5q0 -35 -39.5 -68t-102.5 -58t-130 -36q-12 -46 -12 -90q0 -58 27.5 -90t78.5 -32q77 0 125 55t80 124q2 4 7 15.5t9 11.5q7 0 7 -15z
M324.5 437q-16.5 9 -38.5 9q-38 0 -73 -25t-58.5 -60t-30.5 -62q46 5 97 26t85.5 46t34.5 41t-16.5 25z" />
    <glyph glyph-name="f" unicode="f" horiz-adv-x="420" 
d="M443.5 604.5q-5.5 -19.5 -12.5 -19.5t-10.5 6.5t-6.5 17.5q-11 34 -33.5 57.5t-48.5 23.5q-70 0 -100.5 -94.5t-30.5 -221.5q30 2 67.5 9.5t49.5 9.5q71 15 94 15q20 0 20 -18q0 -14 -6 -30t-18 -16q-10 0 -20 4q-14 6 -38 6q-16 0 -66 -10l-80 -12q0 -25 6 -139
q10 -176 10 -281q0 -19 -4 -26.5t-16 -7.5q-14 0 -21 16t-7 36q0 115 -15 361l-2 32q-8 -1 -51.5 -9t-63.5 -8q-11 0 -18.5 5t-7.5 15q0 25 18 26q26 1 63 4.5t57 7.5q0 164 44.5 266.5t132.5 102.5q32 0 59.5 -16t44 -39t16.5 -42q0 -12 -5.5 -31.5z" />
    <glyph glyph-name="g" unicode="g" horiz-adv-x="542" 
d="M465 -132q-31 -64 -73 -104q-43 -41 -89.5 -66.5t-80.5 -25.5q-19 0 -27 9.5t-8 22.5q0 12 45 28q68 22 126 74q45 40 66 91t21 104q0 60 -7.5 110t-23.5 123q-18 77 -25 131q-17 -46 -52.5 -111t-84.5 -125q-46 -57 -83.5 -85t-72.5 -28q-30 0 -44.5 23.5t-14.5 64.5
q0 68 42 160t105 158t124 66q21 0 32.5 -15t11.5 -36q0 -27 -11 -27q-3 0 -7.5 7.5t-10.5 13.5t-13 6q-51 0 -103.5 -57t-87 -133.5t-34.5 -125.5q0 -27 7.5 -39t23.5 -12q24 0 58 28t81 88q42 53 76.5 123.5t52.5 134.5q2 6 6.5 10t10.5 4q9 0 18.5 -5.5t9.5 -11.5
q0 -4 -1.5 -8.5t-2.5 -5.5q7 -55 33 -171q19 -82 28.5 -137.5t9.5 -108.5q0 -78 -31 -142z" />
    <glyph glyph-name="h" unicode="h" horiz-adv-x="559" 
d="M479 -34.5q-8 -8.5 -21 -8.5q-10 0 -17 4.5t-7 12.5l2 69q5 123 5 201q0 114 -16 159.5t-37 45.5q-47 0 -118 -145.5t-137 -317.5q-5 -14 -13.5 -27t-17.5 -13q-22 0 -22 14q0 61 -5 228.5t-8 220.5q-9 179 -17 221t-8 45q0 10 11 15t28 5q14 0 20.5 -63.5t9.5 -162.5
l1 -28q2 -31 3 -177.5t1 -215.5q46 115 86.5 205t93.5 168.5t98 78.5q38 0 64 -63.5t26 -189.5q0 -56 2 -156l1 -105q0 -12 -8 -20.5z" />
    <glyph glyph-name="i" unicode="i" horiz-adv-x="218" 
d="M84 611q-17 0 -34.5 14t-17.5 23q0 11 10.5 21t21.5 10l7.5 -2.5t17.5 -13.5q8 -8 18 -21t10 -16q0 -15 -33 -15zM133.5 -18.5q-8.5 -5.5 -19.5 -4.5q-14 1 -20.5 45t-13.5 167q-4 81 -7 158.5t-4 119.5q0 11 3.5 16.5t13.5 5.5q23 0 29 -19t6 -73l-1 -118q0 -101 6 -162
q0 -3 9 -64q7 -42 7 -56q0 -10 -8.5 -15.5z" />
    <glyph glyph-name="j" unicode="j" horiz-adv-x="218" 
d="M92 651q-19 0 -34 11.5t-24 25.5t-9 21q0 11 10.5 21t21.5 10q7 0 12.5 -6.5t12.5 -19.5q7 -14 14 -21l12.5 -12.5t9.5 -12.5q0 -17 -26 -17zM128 -152q-31 -42 -82 -42q-42 0 -72 14.5t-45 34.5t-15 38q0 8 6.5 16t10.5 8q6 0 9.5 -5t5.5 -8q20 -27 39.5 -41t47.5 -14
q44 0 61 29.5t17 90.5q0 33 -4.5 82.5t-9.5 93.5q-1 14 -3 28t-3 28q-6 68 -20 159q-10 67 -10 84q0 14 3 18.5t16 4.5q18 0 27.5 -24.5t13.5 -74.5q4 -60 18 -173q20 -184 20 -221q0 -84 -31 -126z" />
    <glyph glyph-name="k" unicode="k" horiz-adv-x="484" 
d="M492.5 401.5q-13.5 -15.5 -25.5 -15.5q-8 0 -18 8.5t-14 8.5q-27 0 -86 -37t-121 -87t-95 -85l1 -18q76 -35 169 -75t129 -47q14 -2 28 -3t20 -1q9 0 15 -1t6 -4q0 -12 -18.5 -24t-55.5 -12q-33 0 -89.5 24.5t-133.5 64.5l-63 31q13 -127 13 -140q0 -11 -11 -18t-24 -7
q-8 0 -13 24t-12 95l-7 61q-12 5 -21 14.5t-9 17.5q0 12 20 28q-1 54 -5.5 154t-6.5 146l-5 139q0 28 7 48t31 20q9 0 12 -3.5t3 -13.5q0 -46 6.5 -213.5t10.5 -238.5q223 212 326 212q21 0 35.5 -7.5t14.5 -15.5q0 -14 -13.5 -29.5z" />
    <glyph glyph-name="l" unicode="l" horiz-adv-x="200" 
d="M135 11q-13 -6 -29 -6q-12 0 -22.5 28.5t-10.5 86.5q1 113 3.5 273t4.5 241q1 29 10.5 54t33.5 25q8 0 10.5 -8.5t2.5 -32.5q0 -1 -0.5 -6.5t-0.5 -19.5q-18 -263 -18 -513q0 -32 14.5 -68t14.5 -38q0 -10 -13 -16z" />
    <glyph glyph-name="m" unicode="m" horiz-adv-x="749" 
d="M674 -10.5q-8 -8.5 -21 -8.5q-18 0 -18 18q0 202 -13 309.5t-45 107.5q-54 0 -158 -377v-1q0 -12 -8 -20.5t-21 -8.5q-18 0 -18 18q0 40 4 124q4 94 4 148q0 75 -4.5 106.5t-19.5 31.5q-34 0 -86 -124.5t-109 -293.5l-9 -26q-4 -10 -11.5 -17t-16.5 -7q-12 0 -16 2t-5 12
q-5 49 -8 131q-2 21 -4 69q-10 169 -18 228.5t-8 66.5q0 8 8 19t15 11q16 0 26 -23q5 -11 11 -88t10 -191l5 -153q55 170 114 308.5t108 138.5q33 0 45 -48t12 -139q0 -48 -2 -138l-1 -46q41 143 81.5 240t81.5 97q103 0 103 -456q0 -12 -8 -20.5z" />
    <glyph glyph-name="n" unicode="n" horiz-adv-x="460" 
d="M384 -27.5q-10 -8.5 -24 -8.5q-10 0 -17 4.5t-7 12.5q0 41 6 127q6 92 6 153q0 59 -3.5 96.5t-16.5 37.5q-34 0 -74.5 -84.5t-92.5 -222.5l-15 -40q-4 -10 -13.5 -16t-19.5 -6q-12 0 -16 2t-5 12l-8 82l-15 144q-7 86 -17 150q-3 15 -3 23q0 15 13 24.5t30 9.5
q10 0 14.5 -48t9.5 -155l4 -53q8 -101 9 -128q3 6 5.5 13.5t6.5 16.5q54 140 101.5 233.5t91.5 93.5q31 0 42.5 -52.5t14.5 -134.5q3 -91 3 -266q0 -12 -10 -20.5z" />
    <glyph glyph-name="o" unicode="o" 
d="M369 117q-29 -51 -82 -87.5t-121 -36.5q-67 0 -99 37t-32 92q0 48 17.5 119t49.5 127q2 4 16.5 29.5t32.5 39t38 13.5q9 0 16.5 -4.5t7.5 -11.5q0 -2 -5.5 -9.5t-8.5 -11.5q-34 -41 -55 -81q-28 -51 -43.5 -101t-15.5 -109q0 -79 96 -79q45 0 83.5 26t61.5 63.5t23 68.5
q0 35 -23 61t-63 55q-26 19 -38 31t-12 20q0 12 17 19.5t40 7.5q13 0 17 -1.5t4 -5.5q0 -2 -3.5 -6.5t-3.5 -7.5t20 -20q40 -33 67 -67t27 -80q0 -39 -29 -90z" />
    <glyph glyph-name="p" unicode="p" horiz-adv-x="521" 
d="M402 130q-92 -39 -240 -50q-2 -68 -2 -111q0 -57 5 -104q2 -18 2 -25q0 -16 -7 -27.5t-20 -11.5q-18 0 -20 13q-1 17 -2.5 52.5t-1.5 71.5l1 140q-5 0 -18.5 -1t-26.5 -1q-24 0 -24 33q0 24 12 24q4 0 24 -6t34 -6l-1 283q-8 1 -33 3.5t-36.5 9.5t-11.5 20q0 26 10 26
q11 0 27 -8q2 -1 12 -5.5t28 -6.5q6 16 11.5 22t21.5 6q20 0 20 -8q0 -3 -3 -10.5t-3 -14.5q62 -9 140.5 -36.5t136 -69.5t57.5 -92q0 -71 -92 -110zM403 312q-48 34 -115.5 56t-129.5 32q2 -58 3 -153.5t1 -126.5q60 0 128 15.5t114.5 42t46.5 58.5q0 42 -48 76z" />
    <glyph glyph-name="q" unicode="q" horiz-adv-x="475" 
d="M408 444q-1 -11 -2 -26.5t-1 -32.5q0 -154 7.5 -288t13.5 -198q0 -6 1 -13t2 -13q4 -28 4 -34q0 -10 -14.5 -19t-22.5 -9q-11 0 -14.5 8.5t-3.5 23.5q0 55 3 115l1 56q-1 45 -4.5 153t-7.5 138q-51 -138 -115.5 -228.5t-139.5 -90.5q-37 0 -59 30t-22 75q0 76 51 159
t118 140t107 57q17 0 25.5 -8.5t8.5 -22.5q0 -18 -6.5 -25.5t-20.5 -7.5q-9 0 -20 4.5t-14 4.5q-20 0 -71.5 -47.5t-92 -114t-40.5 -125.5q0 -23 12.5 -40.5t41.5 -17.5q66 0 127.5 108t105.5 242q1 9 1 31l-1 74q0 18 15 18q10 0 20 -6.5t10 -17.5q0 -23 -3 -52z" />
    <glyph glyph-name="r" unicode="r" horiz-adv-x="414" 
d="M381.5 400.5q-12.5 -11.5 -21.5 -11.5q-7 0 -13.5 6t-14.5 17q-7 10 -18.5 17t-23.5 7q-29 0 -78 -76.5t-96 -192.5q1 -23 3.5 -58t3.5 -52l3 -40q0 -14 -6 -24.5t-22 -10.5q-17 0 -22 45.5t-6 132.5q-1 22 -1.5 63t-2.5 98q-3 86 -3 123q0 23 28 23q17 0 20.5 -14.5
t3.5 -55.5v-159q30 77 65 133t68.5 85.5t59.5 29.5q22 0 42 -10t32 -25.5t12 -29.5q0 -9 -12.5 -20.5z" />
    <glyph glyph-name="s" unicode="s" horiz-adv-x="445" 
d="M375.5 55.5q-35.5 -40.5 -93.5 -65t-121 -24.5q-43 0 -58 8t-15 22q0 9 23 31.5t31 22.5q12 0 12 -5q0 -4 -5 -8t-5 -7q0 -4 12.5 -8t30.5 -4q42 0 84.5 15.5t69.5 40.5t27 53q0 27 -17 43t-42.5 23.5t-85.5 21.5q-66 15 -102.5 26.5t-58.5 29t-22 44.5q0 48 47 88
t108 63t94 23q34 0 34 -20q0 -12 -8 -26.5t-24 -14.5q-6 0 -13 4.5t-14 4.5q-20 0 -63 -13t-78 -39t-35 -63q0 -24 27.5 -35.5t102.5 -28.5q9 -3 18 -4.5t16 -3.5q77 -18 118 -41t41 -69q0 -44 -35.5 -84.5z" />
    <glyph glyph-name="t" unicode="t" horiz-adv-x="494" 
d="M479.5 388q-14.5 -9 -52.5 -14q-92 -16 -103 -18l-65 -11q0 -52 1.5 -109t4.5 -100q4 -58 14 -89t11 -35q0 -10 -12.5 -18.5t-23.5 -8.5q-6 0 -10 3.5t-7 11.5q-6 14 -11.5 52t-8.5 84q-3 41 -4.5 95.5t-1.5 105.5q-56 -9 -115 -22q-53 -11 -63 -11q-12 0 -22.5 7
t-10.5 19q0 13 9 17t30 4q15 0 44 5.5t37 7.5q67 13 91 17q0 21 -2 55q-2 46 -2 70q0 39 2.5 60.5t9.5 38.5q8 20 30 20q9 0 12 -3t3 -11q0 -6 -5 -35t-5 -77q0 -37 2 -83l1 -27q45 7 178 37q8 2 13.5 14t11.5 12q11 0 22.5 -12.5t11.5 -25.5q0 -17 -14.5 -26z" />
    <glyph glyph-name="u" unicode="u" horiz-adv-x="499" 
d="M459 -8q-9 -9 -25 -9q-20 0 -36.5 42t-20.5 87q-4 43 -6 174q-1 21 -1 42.5t-1 36.5q-29 -69 -79 -157t-100.5 -151t-82.5 -63q-33 0 -43.5 35t-10.5 111q0 71 18.5 161t42.5 137q10 21 17 28.5t16 7.5q25 0 25 -10q0 -5 -10 -23q-27 -50 -47 -120t-20 -188q0 -79 22 -79
q26 0 70.5 57.5t88.5 137.5t67 139q8 20 18 62q3 17 6 24.5t7 7.5q11 0 24 -9t13 -19q0 -48 3.5 -164.5t8.5 -161.5q4 -39 14.5 -61t20.5 -34.5t10 -15.5q0 -16 -9 -25z" />
    <glyph glyph-name="v" unicode="v" horiz-adv-x="535" 
d="M528.5 493q-13.5 -9 -16.5 -13q-52 -59 -97 -169t-71 -238q-3 -15 -10 -60l-5 -35q-3 -16 -13.5 -25t-36.5 -9q-5 0 -34 60.5t-61 130.5l-43 94q-39 85 -65 133t-38 48q-4 0 -6.5 -5t-5.5 -5q-5 0 -8.5 4.5t-3.5 9.5q0 13 14.5 34t28.5 21q10 0 15 -4t9 -9t6 -8
q24 -30 83 -158q21 -45 104 -235l23 -53q0 26 10 84q22 118 66 234t103 194q12 16 19.5 22.5t19.5 6.5q5 0 16 -15.5t11 -20.5t-13.5 -14z" />
    <glyph glyph-name="w" unicode="w" horiz-adv-x="713" 
d="M641.5 201.5q-26.5 -92.5 -61.5 -150t-56 -57.5q-30 0 -57 58t-44.5 140t-21.5 149q-27 -52 -58 -117.5t-49 -111.5q-27 -71 -48 -138q-1 -2 -3 -9.5t-5.5 -10.5t-10.5 -3q-15 0 -22.5 6.5t-13.5 20.5l-8 41q-18 98 -38 186q-22 91 -45 150t-35 59q-4 0 -12 -6.5
t-15 -10.5t-12 -2q-12 6 -12 14t12 25t27.5 30.5t27.5 13.5q9 0 15.5 -4.5t13.5 -13.5q13 -17 36 -79.5t42 -151.5l41 -175q46 128 84.5 212.5t87.5 175.5q19 34 40 34q14 0 23 -10t9 -16q0 -4 -5 -9t-8 -10q-8 -11 -12.5 -25t-4.5 -43q0 -35 12.5 -109.5t34 -133.5
t46.5 -59q15 0 37 50t38.5 123.5t16.5 141.5q0 14 -14 32q-11 15 -11 22q0 6 9.5 17.5t19.5 11.5q13 0 24.5 -21t11.5 -42q0 -102 -26.5 -194.5z" />
    <glyph glyph-name="x" unicode="x" horiz-adv-x="388" 
d="M369 67q-9 -26 -21 -46.5t-23 -20.5q-20 0 -54.5 49.5t-86.5 134.5l-12 20q-20 -36 -32.5 -60.5t-24.5 -54.5q-20 -48 -20 -57q0 -14 14 -14q3 0 10 5t10 5q5 0 9 -3t4 -7q0 -6 -15 -20t-33.5 -25t-29.5 -11q-8 0 -14 13.5t-6 28.5q0 27 22.5 75.5t67.5 134.5l16 29
q-20 43 -53.5 108.5t-59.5 107.5q-15 26 -15 50q0 10 2.5 14t7.5 4q9 0 19 -9.5t24 -33.5q45 -72 101 -193q4 7 23 40q31 56 61 103q21 30 32.5 40t32.5 10q29 0 29 -16q0 -4 -3 -6.5t-13.5 -8t-21.5 -16.5q-17 -17 -53 -72.5t-68 -114.5q22 -42 51.5 -84.5t53 -70
t29.5 -27.5q14 0 23 26q2 7 5.5 15t8.5 8q12 0 12 -11q0 -13 -9 -39z" />
    <glyph glyph-name="y" unicode="y" horiz-adv-x="425" 
d="M371 342q-12 -88 -13 -99q-13 -123 -18.5 -187.5t-5.5 -116.5q0 -43 6.5 -68t14 -39.5t7.5 -17.5q0 -9 -16 -16t-33 -7q-13 0 -20.5 35t-7.5 109q0 56 11 151l15 138q-27 -52 -66.5 -99.5t-81.5 -47.5q-39 0 -70 68t-48.5 154t-17.5 126q0 25 15 25q22 0 28 -41
q38 -278 106 -278q27 0 47.5 21.5t48.5 66.5q13 21 28 56t23 58l7 101q2 23 6 32.5t16 9.5q10 0 20 -11.5t10 -22.5q0 -23 -11 -100z" />
    <glyph glyph-name="z" unicode="z" horiz-adv-x="529" 
d="M469 66.5q-36 -32.5 -94.5 -56t-120.5 -23.5q-46 0 -89.5 10t-70.5 26.5t-27 34.5q0 24 19 56.5t61 93.5q-26 0 -61 8q-18 5 -18 22q0 7 18 7l91 1q23 43 41.5 91.5t18.5 65.5q0 8 -7 8q-11 0 -34 -11t-31 -15q-61 -29 -123 -29q-13 0 -13 9q0 7 29 16q40 13 105 49
q74 41 102 41q16 0 25 -7t9 -18q0 -25 -81 -197q23 1 75 14q17 5 22 5q3 0 5 -3t2 -6q0 -16 -16 -23q-41 -19 -115 -28l-21 -34q-28 -44 -43 -72t-15 -41t49 -20.5t97 -7.5q69 0 125 21t92 60q5 9 10 37q1 9 3 16.5t6 7.5q6 0 8.5 -14.5t2.5 -36.5q0 -25 -36 -57.5z" />
    <glyph glyph-name="braceleft" unicode="{" horiz-adv-x="407" 
d="M356.5 -138.5q-16.5 -10.5 -42.5 -17.5t-52 -7q-45 0 -82 25.5t-58.5 67.5t-21.5 88q0 57 24.5 102.5t63.5 87.5q9 10 20.5 21t19.5 17q-46 15 -80 34.5t-34 32.5q0 11 18 23t56 32q18 9 33 18t15 14q0 6 -20 28q-22 24 -35 44.5t-13 43.5q0 34 18.5 68t37 56.5
t63.5 70.5q4 5 8 11t7.5 9t9.5 3q10 0 16 -7.5t6 -17.5q0 -9 -3.5 -15t-8 -11.5t-7.5 -8.5l-15 -15q-37 -34 -62 -67.5t-25 -72.5q0 -19 11 -35.5t33 -40.5q17 -18 25 -29.5t8 -22.5q0 -14 -57 -38q-25 -11 -38.5 -19t-13.5 -15q0 -10 18.5 -19t38.5 -14q2 -1 31 -7
q20 -4 28.5 -7t8.5 -10q0 -8 -35 -36q-30 -24 -42 -38q-30 -34 -51.5 -73.5t-21.5 -95.5q0 -37 15 -68t39.5 -48.5t51.5 -17.5q24 0 66 14q19 7 26 7q6 0 12.5 -7t6.5 -18q0 -9 -16.5 -19.5z" />
    <glyph glyph-name="bar" unicode="|" horiz-adv-x="364" 
d="M213.5 -192q-7.5 -8 -19.5 -8q-23 0 -32.5 101.5t-9.5 165.5q0 88 5 185q4 116 4 185q0 45 -3 100l-2 97q0 103 6 144q1 11 7.5 16.5t16.5 5.5q18 0 24 -30.5t6 -65.5t-4 -213q-6 -220 -6 -317q0 -160 12 -290q3 -35 3 -54q0 -14 -7.5 -22z" />
    <glyph glyph-name="braceright" unicode="}" horiz-adv-x="407" 
d="M295.5 492q-34.5 -45 -87.5 -85q9 -13 51 -24q32 -10 47.5 -19t15.5 -24q0 -11 -17.5 -27.5t-47.5 -38.5q-17 -13 -30 -24t-13 -16q0 -10 8.5 -24.5t24.5 -38.5q23 -35 36 -59t13 -45q0 -45 -38 -94.5t-99 -105.5q-8 -8 -24.5 -16t-25.5 -8q-11 0 -17 5.5t-6 15.5
q0 8 8.5 14.5t20 13t17.5 10.5q44 35 81.5 80.5t37.5 81.5q0 17 -10 35t-34 51q-23 32 -35 52.5t-12 40.5q0 14 50 48q23 17 34 26.5t11 16.5q0 10 -20 17t-49 15q-27 7 -36.5 16t-9.5 21q0 5 10 14t23 19q24 18 37 30q29 27 45.5 55.5t16.5 76.5t-38.5 68t-105.5 31
q-7 1 -13.5 5.5t-6.5 13.5t8.5 14t19.5 5q22 0 44 -5q64 -12 107 -40.5t43 -90.5t-34.5 -107z" />
    <glyph glyph-name="asciitilde" unicode="~" horiz-adv-x="574" 
d="M540 292q-18 -41 -48.5 -68t-66.5 -27q-41 0 -71 25.5t-65 71.5q-26 34 -42.5 49.5t-34.5 15.5q-48 0 -86.5 -36t-63.5 -90q-2 -4 -5 -16.5t-6.5 -19t-10.5 -6.5q-20 0 -20 34q0 35 24 71q29 45 76.5 77.5t88.5 32.5q30 0 53.5 -20.5t55.5 -61.5t56.5 -62.5t55.5 -21.5
q33 0 50.5 31t29.5 77q11 41 31 41q17 0 17 -16q0 -40 -18 -81z" />
    <glyph glyph-name="uni007F" horiz-adv-x="0" 
 />
    <glyph glyph-name="uni00A0" unicode="&#xa0;" horiz-adv-x="287" 
 />
    <glyph glyph-name="exclamdown" unicode="&#xa1;" horiz-adv-x="200" 
d="M63 483q19 0 31 -11.5t17 -26t5 -22.5q0 -11 -10.5 -21t-21.5 -10q-7 0 -11 6t-9 17q-8 18 -16 24t-13 15.5t-5 13.5q0 15 33 15zM68 -113q15 148 15 294q0 32 -4 65t-4 39q0 24 20 24q7 0 15 -16.5t13.5 -43t5.5 -55.5q0 -80 -8 -320q-1 -29 -10.5 -54t-33.5 -25
q-8 0 -10.5 8.5t-2.5 32.5q0 3 4 51z" />
    <glyph glyph-name="cent" unicode="&#xa2;" horiz-adv-x="371" 
d="M234 106q15 12 16 13q30 28 46 49t34 47q12 19 17 19q6 0 7 -1.5t1 -6.5q0 -7 -15.5 -36.5t-34.5 -53.5q-33 -42 -70 -76l3 -71l3 -43q2 -18 2 -25q0 -16 -3 -24t-11 -8q-11 0 -22.5 44t-13.5 94q-33 -18 -64 -18q-38 0 -62.5 33t-24.5 76q0 104 45 214.5t107 177.5
q1 9 3.5 59t9.5 85t17 35q11 0 14.5 -8t3.5 -34l-2 -54l-1 -46q13 8 34.5 16t33.5 8q8 0 12.5 -11t4.5 -26q0 -12 -4 -31.5t-9 -19.5q-6 0 -13.5 11.5t-11.5 11.5q-10 0 -23.5 -5t-24.5 -13q-1 -16 -3 -72.5t-2 -112.5zM191 378.5q1 45.5 2 61.5q-44 -60 -72.5 -151.5
t-28.5 -164.5q0 -66 44 -66q25 0 55 15l-1 209q0 51 1 96.5z" />
    <glyph glyph-name="sterling" unicode="&#xa3;" horiz-adv-x="564" 
d="M541.5 2q-13.5 -11 -32.5 -11q-10 0 -32 6q-33 11 -72 11q-82 0 -151 -11.5t-133 -27.5l-20 -5q-34 0 -34 36q0 5 3 8.5t10 7.5t13 9q23 47 41 137t18 154q-5 -1 -24.5 -5.5t-31.5 -4.5q-10 0 -18 7t-8 17q0 25 18 26l40 3q16 2 24 2q0 160 45 266t132 106q32 0 59.5 -16
t44 -39t16.5 -42q0 -12 -5.5 -31.5t-12.5 -19.5t-10.5 6.5t-6.5 17.5q-11 34 -33.5 57.5t-48.5 23.5q-48 0 -77 -52.5t-41.5 -126t-12.5 -140.5q49 5 67 7q19 2 69.5 6.5t74.5 4.5q20 0 20 -18q0 -15 -6 -32.5t-18 -17.5q-10 0 -20 4q-14 6 -38 6q-99 0 -148 -6
q0 -27 -7 -87t-19 -119t-27 -87q38 9 116 19t138 10q55 0 94 -4l22 -2q19 -2 27.5 -7.5t8.5 -16.5q0 -18 -13.5 -29z" />
    <glyph glyph-name="currency" unicode="&#xa4;" horiz-adv-x="548" 
d="M328 178q45 5 60 5q13 0 20 -4.5t7 -11.5q0 -15 -14 -19.5t-51 -8.5q-41 -5 -128 -10l-70 -5q4 -65 45 -108.5t107 -43.5q54 0 94 15.5t77 57.5l15 20q5 9 10.5 15.5t9.5 6.5q6 0 8 -3t2 -11q0 -7 -5.5 -19.5t-12.5 -22.5q-25 -34 -45.5 -54.5t-56.5 -35.5t-91 -15
q-88 0 -145 49.5t-59 146.5q-20 -1 -59 -1q-15 0 -27.5 4.5t-12.5 15.5q0 13 9 17t30 4q38 0 61 1q3 39 12 79l-74 -2q-13 0 -23 5t-10 17q0 13 9 17t30 4h27q8 0 20 -0.5t31 0.5q22 86 57 154q33 65 76.5 108t87.5 43q43 0 66.5 -31t23.5 -77q0 -17 -6.5 -34.5t-14.5 -29.5
t-12 -12q-8 0 -8 9q0 3 3.5 13.5t3.5 17.5q0 25 -6 47q-5 19 -20 31.5t-33 12.5q-72 0 -135 -139q-24 -54 -39 -111l9 1q35 2 79 6.5t80 8.5q30 4 39 4q20 0 20 -17t-13.5 -22.5t-53.5 -9.5q-55 -5 -110 -8l-59 -3q-9 -47 -10 -81l62 3q41 2 113 11z" />
    <glyph glyph-name="yen" unicode="&#xa5;" horiz-adv-x="550" 
d="M513 71.5q-14 -4.5 -51 -8.5q-44 -5 -136 -13q-1 -21 -1 -45q0 -12 7.5 -23t7.5 -14q0 -6 -13 -21.5t-29 -28.5t-26 -13q-20 0 -20 17q0 19 15 124q-54 -3 -106 -3q-15 0 -29 5.5t-14 16.5q0 13 9 17t30 4q50 0 116 2q9 58 13 80q-92 -4 -170 -4q-13 0 -23 5t-10 17
q0 13 9 17t30 4q103 0 171 3q13 85 26 138q-5 -6 -13 -18q-13 -20 -25.5 -29.5t-37.5 -9.5q-38 0 -95.5 82.5t-91.5 153.5q-14 29 -28 50t-14 24q0 5 7.5 7.5t16.5 2.5q33 0 59 -63q16 -37 44 -86.5t62 -87t63 -37.5q14 0 24.5 13.5t17.5 27t9 16.5q11 21 26.5 60t23.5 64
q32 96 35 111q5 21 9 29.5t13 8.5q11 0 21 -7.5t10 -17.5q0 -17 -6 -36t-20 -56q-11 -26 -28 -75q-33 -101 -60 -262q54 5 111 12q8 1 13.5 13t11.5 12q11 0 22.5 -12.5t11.5 -25.5q0 -17 -14 -23.5t-53 -10.5q-55 -5 -110 -8l-3 -22q-2 -12 -4 -57l84 8q42 5 57 5
q59 0 59 -13q0 -15 -14 -19.5z" />
    <glyph glyph-name="brokenbar" unicode="&#xa6;" horiz-adv-x="364" 
d="M190.5 372.5q-3.5 -3.5 -13.5 -3.5q-13 0 -18 37.5t-5 120.5q0 43 3 137l2 51q0 56 4 74q1 5 7.5 8t15.5 3q16 0 22 -15.5t6 -33.5q0 -19 -4 -75q-5 -85 -5 -115q0 -88 -9 -149l-2 -28q0 -8 -3.5 -11.5zM190.5 -196.5q-3.5 -3.5 -13.5 -3.5q-13 0 -18 37.5t-5 120.5
q0 43 3 137l2 51q0 56 4 74q1 5 7.5 8t15.5 3q16 0 22 -15.5t6 -33.5q0 -19 -4 -75q-5 -85 -5 -115q0 -88 -9 -149l-2 -28q0 -8 -3.5 -11.5z" />
    <glyph glyph-name="section" unicode="&#xa7;" horiz-adv-x="445" 
d="M375 83q-36 -42 -94.5 -70t-119.5 -28q-43 0 -58 8t-15 22q0 9 28 33t37 24q12 0 12 -5q0 -3 -10.5 -8.5t-10.5 -9.5t11 -8t21 -4q47 0 91.5 18.5t72.5 47t28 57.5q0 21 -34.5 34t-105.5 29q-61 14 -98 25t-63.5 30t-26.5 46q0 35 33.5 70.5t78.5 61.5t75 33
q-91 19 -139 38.5t-48 55.5q0 12 27 42t68.5 64t82.5 59q23 13 36.5 18.5t34.5 5.5q34 0 34 -20q0 -6 -6 -20t-16 -24.5t-21 -10.5q-6 0 -6.5 7t-2 11.5t-7.5 4.5q-13 0 -56 -26t-78.5 -58t-35.5 -50q0 -19 31.5 -29.5t99.5 -24.5q60 -12 96.5 -22.5t63 -28t26.5 -43.5
q0 -52 -50.5 -102.5t-130.5 -74.5q80 -15 130.5 -35.5t50.5 -61.5q0 -39 -36 -81zM203 444q-46 -24 -77.5 -55.5t-31.5 -59.5q0 -17 18 -31t46 -19q50 2 99 28t80 61t31 63q0 15 -21 25.5t-59 19.5q-39 -8 -85 -32z" />
    <glyph glyph-name="dieresis" unicode="&#xa8;" horiz-adv-x="460" 
d="M349 604.5q-11 -7.5 -21 -7.5q-17 0 -34 24t-17 42q0 11 13 20.5t23 9.5q9 0 20 -14.5t19 -32.5t8 -25q0 -9 -11 -16.5zM147 597q-15 0 -28 14t-21 31.5t-8 23.5q0 8 9.5 14t20.5 6q17 0 35 -27.5t18 -49.5q0 -12 -26 -12z" />
    <glyph glyph-name="copyright" unicode="&#xa9;" horiz-adv-x="938" 
d="M850 300q-43 -88 -121 -161q-100 -93 -196 -137.5t-204 -44.5q-66 0 -128.5 30t-101.5 78.5t-39 100.5q0 97 37 204t110.5 212t179.5 193q12 10 22.5 14t23.5 4q33 0 33 -45q1 1 5 2t10 2q4 0 10.5 1t16.5 1q9 0 15 -1q166 -15 268 -81.5t102 -193.5q0 -90 -43 -178z
M749.5 651.5q-106.5 54.5 -256.5 59.5q-19 1 -26 7.5t-7 26.5q-44 0 -66 -19q-90 -73 -154 -169.5t-97 -193t-33 -174.5q0 -50 30.5 -93t81.5 -68t110 -25q77 0 136.5 19t108 51t115.5 89q70 60 117 149t47 163q0 123 -106.5 177.5zM598.5 298.5q-30.5 -47.5 -57.5 -80.5
q-52 -62 -91.5 -94.5t-84.5 -32.5q-38 0 -62.5 33t-24.5 76q0 64 37.5 170t92.5 185.5t107 79.5q22 0 38 -16q9 -9 13 -16.5t4 -19.5q0 -46 -7 -46q-9 0 -12 5.5t-5 17.5q-3 15 -5.5 21.5t-8.5 6.5q-47 0 -94 -73t-78.5 -167.5t-31.5 -141.5q0 -66 44 -66q32 0 58.5 16
t55.5 45q31 31 55.5 61t54.5 71q2 3 11.5 15.5t13.5 12.5q6 0 7 -1.5t1 -6.5q0 -7 -30.5 -54.5z" />
    <glyph glyph-name="ordfeminine" unicode="&#xaa;" horiz-adv-x="377" 
d="M285.5 492.5q-7.5 14.5 -7.5 32.5q0 36 2 82v22v12q-8 -12 -12 -19q-24 -35 -28 -40q-36 -48 -73 -76.5t-71 -28.5q-17 0 -26.5 14.5t-9.5 39.5q0 27 24.5 70.5t60.5 86t69 65.5q27 18 45 18q16 0 26 -17t10 -37l1 -21h7q6 0 9 -6.5t3 -16.5l3 -94l2 -53l3 -4l2 -2
q4 -6 4 -10q0 -9 -7 -20.5t-17 -11.5q-12 0 -19.5 14.5zM268 701.5q1 4.5 1 8.5q0 6 -4 11.5t-12 5.5q-19 0 -55.5 -36.5t-65 -82.5t-28.5 -73q0 -6 2.5 -9.5t5.5 -3.5q45 0 114 94q14 19 21 31q18 26 26 35q-1 2 -3.5 5.5t-2.5 5.5q0 4 1 8.5z" />
    <glyph glyph-name="guillemotleft" unicode="&#xab;" horiz-adv-x="517" 
d="M80 200q-10 6 -10 15q0 4 11.5 15t15.5 14q78 71 120 138q8 13 12.5 17.5t10.5 4.5q8 0 17.5 -7t9.5 -18q0 -31 -62 -93l-71 -71q76 -62 106.5 -90t30.5 -45q0 -9 -6 -14t-12 -5q-4 0 -17.5 11t-24.5 20.5t-16 13.5q-54 48 -93 79zM258 200q-10 6 -10 15q0 4 11.5 15
t15.5 14q78 71 120 138q8 13 12.5 17.5t10.5 4.5q8 0 17.5 -7t9.5 -18q0 -31 -62 -93l-71 -71q76 -62 106.5 -90t30.5 -45q0 -9 -6 -14t-12 -5q-4 0 -17.5 11t-24.5 20.5t-16 13.5q-54 48 -93 79z" />
    <glyph glyph-name="logicalnot" unicode="&#xac;" horiz-adv-x="472" 
d="M376 210q1 32 1 45q-27 0 -79.5 -5t-103.5 -10q-25 -2 -72 -6.5t-66 -4.5q-12 0 -22.5 6.5t-10.5 15.5q0 13 9 17t30 4q47 0 145 8.5t160 24.5q23 6 36 6q10 0 16.5 -4t6.5 -15q0 -8 -3 -14v-43q0 -53 3 -80.5t9 -58.5q4 -18 4 -23q0 -7 -8 -11t-19 -4q-23 0 -30 31.5
t-7 60.5q0 28 1 60z" />
    <glyph glyph-name="uni00AD" unicode="&#xad;" horiz-adv-x="340" 
d="M283 235.5q-14 -6.5 -53 -10.5l-67 -8q-24 -3 -45 -4.5t-51 -1.5q-13 0 -23 5t-10 17q0 13 9 17t30 4q38 0 53.5 0.5t27.5 3.5q4 1 23 4.5t61 9.5q8 1 13.5 13t11.5 12q11 0 22.5 -12.5t11.5 -25.5q0 -17 -14 -23.5z" />
    <glyph glyph-name="registered" unicode="&#xae;" horiz-adv-x="938" 
d="M850 300q-43 -88 -121 -161q-100 -93 -196 -137.5t-204 -44.5q-66 0 -128.5 30t-101.5 78.5t-39 100.5q0 97 37 204t110.5 212t179.5 193q12 10 22.5 14t23.5 4q33 0 33 -45q1 1 5 2t10 2q4 0 10.5 1t16.5 1q9 0 15 -1q166 -15 268 -81.5t102 -193.5q0 -90 -43 -178z
M317 576q27 6 69.5 10t79.5 4q61 0 106.5 -16.5t69.5 -42.5t24 -54q0 -57 -38 -99t-85.5 -67t-120.5 -55q53 -11 133 -34q69 -20 99 -31q32 -11 47 -21q67 61 111 147t44 157q0 123 -106.5 177.5t-256.5 59.5q-19 1 -26 7.5t-7 26.5q-44 0 -66 -19q-89 -72 -157 -174
q33 13 80 24zM606 508.5q-18 19.5 -55 32t-90 12.5q-35 0 -46 -1q-2 -18 -2 -51l5 -204q11 2 45 15q79 35 120 75t41 82q0 20 -18 39.5zM646 141q-45 25 -99 42.5t-125 34.5l4 -77q1 -9 7 -37q2 -6 2 -8q0 -10 -9 -16t-18 -6q-15 0 -17 18q-4 20 -4 41l-2 49l-2 51l-1 1
l-3 2q-4 4 -6 9q-4 9 -4 23q0 10 9 15l1 1l-4 209l1 56l-48 -8q-62 -15 -93 -32q-4 -2 -14 -8t-19 -7q-45 -79 -68.5 -159.5t-23.5 -145.5q0 -50 30.5 -93t81.5 -68t110 -25q101 0 172.5 31.5t154.5 99.5z" />
    <glyph glyph-name="macron" unicode="&#xaf;" horiz-adv-x="472" 
d="M472 787v-43h-473v43h473z" />
    <glyph glyph-name="degree" unicode="&#xb0;" 
d="M371 556q-27 -54 -77 -94.5t-116 -40.5q-61 0 -102 28t-41 78q0 53 26.5 113.5t69.5 105t90 51.5q7 3 33 3q8 0 16.5 -2.5t22.5 -7.5q22 -8 46.5 -29t41.5 -51t17 -63q0 -37 -27 -91zM124.5 667.5q-39.5 -64.5 -39.5 -132.5q0 -30 26 -48.5t75 -18.5q45 0 82.5 30.5
t59 72.5t21.5 71q0 35 -25 64t-60 42q-21 7 -37 15q-63 -31 -102.5 -95.5z" />
    <glyph glyph-name="plusminus" unicode="&#xb1;" horiz-adv-x="472" 
d="M405 263.5q-11 -7.5 -36 -12.5q-38 -8 -101 -14q-1 -16 -1 -45q0 -81 6.5 -112.5t7.5 -36.5q51 8 106 22q8 2 13.5 13.5t11.5 11.5q11 0 22.5 -12.5t11.5 -25.5q0 -16 -11 -23.5t-36 -12.5q-26 -5 -80 -12.5t-98 -12.5q-115 -12 -165 -12q-12 0 -22.5 6.5t-10.5 15.5
q0 13 9 17t30 4q23 0 74 4t97 10q-12 28 -12 95v100q-115 -12 -165 -12q-12 0 -22.5 6.5t-10.5 15.5q0 13 9 17t30 4q56 0 160 13v57q0 39 2.5 90t4.5 64q2 14 18 14q18 0 24 -16t6 -34q0 -20 -4 -98q-2 -23 -4 -71q42 7 88 19q8 2 13.5 13.5t11.5 11.5q11 0 22.5 -12.5
t11.5 -25.5q0 -16 -11 -23.5z" />
    <glyph glyph-name="uni00B2" unicode="&#xb2;" horiz-adv-x="448" 
d="M308 300q35 9 56 18q6 2 21 6.5t22 4.5q11 0 16 -10t5 -22q0 -16 -34 -25.5t-100 -22.5q-138 -27 -176 -27q-21 0 -34.5 11t-13.5 28q0 11 6 22t13 17q-4 -4 35 32q9 8 29.5 26t37.5 35q35 34 52.5 53.5t28.5 44.5t11 57q0 30 -18.5 49t-50.5 19q-58 0 -106 -38
q-19 -15 -32.5 -24.5t-20.5 -9.5q-6 0 -10.5 6t-4.5 15q0 11 6 21t14 17q69 59 161 59q53 0 85 -31t32 -76q0 -52 -25 -91t-73 -80q-41 -35 -80 -74q-8 -8 -16.5 -17.5t-8.5 -14.5q0 -7 16 -7q51 0 157 29z" />
    <glyph glyph-name="uni00B3" unicode="&#xb3;" horiz-adv-x="413" 
d="M305 293q-42 -41 -105 -61q-30 -11 -73 -19t-63 -8q-10 0 -14.5 8t-4.5 18t4 17t11 8q34 1 62.5 5t72.5 17q46 14 74.5 44.5t28.5 70.5q0 57 -75 57q-18 0 -46 -5t-55 -16q-10 -5 -17 -5q-6 0 -12.5 5t-6.5 14q0 7 4 11.5t9 6.5l29 10l19.5 6.5t20.5 7.5q38 16 56 35
t18 54q0 28 -16.5 41.5t-41.5 13.5q-30 0 -59 -21q-4 -3 -18 -17q-5 -6 -10.5 -10.5t-11.5 -4.5q-5 0 -9.5 5.5t-4.5 16.5q0 17 17 34t45 28t59 11q46 0 72.5 -24.5t26.5 -63.5q0 -36 -20 -59.5t-52 -41.5v-3q1 0 5 0.5t10 0.5q39 0 76 -17.5t37 -69.5q0 -59 -42 -100z" />
    <glyph glyph-name="acute" unicode="&#xb4;" horiz-adv-x="460" 
d="M284 691.5q-32 -34.5 -69.5 -64.5t-50.5 -30q-9 0 -14.5 5t-5.5 13q0 5 33 36q38 34 56 57q15 21 24 36q11 17 15.5 22t11.5 5q10 0 21 -11t11 -21q0 -13 -32 -47.5z" />
    <glyph glyph-name="uni00B5" unicode="&#xb5;" horiz-adv-x="523" 
d="M131 437q10 37 33 37q32 0 32 -10q0 -3 -4 -13.5t-7 -17.5q-27 -60 -46.5 -130t-19.5 -165q0 -34 10.5 -57.5t26.5 -23.5q26 0 66.5 56t80.5 134.5t64 140.5q8 20 18 62q3 17 6 24.5t7 7.5q11 0 24 -9t13 -19q0 -48 3.5 -164.5t8.5 -161.5q4 -39 14.5 -61t20.5 -34.5
t10 -15.5q0 -16 -9 -25t-25 -9q-20 0 -36.5 42t-20.5 87q-4 43 -6 174q-1 21 -1 42.5t-1 36.5q-54 -130 -125 -250.5t-117 -120.5q-42 0 -62 55l-21 -108q-11 -58 -24.5 -93.5t-32.5 -35.5q-16 0 -25 9t-9 25q0 4 10 21q15 26 25 48t16 50l15 61q25 91 36 165q9 102 52 246z
" />
    <glyph glyph-name="paragraph" unicode="&#xb6;" horiz-adv-x="690" 
d="M658 256.5q-7 -4.5 -22 -6.5l-28 -3l1 -71q3 -139 3 -204q0 -64 -4 -93q-2 -11 -11.5 -19.5t-21.5 -8.5q-17 0 -17 12q0 5 4.5 35t4.5 57l-2 288q-64 -6 -111 -7q3 -208 3 -302q0 -28 -1 -43.5t-3 -27.5q-3 -20 -13.5 -31.5t-23.5 -11.5q-6 0 -10 5.5t-4 12.5t4 25
q1 5 3.5 20.5t2.5 33.5l-2 317h-31q-65 0 -141.5 16.5t-132.5 53t-56 94.5q0 128 134.5 221.5t388.5 143.5q3 11 9 16.5t18 5.5q8 0 12.5 -6.5t4.5 -16.5l-3 -22q-10 -55 -10 -85q0 -88 4 -358q7 2 18 5t17 3q8 0 15.5 -13t7.5 -26q0 -5 -7 -9.5zM562 649q0 42 1 57
q-32 -4 -67.5 -11t-46.5 -9l5 -405q67 3 111 8q-3 233 -3 360zM407 611q0 49 1 64q-71 -19 -142 -55t-120.5 -89t-49.5 -118q0 -51 48 -81t113 -42t123 -12q19 0 29 1z" />
    <glyph glyph-name="periodcentered" unicode="&#xb7;" horiz-adv-x="212" 
d="M139 247q-19 0 -34.5 21.5t-25 48t-9.5 34.5q0 11 10.5 21t21.5 10q7 0 11 -5.5t12 -18.5q10 -18 17 -23q13 -10 21.5 -37t8.5 -36q0 -15 -33 -15z" />
    <glyph glyph-name="cedilla" unicode="&#xb8;" horiz-adv-x="500" 
d="M291.5 -142.5q-14.5 -22.5 -35.5 -34.5t-41 -12q-10 0 -16.5 5.5t-6.5 14.5q0 4 7.5 9t8.5 6q19 11 30.5 23t11.5 34q0 16 -6.5 29t-17.5 30q-10 15 -10 20q0 3 8 5.5t16 2.5t24 -14.5t29 -33t13 -31.5q0 -31 -14.5 -53.5z" />
    <glyph glyph-name="uni00B9" unicode="&#xb9;" horiz-adv-x="319" 
d="M205.5 238q-6.5 -7 -20.5 -7q-13 0 -20.5 16.5t-14 47.5t-18.5 107q1 -5 -8 49q-5 33 -13 102t-8 81q0 9 5.5 14t14.5 5q12 0 19 -16t11 -39l11 -70q27 -185 34 -211q14 -58 14 -64q0 -8 -6.5 -15z" />
    <glyph glyph-name="ordmasculine" unicode="&#xba;" horiz-adv-x="303" 
d="M61 487.5q-17 14.5 -17 39.5q0 21 13.5 67t24.5 71q3 6 7 22q9 27 17 41t23 14q7 0 13.5 -4.5t6.5 -12.5q0 -6 -10 -26q-53 -119 -53 -167q0 -6 6.5 -11t18.5 -5q24 0 49.5 17t42.5 39.5t17 35.5q0 7 -9.5 16t-27.5 23q-19 14 -29 24t-10 17q0 8 12 15t27 7q13 0 16 -3
t3 -8q0 -4 -3 -7l-1 -1q0 -1 2.5 -1.5t4.5 -2.5q26 -21 41.5 -38t15.5 -38t-24 -54.5t-61 -58.5t-75 -25q-24 0 -41 14.5z" />
    <glyph glyph-name="guillemotright" unicode="&#xbb;" horiz-adv-x="517" 
d="M262 266q10 -6 10 -15q0 -4 -11.5 -15t-15.5 -14q-78 -71 -120 -138q-8 -13 -12.5 -17.5t-10.5 -4.5q-8 0 -17.5 7t-9.5 18q0 31 62 93l71 71q-76 62 -106.5 90t-30.5 45q0 9 6 14t12 5q4 0 17.5 -11t24.5 -20.5t16 -13.5q54 -48 93 -79zM440 266q10 -6 10 -15
q0 -4 -11.5 -15t-15.5 -14q-78 -71 -120 -138q-8 -13 -12.5 -17.5t-10.5 -4.5q-8 0 -17.5 7t-9.5 18q0 31 62 93l71 71q-76 62 -106.5 90t-30.5 45q0 9 6 14t12 5q4 0 17.5 -11t24.5 -20.5t16 -13.5q54 -48 93 -79z" />
    <glyph glyph-name="onequarter" unicode="&#xbc;" horiz-adv-x="756" 
d="M558 689.5q5 -5.5 5 -13.5q0 -28 -35 -81l-102 -149q-133 -192 -162 -237q-71 -109 -127 -217q-18 -34 -25 -42.5t-19 -8.5q-8 0 -13 5t-5 13q0 29 35.5 94.5t58.5 100.5q18 28 45.5 68t54.5 80q79 113 101 147q17 26 53 86q46 78 75 119t46 41q9 0 14 -5.5zM157.5 238
q-6.5 -7 -20.5 -7q-13 0 -20.5 16.5t-14 47.5t-18.5 107q1 -5 -8 49q-5 33 -13 102t-8 81q0 9 5.5 14t14.5 5q12 0 19 -16t11 -39l11 -70q27 -185 34 -211q14 -58 14 -64q0 -8 -6.5 -15zM593 -27q-14 -6 -24 -6q-13 0 -23 41.5t-14 98.5l-48 -10l-67 -14q-104 -20 -127 -20
q-8 0 -12 7t-4 15q0 16 12 30q40 50 103 114q40 40 107 117l19 21q23 26 42 26q8 0 19.5 -7t11.5 -15q0 -9 -7 -17q-3 -60 -3 -140q0 -25 2 -57q44 9 92 16q5 1 8.5 5t5.5 9q2 4 4.5 7.5t6.5 3.5q11 0 22.5 -12.5t11.5 -25.5q0 -17 -14 -23.5t-53 -10.5l-81 -10
q4 -46 11 -74l8 -32q5 -18 5 -25q0 -6 -14 -12zM489.5 278.5q-32.5 -37.5 -61.5 -68.5q-60 -64 -97 -106q28 7 42 9l36 8l78 16q24 6 44 9q-2 30 -2 66q0 87 3 115q-10 -11 -42.5 -48.5z" />
    <glyph glyph-name="onehalf" unicode="&#xbd;" horiz-adv-x="770" 
d="M558 689.5q5 -5.5 5 -13.5q0 -28 -35 -81l-102 -149q-133 -192 -162 -237q-71 -109 -127 -217q-18 -34 -25 -42.5t-19 -8.5q-8 0 -13 5t-5 13q0 29 35.5 94.5t58.5 100.5q18 28 45.5 68t54.5 80q79 113 101 147q17 26 53 86q46 78 75 119t46 41q9 0 14 -5.5zM157.5 238
q-6.5 -7 -20.5 -7q-13 0 -20.5 16.5t-14 47.5t-18.5 107q1 -5 -8 49q-5 33 -13 102t-8 81q0 9 5.5 14t14.5 5q12 0 19 -16t11 -39l11 -70q27 -185 34 -211q14 -58 14 -64q0 -8 -6.5 -15zM644 43q35 9 56 18q6 2 21 6.5t22 4.5q11 0 16 -10t5 -22q0 -16 -34 -25.5t-100 -22.5
q-138 -27 -176 -27q-21 0 -34.5 11t-13.5 28q0 11 6 22t13 17q-4 -4 35 32q9 8 29.5 26t37.5 35q35 34 52.5 53.5t28.5 44.5t11 57q0 30 -18.5 49t-50.5 19q-58 0 -106 -38q-19 -15 -32.5 -24.5t-20.5 -9.5q-6 0 -10.5 6t-4.5 15q0 11 6 21t14 17q69 59 161 59q53 0 85 -31
t32 -76q0 -52 -25 -91t-73 -80q-41 -35 -80 -74q-8 -8 -16.5 -17.5t-8.5 -14.5q0 -7 16 -7q51 0 157 29z" />
    <glyph glyph-name="threequarters" unicode="&#xbe;" horiz-adv-x="848" 
d="M650 689.5q5 -5.5 5 -13.5q0 -28 -35 -81l-102 -149q-133 -192 -162 -237q-71 -109 -127 -217q-18 -34 -25 -42.5t-19 -8.5q-8 0 -13 5t-5 13q0 29 35.5 94.5t58.5 100.5q18 28 45.5 68t54.5 80q79 113 101 147q17 26 53 86q46 78 75 119t46 41q9 0 14 -5.5zM685 -27
q-14 -6 -24 -6q-13 0 -23 41.5t-14 98.5l-48 -10l-67 -14q-104 -20 -127 -20q-8 0 -12 7t-4 15q0 16 12 30q40 50 103 114q40 40 107 117l19 21q23 26 42 26q8 0 19.5 -7t11.5 -15q0 -9 -7 -17q-3 -60 -3 -140q0 -25 2 -57q44 9 92 16q5 1 8.5 5t5.5 9q2 4 4.5 7.5t6.5 3.5
q11 0 22.5 -12.5t11.5 -25.5q0 -17 -14 -23.5t-53 -10.5l-81 -10q4 -46 11 -74l8 -32q5 -18 5 -25q0 -6 -14 -12zM581.5 278.5q-32.5 -37.5 -61.5 -68.5q-60 -64 -97 -106q28 7 42 9l36 8l78 16q24 6 44 9q-2 30 -2 66q0 87 3 115q-10 -11 -42.5 -48.5zM276 285
q-42 -41 -105 -61q-30 -11 -73 -19t-63 -8q-10 0 -14.5 8t-4.5 18t4 17t11 8q34 1 62.5 5t72.5 17q46 14 74.5 44.5t28.5 70.5q0 57 -75 57q-18 0 -46 -5t-55 -16q-10 -5 -17 -5q-6 0 -12.5 5t-6.5 14q0 7 4 11.5t9 6.5l29 10l19.5 6.5t20.5 7.5q38 16 56 35t18 54
q0 28 -16.5 41.5t-41.5 13.5q-30 0 -59 -21q-4 -3 -18 -17q-5 -6 -10.5 -10.5t-11.5 -4.5q-5 0 -9.5 5.5t-4.5 16.5q0 17 17 34t45 28t59 11q46 0 72.5 -24.5t26.5 -63.5q0 -36 -20 -59.5t-52 -41.5v-3q1 0 5 0.5t10 0.5q39 0 76 -17.5t37 -69.5q0 -59 -42 -100z" />
    <glyph glyph-name="questiondown" unicode="&#xbf;" horiz-adv-x="499" 
d="M197 431q12 17 27.5 31t24.5 14q40 0 40 -39q0 -18 -19.5 -39t-36.5 -21q-48 0 -48 28q0 9 12 26zM47.5 -44.5q23.5 39.5 78.5 105.5q33 39 48 83.5t22 110.5q2 22 14.5 42t24.5 20q8 0 10.5 -4.5t2.5 -14.5q0 -52 -13.5 -112.5t-36.5 -99.5q-15 -25 -51 -67
q-32 -39 -47 -62.5t-15 -45.5q0 -7 7.5 -12.5t15.5 -5.5q53 0 130.5 45.5t133.5 91.5q40 32 62 32q12 0 23.5 -6t11.5 -16q0 -5 -6 -10t-13.5 -9.5t-14.5 -9.5q-96 -76 -193.5 -123t-169.5 -47q-19 0 -33.5 9t-14.5 26q0 40 23.5 79.5z" />
    <glyph glyph-name="Agrave" unicode="&#xc0;" horiz-adv-x="622" 
d="M582.5 297q-3.5 -8 -9.5 -12q-7 -6 -29 -10.5t-30 -5.5q8 -38 8 -37q7 -25 15 -69q18 -101 37 -172q5 -23 5 -27q0 -10 -8 -17t-19 -7q-10 0 -18 10.5t-11 18.5q-9 34 -16.5 76t-17.5 101q-4 26 -13 64.5t-12 50.5q-59 -8 -203 -32l-58 -10l-21 -59l-28 -80
q-35 -109 -50 -168q-3 -14 -12 -23.5t-22 -9.5q-11 0 -18.5 6t-7.5 17t12 46.5t14 42.5q4 10 16 46q13 39 33.5 94.5t27.5 73.5q-51 -12 -76 -19q-38 -10 -47 -10q-11 0 -16.5 8.5t-5.5 18.5q0 12 6 16.5t20 8.5q38 9 80.5 18t58.5 12q10 29 15 49q4 13 10.5 32.5t14.5 48.5
l15 51q38 134 44 153q5 14 9.5 22t12.5 8q20 0 36 -6q2 2 6.5 8.5t10 9t14.5 2.5q18 0 41.5 -41t45.5 -97q13 -33 33 -98.5t26 -86.5q15 2 25.5 5.5l13.5 4.5q5 2 11 7t11 7.5t11 -0.5q13 -6 13 -25q0 -7 -3.5 -15zM434 380.5q-16 57.5 -30 93.5q-14 37 -36 76t-37 49
l-11 -26q-19 -38 -29 -69q-24 -72 -76 -238l117 20l96 15l27 4q-5 18 -21 75.5zM348.5 681q-5.5 -5 -14.5 -5q-13 0 -50.5 30t-69.5 64.5t-32 47.5q0 10 11 21t21 11q7 0 11.5 -5t15.5 -22q9 -15 24 -36q18 -23 56 -57q33 -31 33 -36q0 -8 -5.5 -13z" />
    <glyph glyph-name="Aacute" unicode="&#xc1;" horiz-adv-x="622" 
d="M582.5 297q-3.5 -8 -9.5 -12q-7 -6 -29 -10.5t-30 -5.5q8 -38 8 -37q7 -25 15 -69q18 -101 37 -172q5 -23 5 -27q0 -10 -8 -17t-19 -7q-10 0 -18 10.5t-11 18.5q-9 34 -16.5 76t-17.5 101q-4 26 -13 64.5t-12 50.5q-59 -8 -203 -32l-58 -10l-21 -59l-28 -80
q-35 -109 -50 -168q-3 -14 -12 -23.5t-22 -9.5q-11 0 -18.5 6t-7.5 17t12 46.5t14 42.5q4 10 16 46q13 39 33.5 94.5t27.5 73.5q-51 -12 -76 -19q-38 -10 -47 -10q-11 0 -16.5 8.5t-5.5 18.5q0 12 6 16.5t20 8.5q38 9 80.5 18t58.5 12q10 29 15 49q4 13 10.5 32.5t14.5 48.5
l15 51q38 134 44 153q5 14 9.5 22t12.5 8q20 0 36 -6q2 2 6.5 8.5t10 9t14.5 2.5q18 0 41.5 -41t45.5 -97q13 -33 33 -98.5t26 -86.5q15 2 25.5 5.5l13.5 4.5q5 2 11 7t11 7.5t11 -0.5q13 -6 13 -25q0 -7 -3.5 -15zM434 380.5q-16 57.5 -30 93.5q-14 37 -36 76t-37 49
l-11 -26q-19 -38 -29 -69q-24 -72 -76 -238l117 20l96 15l27 4q-5 18 -21 75.5zM428 783.5q-32 -34.5 -69.5 -64.5t-50.5 -30q-9 0 -14.5 5t-5.5 13q0 5 33 36q38 34 56 57q15 21 24 36q11 17 15.5 22t11.5 5q10 0 21 -11t11 -21q0 -13 -32 -47.5z" />
    <glyph glyph-name="Acircumflex" unicode="&#xc2;" horiz-adv-x="622" 
d="M582.5 297q-3.5 -8 -9.5 -12q-7 -6 -29 -10.5t-30 -5.5q8 -38 8 -37q7 -25 15 -69q18 -101 37 -172q5 -23 5 -27q0 -10 -8 -17t-19 -7q-10 0 -18 10.5t-11 18.5q-9 34 -16.5 76t-17.5 101q-4 26 -13 64.5t-12 50.5q-59 -8 -203 -32l-58 -10l-21 -59l-28 -80
q-35 -109 -50 -168q-3 -14 -12 -23.5t-22 -9.5q-11 0 -18.5 6t-7.5 17t12 46.5t14 42.5q4 10 16 46q13 39 33.5 94.5t27.5 73.5q-51 -12 -76 -19q-38 -10 -47 -10q-11 0 -16.5 8.5t-5.5 18.5q0 12 6 16.5t20 8.5q38 9 80.5 18t58.5 12q10 29 15 49q4 13 10.5 32.5t14.5 48.5
l15 51q38 134 44 153q5 14 9.5 22t12.5 8q20 0 36 -6q2 2 6.5 8.5t10 9t14.5 2.5q18 0 41.5 -41t45.5 -97q13 -33 33 -98.5t26 -86.5q15 2 25.5 5.5l13.5 4.5q5 2 11 7t11 7.5t11 -0.5q13 -6 13 -25q0 -7 -3.5 -15zM434 380.5q-16 57.5 -30 93.5q-14 37 -36 76t-37 49
l-11 -26q-19 -38 -29 -69q-24 -72 -76 -238l117 20l96 15l27 4q-5 18 -21 75.5zM305 820q6 9 14 9q4 0 13.5 -10t12.5 -14q66 -72 124 -109q9 -6 14.5 -10.5t5.5 -9.5q0 -7 -6.5 -15.5t-16.5 -8.5q-18 0 -42 19t-41 36l-23 24l-41 40l-15 -18q-45 -55 -68.5 -80t-38.5 -25
q-8 0 -12.5 5.5t-4.5 10.5q0 8 42 53q42 49 70 83z" />
    <glyph glyph-name="Atilde" unicode="&#xc3;" horiz-adv-x="622" 
d="M582.5 297q-3.5 -8 -9.5 -12q-7 -6 -29 -10.5t-30 -5.5q8 -38 8 -37q7 -25 15 -69q18 -101 37 -172q5 -23 5 -27q0 -10 -8 -17t-19 -7q-10 0 -18 10.5t-11 18.5q-9 34 -16.5 76t-17.5 101q-4 26 -13 64.5t-12 50.5q-59 -8 -203 -32l-58 -10l-21 -59l-28 -80
q-35 -109 -50 -168q-3 -14 -12 -23.5t-22 -9.5q-11 0 -18.5 6t-7.5 17t12 46.5t14 42.5q4 10 16 46q13 39 33.5 94.5t27.5 73.5q-51 -12 -76 -19q-38 -10 -47 -10q-11 0 -16.5 8.5t-5.5 18.5q0 12 6 16.5t20 8.5q38 9 80.5 18t58.5 12q10 29 15 49q4 13 10.5 32.5t14.5 48.5
l15 51q38 134 44 153q5 14 9.5 22t12.5 8q20 0 36 -6q2 2 6.5 8.5t10 9t14.5 2.5q18 0 41.5 -41t45.5 -97q13 -33 33 -98.5t26 -86.5q15 2 25.5 5.5l13.5 4.5q5 2 11 7t11 7.5t11 -0.5q13 -6 13 -25q0 -7 -3.5 -15zM434 380.5q-16 57.5 -30 93.5q-14 37 -36 76t-37 49
l-11 -26q-19 -38 -29 -69q-24 -72 -76 -238l117 20l96 15l27 4q-5 18 -21 75.5zM483.5 729.5q-12.5 -24.5 -33 -40.5t-42.5 -16q-23 0 -40.5 11.5t-42.5 33.5q-20 18 -32 26t-25 8q-46 0 -74 -57q-2 -4 -3.5 -10.5t-4 -10t-6.5 -3.5q-7 0 -13.5 5.5t-6.5 13.5q0 20 13 41
q18 29 45 47t57 18q18 0 32 -9.5t36 -30.5q21 -21 36 -31.5t34 -10.5q17 0 25 10.5t12.5 22.5t5.5 16q10 24 21 24q7 0 13 -2.5t6 -6.5q0 -24 -12.5 -48.5z" />
    <glyph glyph-name="Adieresis" unicode="&#xc4;" horiz-adv-x="622" 
d="M582.5 297q-3.5 -8 -9.5 -12q-7 -6 -29 -10.5t-30 -5.5q8 -38 8 -37q7 -25 15 -69q18 -101 37 -172q5 -23 5 -27q0 -10 -8 -17t-19 -7q-10 0 -18 10.5t-11 18.5q-9 34 -16.5 76t-17.5 101q-4 26 -13 64.5t-12 50.5q-59 -8 -203 -32l-58 -10l-21 -59l-28 -80
q-35 -109 -50 -168q-3 -14 -12 -23.5t-22 -9.5q-11 0 -18.5 6t-7.5 17t12 46.5t14 42.5q4 10 16 46q13 39 33.5 94.5t27.5 73.5q-51 -12 -76 -19q-38 -10 -47 -10q-11 0 -16.5 8.5t-5.5 18.5q0 12 6 16.5t20 8.5q38 9 80.5 18t58.5 12q10 29 15 49q4 13 10.5 32.5t14.5 48.5
l15 51q38 134 44 153q5 14 9.5 22t12.5 8q20 0 36 -6q2 2 6.5 8.5t10 9t14.5 2.5q18 0 41.5 -41t45.5 -97q13 -33 33 -98.5t26 -86.5q15 2 25.5 5.5l13.5 4.5q5 2 11 7t11 7.5t11 -0.5q13 -6 13 -25q0 -7 -3.5 -15zM434 380.5q-16 57.5 -30 93.5q-14 37 -36 76t-37 49
l-11 -26q-19 -38 -29 -69q-24 -72 -76 -238l117 20l96 15l27 4q-5 18 -21 75.5zM431 681.5q-11 -7.5 -21 -7.5q-17 0 -34 24t-17 42q0 11 13 20.5t23 9.5q9 0 20 -14.5t19 -32.5t8 -25q0 -9 -11 -16.5zM229 674q-15 0 -28 14t-21 31.5t-8 23.5q0 8 9.5 14t20.5 6
q17 0 35 -27.5t18 -49.5q0 -12 -26 -12z" />
    <glyph glyph-name="Aring" unicode="&#xc5;" horiz-adv-x="622" 
d="M435.5 676q-20.5 -38 -53.5 -61q25 -32 60 -117q13 -33 33 -98.5t26 -86.5q15 2 25.5 5.5l13.5 4.5q5 2 11 7t11 7.5t11 -0.5q13 -6 13 -25q0 -7 -3.5 -15t-9.5 -12q-7 -6 -29 -10.5t-30 -5.5q8 -38 8 -37q7 -25 15 -69q18 -101 37 -172q5 -23 5 -27q0 -10 -8 -17t-19 -7
q-10 0 -18 10.5t-11 18.5q-9 34 -16.5 76t-17.5 101q-4 26 -13 64.5t-12 50.5q-68 -10 -152.5 -24.5t-110.5 -19.5q-25 -69 -47 -137q-35 -109 -50 -168q-3 -14 -12 -23.5t-22 -9.5q-11 0 -18.5 6t-7.5 17t12 46.5t14 42.5q4 10 16 46q12 39 34 95t29 73q-15 -3 -75 -18
q-38 -11 -50 -11q-11 0 -16.5 8.5t-5.5 18.5q0 12 6 16.5t20 8.5q38 9 80.5 18t58.5 12q10 29 15 49q4 13 10.5 32.5t14.5 48.5l15 51q38 134 44 153l2 8q-23 8 -36 24t-13 38q0 35 17.5 74.5t45.5 68.5t60 33q4 2 20 2q5 0 12.5 -2t13.5 -4q23 -8 45.5 -35.5t22.5 -58.5
q0 -26 -20.5 -64zM283.5 751q-22.5 -38 -22.5 -79q0 -18 15 -29t43 -11q27 0 49 18.5t34.5 43t12.5 42.5q0 21 -14.5 37.5t-34.5 24.5q-18 7 -23 9q-37 -18 -59.5 -56zM434 380.5q-16 57.5 -30 93.5q-13 34 -33 70t-35 51q-3 -1 -7 -1l-9 -21q-19 -38 -29 -69
q-24 -72 -76 -238l117 20l96 15l27 4q-5 18 -21 75.5z" />
    <glyph glyph-name="AE" unicode="&#xc6;" horiz-adv-x="920" 
d="M755.5 274q-5.5 -8 -14.5 -8q-3 0 -21.5 7.5t-42.5 7.5q-49 0 -163 -12q8 -38 8 -37q7 -25 15 -69q10 -57 31 -151q57 19 140 38.5t156 19.5q33 0 46.5 -11t13.5 -23q0 -15 -7.5 -24t-22.5 -9q-10 0 -32 6q-24 6 -38 6q-32 0 -91.5 -12.5t-153.5 -34.5v-4q0 -10 -8 -17
t-19 -7q-13 0 -24 19q-8 2 -14 7.5t-6 11.5q0 5 10 12q-5 20 -15 78q-11 65 -14 78q-7 36 -14.5 69.5t-10.5 45.5q-76 -9 -157.5 -24t-105.5 -20q-25 -69 -47 -137q-35 -109 -50 -168q-3 -14 -12 -23.5t-22 -9.5q-11 0 -18.5 6t-7.5 17t12 46.5t14 42.5q4 10 16 46
q42 127 117 339l26 73q50 144 68 165q7 9 25 15.5t33 6.5q18 0 40 -28q263 21 313 21q38 0 38 -15q0 -19 -8 -34.5t-20 -15.5q-4 0 -8 4.5t-6 5.5q-9 4 -63 4q-18 0 -94.5 -5.5t-123.5 -11.5q24 -49 45.5 -117t32.5 -131l29 3q130 13 145 13q34 0 60 -9t26 -24
q0 -14 -5.5 -22zM417.5 450q-21.5 64 -42.5 101.5t-36 42.5q-7 -6 -18 -30.5t-20 -48.5l-8 -20q-12 -30 -34.5 -97t-43.5 -132q21 4 93.5 17t146.5 22q-16 81 -37.5 145z" />
    <glyph glyph-name="Ccedilla" unicode="&#xc7;" horiz-adv-x="548" 
d="M557 143q-42 -57 -113 -110.5t-156 -53.5q-90 0 -147 51.5t-57 152.5q0 69 24 156t56 151q33 65 76.5 108t87.5 43q43 0 66.5 -31t23.5 -77q0 -17 -6.5 -34.5t-14.5 -29.5t-12 -12q-8 0 -8 9q0 3 3.5 13.5t3.5 17.5q0 25 -6 47q-5 19 -20 31.5t-33 12.5q-72 0 -135 -139
q-25 -56 -42 -126t-17 -135q0 -45 18.5 -82t53 -59t80.5 -22q73 0 132.5 35t117.5 90q2 2 14 22.5t18 20.5t8 -3t2 -11q0 -10 -18 -36zM331.5 -140.5q-14.5 -22.5 -35.5 -34.5t-41 -12q-10 0 -16.5 5.5t-6.5 14.5q0 4 7.5 9t8.5 6q19 11 30.5 23t11.5 34q0 16 -6.5 29
t-17.5 30q-10 15 -10 20q0 3 8 5.5t16 2.5t24 -14.5t29 -33t13 -31.5q0 -31 -14.5 -53.5z" />
    <glyph glyph-name="Egrave" unicode="&#xc8;" horiz-adv-x="592" 
d="M552 617q-27 -15 -84.5 -32t-94.5 -24q-58 -11 -116.5 -17.5t-75.5 -7.5q1 -58 3 -119.5t3 -84.5q39 5 117 19l38 6q63 11 97 40q18 14 26 14q7 0 11.5 -7.5t4.5 -15.5q0 -18 -40.5 -39.5t-89.5 -31.5q-41 -9 -92 -17t-67 -10q6 -171 35 -254q29 -10 57 -14.5t72 -4.5
t84 11.5t64.5 28.5t24.5 32q0 8 -3 15.5t-8 15.5q-2 3 -6.5 9.5t-4.5 10.5q0 10 22 10q16 0 27.5 -13.5t11.5 -29.5q0 -32 -28.5 -63t-78 -50.5t-109.5 -19.5q-61 0 -100 6.5t-59 25.5q-24 27 -33.5 94t-16.5 179q-19 -5 -42.5 -8.5t-35.5 -3.5t-19.5 7.5t-7.5 18.5
q0 7 2.5 12t7.5 6q33 4 48 5l43 5q-4 129 -8 210q-15 0 -24 -1l-46 -1q-9 0 -14 5t-5 11q0 24 32 32q12 2 30.5 4.5t24.5 2.5q19 21 42 21q4 0 6.5 -6.5t2.5 -9.5q66 3 157 15q60 8 185 38l37 8q10 0 10 -12t-17 -21zM349.5 646q-5.5 -5 -14.5 -5q-13 0 -50.5 30t-69.5 64.5
t-32 47.5q0 10 11 21t21 11q7 0 11.5 -5t15.5 -22q9 -15 24 -36q18 -23 56 -57q33 -31 33 -36q0 -8 -5.5 -13z" />
    <glyph glyph-name="Eacute" unicode="&#xc9;" horiz-adv-x="592" 
d="M552 617q-27 -15 -84.5 -32t-94.5 -24q-58 -11 -116.5 -17.5t-75.5 -7.5q1 -58 3 -119.5t3 -84.5q39 5 117 19l38 6q63 11 97 40q18 14 26 14q7 0 11.5 -7.5t4.5 -15.5q0 -18 -40.5 -39.5t-89.5 -31.5q-41 -9 -92 -17t-67 -10q6 -171 35 -254q29 -10 57 -14.5t72 -4.5
t84 11.5t64.5 28.5t24.5 32q0 8 -3 15.5t-8 15.5q-2 3 -6.5 9.5t-4.5 10.5q0 10 22 10q16 0 27.5 -13.5t11.5 -29.5q0 -32 -28.5 -63t-78 -50.5t-109.5 -19.5q-61 0 -100 6.5t-59 25.5q-24 27 -33.5 94t-16.5 179q-19 -5 -42.5 -8.5t-35.5 -3.5t-19.5 7.5t-7.5 18.5
q0 7 2.5 12t7.5 6q33 4 48 5l43 5q-4 129 -8 210q-15 0 -24 -1l-46 -1q-9 0 -14 5t-5 11q0 24 32 32q12 2 30.5 4.5t24.5 2.5q19 21 42 21q4 0 6.5 -6.5t2.5 -9.5q66 3 157 15q60 8 185 38l37 8q10 0 10 -12t-17 -21zM382 731.5q-32 -34.5 -69.5 -64.5t-50.5 -30
q-9 0 -14.5 5t-5.5 13q0 5 33 36q38 34 56 57q15 21 24 36q11 17 15.5 22t11.5 5q10 0 21 -11t11 -21q0 -13 -32 -47.5z" />
    <glyph glyph-name="Ecircumflex" unicode="&#xca;" horiz-adv-x="592" 
d="M552 617q-27 -15 -84.5 -32t-94.5 -24q-58 -11 -116.5 -17.5t-75.5 -7.5q1 -58 3 -119.5t3 -84.5q39 5 117 19l38 6q63 11 97 40q18 14 26 14q7 0 11.5 -7.5t4.5 -15.5q0 -18 -40.5 -39.5t-89.5 -31.5q-41 -9 -92 -17t-67 -10q6 -171 35 -254q29 -10 57 -14.5t72 -4.5
t84 11.5t64.5 28.5t24.5 32q0 8 -3 15.5t-8 15.5q-2 3 -6.5 9.5t-4.5 10.5q0 10 22 10q16 0 27.5 -13.5t11.5 -29.5q0 -32 -28.5 -63t-78 -50.5t-109.5 -19.5q-61 0 -100 6.5t-59 25.5q-24 27 -33.5 94t-16.5 179q-19 -5 -42.5 -8.5t-35.5 -3.5t-19.5 7.5t-7.5 18.5
q0 7 2.5 12t7.5 6q33 4 48 5l43 5q-4 129 -8 210q-15 0 -24 -1l-46 -1q-9 0 -14 5t-5 11q0 24 32 32q12 2 30.5 4.5t24.5 2.5q19 21 42 21q4 0 6.5 -6.5t2.5 -9.5q66 3 157 15q60 8 185 38l37 8q10 0 10 -12t-17 -21zM265 818q6 9 14 9q4 0 13.5 -10t12.5 -14
q66 -72 124 -109q9 -6 14.5 -10.5t5.5 -9.5q0 -7 -6.5 -15.5t-16.5 -8.5q-18 0 -42 19t-41 36l-23 24l-41 40l-15 -18q-45 -55 -68.5 -80t-38.5 -25q-8 0 -12.5 5.5t-4.5 10.5q0 8 42 53q42 49 70 83z" />
    <glyph glyph-name="Edieresis" unicode="&#xcb;" horiz-adv-x="592" 
d="M552 617q-27 -15 -84.5 -32t-94.5 -24q-58 -11 -116.5 -17.5t-75.5 -7.5q1 -58 3 -119.5t3 -84.5q39 5 117 19l38 6q63 11 97 40q18 14 26 14q7 0 11.5 -7.5t4.5 -15.5q0 -18 -40.5 -39.5t-89.5 -31.5q-41 -9 -92 -17t-67 -10q6 -171 35 -254q29 -10 57 -14.5t72 -4.5
t84 11.5t64.5 28.5t24.5 32q0 8 -3 15.5t-8 15.5q-2 3 -6.5 9.5t-4.5 10.5q0 10 22 10q16 0 27.5 -13.5t11.5 -29.5q0 -32 -28.5 -63t-78 -50.5t-109.5 -19.5q-61 0 -100 6.5t-59 25.5q-24 27 -33.5 94t-16.5 179q-19 -5 -42.5 -8.5t-35.5 -3.5t-19.5 7.5t-7.5 18.5
q0 7 2.5 12t7.5 6q33 4 48 5l43 5q-4 129 -8 210q-15 0 -24 -1l-46 -1q-9 0 -14 5t-5 11q0 24 32 32q12 2 30.5 4.5t24.5 2.5q19 21 42 21q4 0 6.5 -6.5t2.5 -9.5q66 3 157 15q60 8 185 38l37 8q10 0 10 -12t-17 -21zM409 665.5q-11 -7.5 -21 -7.5q-17 0 -34 24t-17 42
q0 11 13 20.5t23 9.5q9 0 20 -14.5t19 -32.5t8 -25q0 -9 -11 -16.5zM207 658q-15 0 -28 14t-21 31.5t-8 23.5q0 8 9.5 14t20.5 6q17 0 35 -27.5t18 -49.5q0 -12 -26 -12z" />
    <glyph glyph-name="Igrave" unicode="&#xcc;" horiz-adv-x="663" 
d="M596 611q-19 -8 -56 -15q-41 -8 -104 -15.5t-102 -9.5q-3 -43 -8 -248t-6 -303q54 1 142 7q74 4 83 4q18 0 32.5 -8t14.5 -25q0 -14 -4.5 -20t-19.5 -6q-6 0 -33 3q-20 4 -34 4q-47 0 -188 -6q-5 -7 -11.5 -10.5t-11.5 -3.5q-6 0 -12 3t-7 9l-45 -5q-78 -10 -116 -10
q-33 0 -50 14q-9 8 -9 29q0 6 6.5 15t13.5 9q2 0 15.5 -5.5t25.5 -5.5q37 0 109 4l46 3l6 147q1 23 2 41.5t1 31.5l10 327q-104 -7 -99 -7q-102 -8 -120 -8q-17 0 -32 11t-15 28q0 12 6.5 19t17.5 7q8 0 16 -1l16 -2q25 -5 48 -5q22 0 84 3.5t83 4.5q1 13 9 21.5t21 8.5
q6 0 10 -8t4 -18q58 2 209 26q12 2 26.5 11t16.5 9q10 0 19 -8t9 -20q0 -19 -19 -27zM366.5 680q-5.5 -5 -14.5 -5q-13 0 -50.5 30t-69.5 64.5t-32 47.5q0 10 11 21t21 11q7 0 11.5 -5t15.5 -22q9 -15 24 -36q18 -23 56 -57q33 -31 33 -36q0 -8 -5.5 -13z" />
    <glyph glyph-name="Iacute" unicode="&#xcd;" horiz-adv-x="663" 
d="M596 611q-19 -8 -56 -15q-41 -8 -104 -15.5t-102 -9.5q-3 -43 -8 -248t-6 -303q54 1 142 7q74 4 83 4q18 0 32.5 -8t14.5 -25q0 -14 -4.5 -20t-19.5 -6q-6 0 -33 3q-20 4 -34 4q-47 0 -188 -6q-5 -7 -11.5 -10.5t-11.5 -3.5q-6 0 -12 3t-7 9l-45 -5q-78 -10 -116 -10
q-33 0 -50 14q-9 8 -9 29q0 6 6.5 15t13.5 9q2 0 15.5 -5.5t25.5 -5.5q37 0 109 4l46 3l6 147q1 23 2 41.5t1 31.5l10 327q-104 -7 -99 -7q-102 -8 -120 -8q-17 0 -32 11t-15 28q0 12 6.5 19t17.5 7q8 0 16 -1l16 -2q25 -5 48 -5q22 0 84 3.5t83 4.5q1 13 9 21.5t21 8.5
q6 0 10 -8t4 -18q58 2 209 26q12 2 26.5 11t16.5 9q10 0 19 -8t9 -20q0 -19 -19 -27zM399 766.5q-32 -34.5 -69.5 -64.5t-50.5 -30q-9 0 -14.5 5t-5.5 13q0 5 33 36q38 34 56 57q15 21 24 36q11 17 15.5 22t11.5 5q10 0 21 -11t11 -21q0 -13 -32 -47.5z" />
    <glyph glyph-name="Icircumflex" unicode="&#xce;" horiz-adv-x="663" 
d="M596 611q-19 -8 -56 -15q-41 -8 -104 -15.5t-102 -9.5q-3 -43 -8 -248t-6 -303q54 1 142 7q74 4 83 4q18 0 32.5 -8t14.5 -25q0 -14 -4.5 -20t-19.5 -6q-6 0 -33 3q-20 4 -34 4q-47 0 -188 -6q-5 -7 -11.5 -10.5t-11.5 -3.5q-6 0 -12 3t-7 9l-45 -5q-78 -10 -116 -10
q-33 0 -50 14q-9 8 -9 29q0 6 6.5 15t13.5 9q2 0 15.5 -5.5t25.5 -5.5q37 0 109 4l46 3l6 147q1 23 2 41.5t1 31.5l10 327q-104 -7 -99 -7q-102 -8 -120 -8q-17 0 -32 11t-15 28q0 12 6.5 19t17.5 7q8 0 16 -1l16 -2q25 -5 48 -5q22 0 84 3.5t83 4.5q1 13 9 21.5t21 8.5
q6 0 10 -8t4 -18q58 2 209 26q12 2 26.5 11t16.5 9q10 0 19 -8t9 -20q0 -19 -19 -27zM296 834q6 9 14 9q4 0 13.5 -10t12.5 -14q66 -72 124 -109q9 -6 14.5 -10.5t5.5 -9.5q0 -7 -6.5 -15.5t-16.5 -8.5q-18 0 -42 19t-41 36l-23 24l-41 40l-15 -18q-45 -55 -68.5 -80
t-38.5 -25q-8 0 -12.5 5.5t-4.5 10.5q0 8 42 53q42 49 70 83z" />
    <glyph glyph-name="Idieresis" unicode="&#xcf;" horiz-adv-x="663" 
d="M596 611q-19 -8 -56 -15q-41 -8 -104 -15.5t-102 -9.5q-3 -43 -8 -248t-6 -303q54 1 142 7q74 4 83 4q18 0 32.5 -8t14.5 -25q0 -14 -4.5 -20t-19.5 -6q-6 0 -33 3q-20 4 -34 4q-47 0 -188 -6q-5 -7 -11.5 -10.5t-11.5 -3.5q-6 0 -12 3t-7 9l-45 -5q-78 -10 -116 -10
q-33 0 -50 14q-9 8 -9 29q0 6 6.5 15t13.5 9q2 0 15.5 -5.5t25.5 -5.5q37 0 109 4l46 3l6 147q1 23 2 41.5t1 31.5l10 327q-104 -7 -99 -7q-102 -8 -120 -8q-17 0 -32 11t-15 28q0 12 6.5 19t17.5 7q8 0 16 -1l16 -2q25 -5 48 -5q22 0 84 3.5t83 4.5q1 13 9 21.5t21 8.5
q6 0 10 -8t4 -18q58 2 209 26q12 2 26.5 11t16.5 9q10 0 19 -8t9 -20q0 -19 -19 -27zM435 684.5q-11 -7.5 -21 -7.5q-17 0 -34 24t-17 42q0 11 13 20.5t23 9.5q9 0 20 -14.5t19 -32.5t8 -25q0 -9 -11 -16.5zM233 677q-15 0 -28 14t-21 31.5t-8 23.5q0 8 9.5 14t20.5 6
q17 0 35 -27.5t18 -49.5q0 -12 -26 -12z" />
    <glyph glyph-name="Eth" unicode="&#xd0;" horiz-adv-x="690" 
d="M514.5 604q114.5 -41 114.5 -139q0 -78 -45 -148t-146 -159q-61 -54 -125.5 -102t-107.5 -68q-3 -11 -9 -16.5t-18 -5.5q-9 0 -13 3.5t-4 12.5q0 6 4.5 50t4.5 103q0 94 -3 172q-112 -17 -127 -17q-10 0 -18 7t-8 17q0 25 18 26q55 3 134 13l-1 95q0 59 12 97q9 24 32 24
q8 0 14.5 -3t6.5 -9q-1 -5 -10.5 -35t-9.5 -57l1 -106q30 4 53.5 8t40.5 7q34 6 63 10t44 4q20 0 20 -18q0 -14 -6 -28.5t-18 -14.5q-8 0 -12.5 0.5t-7.5 0.5q-14 2 -38 2q-10 0 -82 -9l-56 -7q3 -93 3 -171q0 -75 -1 -90q36 14 97.5 58t103.5 80q87 78 127 140t40 129
q0 81 -101.5 111t-265.5 30q-50 0 -134 -12q-16 -1 -50 -10q-15 -5 -21 -5q-8 0 -15.5 13t-7.5 26q0 5 7 9.5t22 6.5q60 8 102.5 12t99.5 4q182 0 296.5 -41z" />
    <glyph glyph-name="Ntilde" unicode="&#xd1;" horiz-adv-x="690" 
d="M545 -5q-7 0 -93.5 107.5t-142.5 183.5q-8 11 -51 73q-63 92 -78 111l-2 -77l-1 -75q0 -71 -1.5 -154t-3.5 -132q-1 -12 -10.5 -22t-19.5 -10q-11 0 -15.5 6.5t-4.5 25.5q0 12 4 74q9 115 9 193q0 62 2 117.5t2 68.5l1 29v3q0 11 3.5 17.5t14.5 6.5h5q11 0 43.5 -39.5
t82.5 -107.5q11 -14 21 -27.5t19 -25.5q57 -73 60 -77q142 -181 155 -206q-2 8 -7 37t-9.5 76t-4.5 97q0 89 -17 235q-5 48 -5 59q0 38 43 38q10 0 15 -20.5t7 -86.5t2 -211q0 -46 3.5 -90t6.5 -78q5 -47 5 -71l1 -36q0 -12 -39 -12zM486.5 673.5q-12.5 -24.5 -33 -40.5
t-42.5 -16q-23 0 -40.5 11.5t-42.5 33.5q-20 18 -32 26t-25 8q-46 0 -74 -57q-2 -4 -3.5 -10.5t-4 -10t-6.5 -3.5q-7 0 -13.5 5.5t-6.5 13.5q0 20 13 41q18 29 45 47t57 18q18 0 32 -9.5t36 -30.5q21 -21 36 -31.5t34 -10.5q17 0 25 10.5t12.5 22.5t5.5 16q10 24 21 24
q7 0 13 -2.5t6 -6.5q0 -24 -12.5 -48.5z" />
    <glyph glyph-name="Ograve" unicode="&#xd2;" horiz-adv-x="749" 
d="M603 213q-58 -94 -149 -152t-184 -58q-54 0 -102 22.5t-78 66.5t-30 106q0 106 55 219.5t153 213.5q10 9 19 12t21 3q10 0 19.5 -5t9.5 -12q0 -4 -3.5 -11.5t-4.5 -9.5q6 0 14.5 1.5t33.5 1.5q29 0 78.5 -9.5t72.5 -19.5q65 -29 99 -74.5t34 -97.5q0 -103 -58 -197z
M591 483.5q-27 36.5 -80 60.5q-29 13 -73 13q-14 0 -38 -2l-37 -1q-48 0 -48 20q0 7 1 13t2 8q-21 0 -34 -12q-82 -85 -126.5 -181t-44.5 -187q0 -85 42.5 -123.5t116.5 -38.5q84 0 164.5 48t131 126t50.5 162q0 58 -27 94.5zM422.5 679q-5.5 -5 -14.5 -5q-13 0 -50.5 30
t-69.5 64.5t-32 47.5q0 10 11 21t21 11q7 0 11.5 -5t15.5 -22q9 -15 24 -36q18 -23 56 -57q33 -31 33 -36q0 -8 -5.5 -13z" />
    <glyph glyph-name="Oacute" unicode="&#xd3;" horiz-adv-x="749" 
d="M603 213q-58 -94 -149 -152t-184 -58q-54 0 -102 22.5t-78 66.5t-30 106q0 106 55 219.5t153 213.5q10 9 19 12t21 3q10 0 19.5 -5t9.5 -12q0 -4 -3.5 -11.5t-4.5 -9.5q6 0 14.5 1.5t33.5 1.5q29 0 78.5 -9.5t72.5 -19.5q65 -29 99 -74.5t34 -97.5q0 -103 -58 -197z
M591 483.5q-27 36.5 -80 60.5q-29 13 -73 13q-14 0 -38 -2l-37 -1q-48 0 -48 20q0 7 1 13t2 8q-21 0 -34 -12q-82 -85 -126.5 -181t-44.5 -187q0 -85 42.5 -123.5t116.5 -38.5q84 0 164.5 48t131 126t50.5 162q0 58 -27 94.5zM471 775.5q-32 -34.5 -69.5 -64.5t-50.5 -30
q-9 0 -14.5 5t-5.5 13q0 5 33 36q38 34 56 57q15 21 24 36q11 17 15.5 22t11.5 5q10 0 21 -11t11 -21q0 -13 -32 -47.5z" />
    <glyph glyph-name="Ocircumflex" unicode="&#xd4;" horiz-adv-x="749" 
d="M603 213q-58 -94 -149 -152t-184 -58q-54 0 -102 22.5t-78 66.5t-30 106q0 106 55 219.5t153 213.5q10 9 19 12t21 3q10 0 19.5 -5t9.5 -12q0 -4 -3.5 -11.5t-4.5 -9.5q6 0 14.5 1.5t33.5 1.5q29 0 78.5 -9.5t72.5 -19.5q65 -29 99 -74.5t34 -97.5q0 -103 -58 -197z
M591 483.5q-27 36.5 -80 60.5q-29 13 -73 13q-14 0 -38 -2l-37 -1q-48 0 -48 20q0 7 1 13t2 8q-21 0 -34 -12q-82 -85 -126.5 -181t-44.5 -187q0 -85 42.5 -123.5t116.5 -38.5q84 0 164.5 48t131 126t50.5 162q0 58 -27 94.5zM332 835q6 9 14 9q4 0 13.5 -10t12.5 -14
q66 -72 124 -109q9 -6 14.5 -10.5t5.5 -9.5q0 -7 -6.5 -15.5t-16.5 -8.5q-18 0 -42 19t-41 36l-23 24l-41 40l-15 -18q-45 -55 -68.5 -80t-38.5 -25q-8 0 -12.5 5.5t-4.5 10.5q0 8 42 53q42 49 70 83z" />
    <glyph glyph-name="Otilde" unicode="&#xd5;" horiz-adv-x="749" 
d="M603 213q-58 -94 -149 -152t-184 -58q-54 0 -102 22.5t-78 66.5t-30 106q0 106 55 219.5t153 213.5q10 9 19 12t21 3q10 0 19.5 -5t9.5 -12q0 -4 -3.5 -11.5t-4.5 -9.5q6 0 14.5 1.5t33.5 1.5q29 0 78.5 -9.5t72.5 -19.5q65 -29 99 -74.5t34 -97.5q0 -103 -58 -197z
M591 483.5q-27 36.5 -80 60.5q-29 13 -73 13q-14 0 -38 -2l-37 -1q-48 0 -48 20q0 7 1 13t2 8q-21 0 -34 -12q-82 -85 -126.5 -181t-44.5 -187q0 -85 42.5 -123.5t116.5 -38.5q84 0 164.5 48t131 126t50.5 162q0 58 -27 94.5zM549.5 743.5q-12.5 -24.5 -33 -40.5t-42.5 -16
q-23 0 -40.5 11.5t-42.5 33.5q-20 18 -32 26t-25 8q-46 0 -74 -57q-2 -4 -3.5 -10.5t-4 -10t-6.5 -3.5q-7 0 -13.5 5.5t-6.5 13.5q0 20 13 41q18 29 45 47t57 18q18 0 32 -9.5t36 -30.5q21 -21 36 -31.5t34 -10.5q17 0 25 10.5t12.5 22.5t5.5 16q10 24 21 24q7 0 13 -2.5
t6 -6.5q0 -24 -12.5 -48.5z" />
    <glyph glyph-name="Odieresis" unicode="&#xd6;" horiz-adv-x="749" 
d="M603 213q-58 -94 -149 -152t-184 -58q-54 0 -102 22.5t-78 66.5t-30 106q0 106 55 219.5t153 213.5q10 9 19 12t21 3q10 0 19.5 -5t9.5 -12q0 -4 -3.5 -11.5t-4.5 -9.5q6 0 14.5 1.5t33.5 1.5q29 0 78.5 -9.5t72.5 -19.5q65 -29 99 -74.5t34 -97.5q0 -103 -58 -197z
M591 483.5q-27 36.5 -80 60.5q-29 13 -73 13q-14 0 -38 -2l-37 -1q-48 0 -48 20q0 7 1 13t2 8q-21 0 -34 -12q-82 -85 -126.5 -181t-44.5 -187q0 -85 42.5 -123.5t116.5 -38.5q84 0 164.5 48t131 126t50.5 162q0 58 -27 94.5zM464 690.5q-11 -7.5 -21 -7.5q-17 0 -34 24
t-17 42q0 11 13 20.5t23 9.5q9 0 20 -14.5t19 -32.5t8 -25q0 -9 -11 -16.5zM262 683q-15 0 -28 14t-21 31.5t-8 23.5q0 8 9.5 14t20.5 6q17 0 35 -27.5t18 -49.5q0 -12 -26 -12z" />
    <glyph glyph-name="multiply" unicode="&#xd7;" horiz-adv-x="472" 
d="M411.5 143.5q-6.5 -8.5 -14 -13.5t-9.5 -6q-15 0 -51.5 25.5t-93.5 70.5q-78 -71 -120 -138q-8 -13 -12.5 -17.5t-10.5 -4.5q-8 0 -17.5 7t-9.5 18q0 31 62 93l71 71q-76 62 -106.5 90t-30.5 45q0 9 6 14t12 5q4 0 17.5 -11t24.5 -20.5t16 -13.5q54 -48 93 -79
q55 55 105.5 101.5t58.5 46.5t14 -7t6 -16q0 -17 -21 -39.5t-69 -63.5l-57 -51q-1 1 27 -19q30 -23 50.5 -36t31.5 -13q4 0 10.5 2t10.5 2q6 0 9.5 -7t3.5 -17t-6.5 -18.5z" />
    <glyph glyph-name="Oslash" unicode="&#xd8;" horiz-adv-x="749" 
d="M487 685.5q-6 -14.5 -9 -22.5l-17 -57q29 -4 57 -10.5t43 -13.5q65 -29 99 -74.5t34 -97.5q0 -82 -28 -142.5t-88 -117.5q-146 -135 -287 -146q-10 -47 -14 -91l-3 -26q-1 -11 -8.5 -16.5t-17.5 -5.5q-5 0 -8 1q-7 1 -9.5 8.5t-2.5 23.5q0 22 16 106q-48 4 -92 25.5
t-71.5 53t-27.5 65.5q0 51 31 138.5t87.5 181.5t129.5 163q10 9 19 12t21 3q10 0 19.5 -5t9.5 -12q0 -4 -3.5 -11.5t-4.5 -9.5q6 0 14.5 2t33.5 1h5q7 24 8 28q8 32 23.5 70t29.5 38q5 0 8 -1q6 -2 7.5 -7.5t1.5 -13v-10.5q0 -15 -6 -29.5zM282.5 162.5
q16.5 54.5 41.5 131.5q36 109 48 155q10 33 31 116q-31 1 -43 2.5t-12 8.5q0 6 1 11.5t2 7.5q-21 0 -34 -12q-62 -60 -110.5 -142t-74.5 -158t-26 -118q0 -44 42.5 -76.5t105.5 -35.5q12 55 28.5 109.5zM336 181q-20 -67 -34 -126q69 6 122.5 33t115.5 79q51 44 81 104
t30 118t-27 94.5t-80 60.5q-33 15 -95 19q-81 -273 -113 -382z" />
    <glyph glyph-name="Ugrave" unicode="&#xd9;" horiz-adv-x="648" 
d="M619 -8.5q-10 -8.5 -25 -8.5q-20 0 -36.5 42t-20.5 87q-4 38 -8 177q-2 58 -3 72q-69 -168 -157.5 -295t-166.5 -127q-39 0 -67.5 47t-43.5 126.5t-15 174.5q0 77 9 174.5t22 140.5q4 12 11.5 19.5t17.5 7.5q25 0 25 -19q0 -3 -19 -72t-19 -258q0 -125 23.5 -205.5
t66.5 -80.5q42 0 100 68.5t110.5 163.5t76.5 167q16 53 21 159q3 41 5 43q8 10 24 10q18 0 18 -49q0 -59 3.5 -224t8.5 -209q4 -37 14.5 -58t22.5 -35t12 -18q0 -12 -10 -20.5zM392.5 629q-5.5 -5 -14.5 -5q-13 0 -50.5 30t-69.5 64.5t-32 47.5q0 10 11 21t21 11
q7 0 11.5 -5t15.5 -22q9 -15 24 -36q18 -23 56 -57q33 -31 33 -36q0 -8 -5.5 -13z" />
    <glyph glyph-name="Uacute" unicode="&#xda;" horiz-adv-x="648" 
d="M619 -8.5q-10 -8.5 -25 -8.5q-20 0 -36.5 42t-20.5 87q-4 38 -8 177q-2 58 -3 72q-69 -168 -157.5 -295t-166.5 -127q-39 0 -67.5 47t-43.5 126.5t-15 174.5q0 77 9 174.5t22 140.5q4 12 11.5 19.5t17.5 7.5q25 0 25 -19q0 -3 -19 -72t-19 -258q0 -125 23.5 -205.5
t66.5 -80.5q42 0 100 68.5t110.5 163.5t76.5 167q16 53 21 159q3 41 5 43q8 10 24 10q18 0 18 -49q0 -59 3.5 -224t8.5 -209q4 -37 14.5 -58t22.5 -35t12 -18q0 -12 -10 -20.5zM422 720.5q-32 -34.5 -69.5 -64.5t-50.5 -30q-9 0 -14.5 5t-5.5 13q0 5 33 36q38 34 56 57
q15 21 24 36q11 17 15.5 22t11.5 5q10 0 21 -11t11 -21q0 -13 -32 -47.5z" />
    <glyph glyph-name="Ucircumflex" unicode="&#xdb;" horiz-adv-x="648" 
d="M619 -8.5q-10 -8.5 -25 -8.5q-20 0 -36.5 42t-20.5 87q-4 38 -8 177q-2 58 -3 72q-69 -168 -157.5 -295t-166.5 -127q-39 0 -67.5 47t-43.5 126.5t-15 174.5q0 77 9 174.5t22 140.5q4 12 11.5 19.5t17.5 7.5q25 0 25 -19q0 -3 -19 -72t-19 -258q0 -125 23.5 -205.5
t66.5 -80.5q42 0 100 68.5t110.5 163.5t76.5 167q16 53 21 159q3 41 5 43q8 10 24 10q18 0 18 -49q0 -59 3.5 -224t8.5 -209q4 -37 14.5 -58t22.5 -35t12 -18q0 -12 -10 -20.5zM328 836q6 9 14 9q4 0 13.5 -10t12.5 -14q66 -72 124 -109q9 -6 14.5 -10.5t5.5 -9.5
q0 -7 -6.5 -15.5t-16.5 -8.5q-18 0 -42 19t-41 36l-23 24l-41 40l-15 -18q-45 -55 -68.5 -80t-38.5 -25q-8 0 -12.5 5.5t-4.5 10.5q0 8 42 53q42 49 70 83z" />
    <glyph glyph-name="Udieresis" unicode="&#xdc;" horiz-adv-x="648" 
d="M619 -8.5q-10 -8.5 -25 -8.5q-20 0 -36.5 42t-20.5 87q-4 38 -8 177q-2 58 -3 72q-69 -168 -157.5 -295t-166.5 -127q-39 0 -67.5 47t-43.5 126.5t-15 174.5q0 77 9 174.5t22 140.5q4 12 11.5 19.5t17.5 7.5q25 0 25 -19q0 -3 -19 -72t-19 -258q0 -125 23.5 -205.5
t66.5 -80.5q42 0 100 68.5t110.5 163.5t76.5 167q16 53 21 159q3 41 5 43q8 10 24 10q18 0 18 -49q0 -59 3.5 -224t8.5 -209q4 -37 14.5 -58t22.5 -35t12 -18q0 -12 -10 -20.5zM471 661.5q-11 -7.5 -21 -7.5q-17 0 -34 24t-17 42q0 11 13 20.5t23 9.5q9 0 20 -14.5t19 -32.5
t8 -25q0 -9 -11 -16.5zM269 654q-15 0 -28 14t-21 31.5t-8 23.5q0 8 9.5 14t20.5 6q17 0 35 -27.5t18 -49.5q0 -12 -26 -12z" />
    <glyph glyph-name="Yacute" unicode="&#xdd;" horiz-adv-x="486" 
d="M449 606q-6 -19 -20 -56q-11 -26 -28 -75q-44 -129 -67 -285q-3 -26 -6 -56t-3 -51q0 -12 7.5 -23t7.5 -14q0 -6 -13 -21.5t-29 -28.5t-26 -13q-20 0 -20 17q0 22 25 150.5t42 197.5q-24 -27 -43 -42t-47 -15q-40 0 -81 63.5t-82 152.5l-10 20q-14 29 -28 50t-14 24
q0 5 7.5 7.5t16.5 2.5q33 0 59 -63q36 -86 71.5 -148.5t73.5 -62.5q25 0 44 17t31 40q11 21 26.5 60t23.5 64q32 96 35 111q5 21 9 29.5t13 8.5q11 0 21 -7.5t10 -17.5q0 -17 -6 -36zM331 767.5q-32 -34.5 -69.5 -64.5t-50.5 -30q-9 0 -14.5 5t-5.5 13q0 5 33 36
q38 34 56 57q15 21 24 36q11 17 15.5 22t11.5 5q10 0 21 -11t11 -21q0 -13 -32 -47.5z" />
    <glyph glyph-name="Thorn" unicode="&#xde;" horiz-adv-x="487" 
d="M202 485q26 3 52 3q85 0 145 -22.5t60 -60.5q0 -46 -26.5 -81t-67.5 -60.5t-108 -59.5q-19 -10 -48.5 -20t-38.5 -13q1 -38 12 -123q6 -58 6 -63q0 -11 -11 -18.5t-23 -7.5q-15 0 -19 21q-8 60 -11 170.5t-3 186.5q0 67 2.5 138t7.5 109q5 35 12.5 57t31.5 22
q14 0 14 -12q-1 -7 -10.5 -51t-12.5 -121q10 3 36 6zM363.5 434q-47.5 14 -117.5 14q-33 0 -81 -6l-1 -92l1 -73q1 -24 1 -61q10 1 31 8t40 15q76 32 125 72.5t49 83.5q0 25 -47.5 39z" />
    <glyph glyph-name="germandbls" unicode="&#xdf;" horiz-adv-x="511" 
d="M481.5 84.5q-25.5 -34.5 -68 -58t-91.5 -23.5q-43 0 -58 8t-15 22q0 15 13.5 24.5t25.5 9.5q5 -1 22.5 -6.5t26.5 -5.5q28 0 58 13.5t49.5 33.5t19.5 39q0 26 -31 49t-93 57q-68 36 -103.5 63t-35.5 60q0 19 13 37.5t41 48.5q39 42 60.5 76.5t21.5 76.5q0 34 -26 57.5
t-56 23.5q-70 0 -100.5 -115.5t-30.5 -270.5q0 -27 1 -61.5t2 -54.5q5 -78 5 -173q0 -17 -3.5 -22.5t-16.5 -5.5q-14 0 -20.5 15.5t-7.5 36.5q-9 146 -9 255q0 195 44.5 317t132.5 122q33 0 63 -16.5t48.5 -42t18.5 -51.5q0 -54 -21.5 -92.5t-60.5 -82.5q-23 -26 -34 -42.5
t-11 -32.5q0 -19 25 -37t79 -49q72 -41 110 -71.5t38 -67.5q0 -29 -25.5 -63.5z" />
    <glyph glyph-name="agrave" unicode="&#xe0;" horiz-adv-x="529" 
d="M473 49.5q7 -7.5 7 -12.5q0 -12 -10 -27.5t-20 -15.5q-17 0 -26 21t-9 49q0 24 3 144l1 38q0 23 -12 33q-45 -76 -84 -132t-99 -105.5t-126 -49.5q-32 0 -49.5 20t-17.5 52q0 40 36 109.5t92 141t112 117.5q37 30 59 40.5t39 10.5q16 0 33 -10t29 -28t12 -41
q0 -31 -17 -59l17 5q11 0 13 -27q1 -16 2.5 -65t2.5 -81q1 -33 2 -64t2 -49q1 -7 8 -14.5zM216 86q50 40 89.5 95.5t87.5 136.5q12 30 12 65q0 21 -12.5 36.5t-33.5 15.5q-25 0 -64 -34q-45 -38 -95 -101.5t-83 -125.5t-33 -98q0 -30 28 -30q54 0 104 40zM374.5 536
q-5.5 -5 -14.5 -5q-13 0 -50.5 30t-69.5 64.5t-32 47.5q0 10 11 21t21 11q7 0 11.5 -5t15.5 -22q9 -15 24 -36q18 -23 56 -57q33 -31 33 -36q0 -8 -5.5 -13z" />
    <glyph glyph-name="aacute" unicode="&#xe1;" horiz-adv-x="529" 
d="M473 49.5q7 -7.5 7 -12.5q0 -12 -10 -27.5t-20 -15.5q-17 0 -26 21t-9 49q0 24 3 144l1 38q0 23 -12 33q-45 -76 -84 -132t-99 -105.5t-126 -49.5q-32 0 -49.5 20t-17.5 52q0 40 36 109.5t92 141t112 117.5q37 30 59 40.5t39 10.5q16 0 33 -10t29 -28t12 -41
q0 -31 -17 -59l17 5q11 0 13 -27q1 -16 2.5 -65t2.5 -81q1 -33 2 -64t2 -49q1 -7 8 -14.5zM216 86q50 40 89.5 95.5t87.5 136.5q12 30 12 65q0 21 -12.5 36.5t-33.5 15.5q-25 0 -64 -34q-45 -38 -95 -101.5t-83 -125.5t-33 -98q0 -30 28 -30q54 0 104 40zM411 625.5
q-32 -34.5 -69.5 -64.5t-50.5 -30q-9 0 -14.5 5t-5.5 13q0 5 33 36q38 34 56 57q15 21 24 36q11 17 15.5 22t11.5 5q10 0 21 -11t11 -21q0 -13 -32 -47.5z" />
    <glyph glyph-name="acircumflex" unicode="&#xe2;" horiz-adv-x="529" 
d="M473 49.5q7 -7.5 7 -12.5q0 -12 -10 -27.5t-20 -15.5q-17 0 -26 21t-9 49q0 24 3 144l1 38q0 23 -12 33q-45 -76 -84 -132t-99 -105.5t-126 -49.5q-32 0 -49.5 20t-17.5 52q0 40 36 109.5t92 141t112 117.5q37 30 59 40.5t39 10.5q16 0 33 -10t29 -28t12 -41
q0 -31 -17 -59l17 5q11 0 13 -27q1 -16 2.5 -65t2.5 -81q1 -33 2 -64t2 -49q1 -7 8 -14.5zM216 86q50 40 89.5 95.5t87.5 136.5q12 30 12 65q0 21 -12.5 36.5t-33.5 15.5q-25 0 -64 -34q-45 -38 -95 -101.5t-83 -125.5t-33 -98q0 -30 28 -30q54 0 104 40zM262 705q6 9 14 9
q4 0 13.5 -10t12.5 -14q66 -72 124 -109q9 -6 14.5 -10.5t5.5 -9.5q0 -7 -6.5 -15.5t-16.5 -8.5q-18 0 -42 19t-41 36l-23 24l-41 40l-15 -18q-45 -55 -68.5 -80t-38.5 -25q-8 0 -12.5 5.5t-4.5 10.5q0 8 42 53q42 49 70 83z" />
    <glyph glyph-name="atilde" unicode="&#xe3;" horiz-adv-x="529" 
d="M473 49.5q7 -7.5 7 -12.5q0 -12 -10 -27.5t-20 -15.5q-17 0 -26 21t-9 49q0 24 3 144l1 38q0 23 -12 33q-45 -76 -84 -132t-99 -105.5t-126 -49.5q-32 0 -49.5 20t-17.5 52q0 40 36 109.5t92 141t112 117.5q37 30 59 40.5t39 10.5q16 0 33 -10t29 -28t12 -41
q0 -31 -17 -59l17 5q11 0 13 -27q1 -16 2.5 -65t2.5 -81q1 -33 2 -64t2 -49q1 -7 8 -14.5zM216 86q50 40 89.5 95.5t87.5 136.5q12 30 12 65q0 21 -12.5 36.5t-33.5 15.5q-25 0 -64 -34q-45 -38 -95 -101.5t-83 -125.5t-33 -98q0 -30 28 -30q54 0 104 40zM453.5 607.5
q-12.5 -24.5 -33 -40.5t-42.5 -16q-23 0 -40.5 11.5t-42.5 33.5q-20 18 -32 26t-25 8q-46 0 -74 -57q-2 -4 -3.5 -10.5t-4 -10t-6.5 -3.5q-7 0 -13.5 5.5t-6.5 13.5q0 20 13 41q18 29 45 47t57 18q18 0 32 -9.5t36 -30.5q21 -21 36 -31.5t34 -10.5q17 0 25 10.5t12.5 22.5
t5.5 16q10 24 21 24q7 0 13 -2.5t6 -6.5q0 -24 -12.5 -48.5z" />
    <glyph glyph-name="adieresis" unicode="&#xe4;" horiz-adv-x="529" 
d="M473 49.5q7 -7.5 7 -12.5q0 -12 -10 -27.5t-20 -15.5q-17 0 -26 21t-9 49q0 24 3 144l1 38q0 23 -12 33q-45 -76 -84 -132t-99 -105.5t-126 -49.5q-32 0 -49.5 20t-17.5 52q0 40 36 109.5t92 141t112 117.5q37 30 59 40.5t39 10.5q16 0 33 -10t29 -28t12 -41
q0 -31 -17 -59l17 5q11 0 13 -27q1 -16 2.5 -65t2.5 -81q1 -33 2 -64t2 -49q1 -7 8 -14.5zM216 86q50 40 89.5 95.5t87.5 136.5q12 30 12 65q0 21 -12.5 36.5t-33.5 15.5q-25 0 -64 -34q-45 -38 -95 -101.5t-83 -125.5t-33 -98q0 -30 28 -30q54 0 104 40zM410 559.5
q-11 -7.5 -21 -7.5q-17 0 -34 24t-17 42q0 11 13 20.5t23 9.5q9 0 20 -14.5t19 -32.5t8 -25q0 -9 -11 -16.5zM208 552q-15 0 -28 14t-21 31.5t-8 23.5q0 8 9.5 14t20.5 6q17 0 35 -27.5t18 -49.5q0 -12 -26 -12z" />
    <glyph glyph-name="aring" unicode="&#xe5;" horiz-adv-x="529" 
d="M473 49.5q7 -7.5 7 -12.5q0 -12 -10 -27.5t-20 -15.5q-17 0 -26 21t-9 49q0 24 3 144l1 38q0 23 -12 33q-45 -76 -84 -132t-99 -105.5t-126 -49.5q-32 0 -49.5 20t-17.5 52q0 40 36 109.5t92 141t112 117.5q37 30 59 40.5t39 10.5q16 0 33 -10t29 -28t12 -41
q0 -31 -17 -59l17 5q11 0 13 -27q1 -16 2.5 -65t2.5 -81q1 -33 2 -64t2 -49q1 -7 8 -14.5zM216 86q50 40 89.5 95.5t87.5 136.5q12 30 12 65q0 21 -12.5 36.5t-33.5 15.5q-25 0 -64 -34q-45 -38 -95 -101.5t-83 -125.5t-33 -98q0 -30 28 -30q54 0 104 40zM394.5 618
q-17.5 -35 -50 -61.5t-75.5 -26.5q-40 0 -67 18.5t-27 50.5q0 35 17.5 74.5t45.5 68.5t60 33q4 2 20 2q5 0 12.5 -2t13.5 -4q23 -8 45.5 -35.5t22.5 -58.5q0 -24 -17.5 -59zM239.5 688q-22.5 -38 -22.5 -79q0 -18 15 -29t43 -11q27 0 49 18.5t34.5 43t12.5 42.5
q0 21 -14.5 37.5t-34.5 24.5q-18 7 -23 9q-37 -18 -59.5 -56z" />
    <glyph glyph-name="ae" unicode="&#xe6;" horiz-adv-x="784" 
d="M376 230q-37 -52 -69 -88q-62 -70 -117 -110t-107 -40q-22 0 -37 19t-15 45q0 37 37.5 109t99.5 151t130 137q35 30 71 30q22 0 39 -17t23 -45q2 -9 5.5 -18.5t3.5 -15.5q30 49 82 84t103 35q34 0 60 -19.5t26 -48.5q0 -51 -82 -98.5t-196 -80.5q-8 -34 -8 -70
q0 -50 34.5 -82.5t88.5 -32.5q73 0 115 50t69 117q13 32 20 32q8 0 8 -15q0 -16 -25 -75.5t-74.5 -110.5t-122.5 -51q-39 0 -77 18t-63 56t-25 94q0 20 3 41zM544 437q-35 -27 -62 -66t-39 -74q51 15 104 39.5t87.5 51t34.5 44.5q0 14 -16 23t-40 9q-34 0 -69 -27zM88.5 51
q4.5 -5 11.5 -5q69 0 181 120q33 36 65.5 78t54.5 74l9 21q-5 4 -8.5 9t-3.5 11l1 29q0 14 -10.5 28.5t-29.5 14.5q-38 0 -103 -74.5t-118.5 -165.5t-53.5 -126q0 -9 4.5 -14z" />
    <glyph glyph-name="ccedilla" unicode="&#xe7;" horiz-adv-x="371" 
d="M333.5 183q-20.5 -31 -41.5 -56q-52 -63 -93.5 -97t-86.5 -34q-38 0 -62.5 33t-24.5 76q0 64 34 162t86 170t104 72q22 0 38 -16q9 -9 17 -24t8 -27q0 -17 -4.5 -39.5t-9.5 -22.5q-10 0 -13 11t-4 28q-3 26 -6 34.5t-9 8.5q-47 0 -91 -65.5t-72 -152t-28 -133.5
q0 -66 44 -66q32 0 58.5 16t55.5 45q54 55 84 95q2 3 11.5 15.5t13.5 12.5q12 0 12 -9q0 -6 -20.5 -37zM163.5 -107.5q-14.5 -22.5 -35.5 -34.5t-41 -12q-10 0 -16.5 5.5t-6.5 14.5q0 4 7.5 9t8.5 6q19 11 30.5 23t11.5 34q0 16 -6.5 29t-17.5 30q-10 15 -10 20q0 3 8 5.5
t16 2.5t24 -14.5t29 -33t13 -31.5q0 -31 -14.5 -53.5z" />
    <glyph glyph-name="egrave" unicode="&#xe8;" horiz-adv-x="464" 
d="M436 240q0 -18 -26.5 -79t-80 -113t-131.5 -52q-64 0 -107 40t-43 123q0 78 36 154.5t94 125t120 48.5q37 0 62.5 -16.5t25.5 -47.5q0 -35 -39.5 -68t-102.5 -58t-130 -36q-12 -46 -12 -90q0 -58 27.5 -90t78.5 -32q77 0 125 55t80 124q2 4 7 15.5t9 11.5q7 0 7 -15z
M324.5 437q-16.5 9 -38.5 9q-38 0 -73 -25t-58.5 -60t-30.5 -62q46 5 97 26t85.5 46t34.5 41t-16.5 25zM327.5 542q-5.5 -5 -14.5 -5q-13 0 -50.5 30t-69.5 64.5t-32 47.5q0 10 11 21t21 11q7 0 11.5 -5t15.5 -22q9 -15 24 -36q18 -23 56 -57q33 -31 33 -36q0 -8 -5.5 -13z
" />
    <glyph glyph-name="eacute" unicode="&#xe9;" horiz-adv-x="464" 
d="M436 240q0 -18 -26.5 -79t-80 -113t-131.5 -52q-64 0 -107 40t-43 123q0 78 36 154.5t94 125t120 48.5q37 0 62.5 -16.5t25.5 -47.5q0 -35 -39.5 -68t-102.5 -58t-130 -36q-12 -46 -12 -90q0 -58 27.5 -90t78.5 -32q77 0 125 55t80 124q2 4 7 15.5t9 11.5q7 0 7 -15z
M324.5 437q-16.5 9 -38.5 9q-38 0 -73 -25t-58.5 -60t-30.5 -62q46 5 97 26t85.5 46t34.5 41t-16.5 25zM371 617.5q-32 -34.5 -69.5 -64.5t-50.5 -30q-9 0 -14.5 5t-5.5 13q0 5 33 36q38 34 56 57q15 21 24 36q11 17 15.5 22t11.5 5q10 0 21 -11t11 -21q0 -13 -32 -47.5z
" />
    <glyph glyph-name="ecircumflex" unicode="&#xea;" horiz-adv-x="464" 
d="M436 240q0 -18 -26.5 -79t-80 -113t-131.5 -52q-64 0 -107 40t-43 123q0 78 36 154.5t94 125t120 48.5q37 0 62.5 -16.5t25.5 -47.5q0 -35 -39.5 -68t-102.5 -58t-130 -36q-12 -46 -12 -90q0 -58 27.5 -90t78.5 -32q77 0 125 55t80 124q2 4 7 15.5t9 11.5q7 0 7 -15z
M324.5 437q-16.5 9 -38.5 9q-38 0 -73 -25t-58.5 -60t-30.5 -62q46 5 97 26t85.5 46t34.5 41t-16.5 25zM238 692q6 9 14 9q4 0 13.5 -10t12.5 -14q66 -72 124 -109q9 -6 14.5 -10.5t5.5 -9.5q0 -7 -6.5 -15.5t-16.5 -8.5q-18 0 -42 19t-41 36l-23 24l-41 40l-15 -18
q-45 -55 -68.5 -80t-38.5 -25q-8 0 -12.5 5.5t-4.5 10.5q0 8 42 53q42 49 70 83z" />
    <glyph glyph-name="edieresis" unicode="&#xeb;" horiz-adv-x="464" 
d="M436 240q0 -18 -26.5 -79t-80 -113t-131.5 -52q-64 0 -107 40t-43 123q0 78 36 154.5t94 125t120 48.5q37 0 62.5 -16.5t25.5 -47.5q0 -35 -39.5 -68t-102.5 -58t-130 -36q-12 -46 -12 -90q0 -58 27.5 -90t78.5 -32q77 0 125 55t80 124q2 4 7 15.5t9 11.5q7 0 7 -15z
M324.5 437q-16.5 9 -38.5 9q-38 0 -73 -25t-58.5 -60t-30.5 -62q46 5 97 26t85.5 46t34.5 41t-16.5 25zM387 546.5q-11 -7.5 -21 -7.5q-17 0 -34 24t-17 42q0 11 13 20.5t23 9.5q9 0 20 -14.5t19 -32.5t8 -25q0 -9 -11 -16.5zM185 539q-15 0 -28 14t-21 31.5t-8 23.5
q0 8 9.5 14t20.5 6q17 0 35 -27.5t18 -49.5q0 -12 -26 -12z" />
    <glyph glyph-name="igrave" unicode="&#xec;" horiz-adv-x="218" 
d="M133.5 -18.5q-8.5 -5.5 -19.5 -4.5q-14 1 -20.5 45t-13.5 167q-11 176 -11 228q0 11 3.5 16.5t13.5 5.5q23 0 29 -18t6 -69l-1 -100q0 -83 6 -135q0 -3 9 -64q7 -42 7 -56q0 -10 -8.5 -15.5zM156.5 491q-5.5 -5 -14.5 -5q-13 0 -50.5 30t-69.5 64.5t-32 47.5q0 10 11 21
t21 11q7 0 11.5 -5t15.5 -22q9 -15 24 -36q18 -23 56 -57q33 -31 33 -36q0 -8 -5.5 -13z" />
    <glyph glyph-name="iacute" unicode="&#xed;" horiz-adv-x="218" 
d="M133.5 -18.5q-8.5 -5.5 -19.5 -4.5q-14 1 -20.5 45t-13.5 167q-11 176 -11 228q0 11 3.5 16.5t13.5 5.5q23 0 29 -18t6 -69l-1 -100q0 -83 6 -135q0 -3 9 -64q7 -42 7 -56q0 -10 -8.5 -15.5zM175 594.5q-32 -34.5 -69.5 -64.5t-50.5 -30q-9 0 -14.5 5t-5.5 13q0 5 33 36
q38 34 56 57q15 21 24 36q11 17 15.5 22t11.5 5q10 0 21 -11t11 -21q0 -13 -32 -47.5z" />
    <glyph glyph-name="icircumflex" unicode="&#xee;" horiz-adv-x="218" 
d="M133.5 -18.5q-8.5 -5.5 -19.5 -4.5q-14 1 -20.5 45t-13.5 167q-11 176 -11 228q0 11 3.5 16.5t13.5 5.5q23 0 29 -18t6 -69l-1 -100q0 -83 6 -135q0 -3 9 -64q7 -42 7 -56q0 -10 -8.5 -15.5zM62 655q6 9 14 9q4 0 13.5 -10t12.5 -14q66 -72 124 -109q9 -6 14.5 -10.5
t5.5 -9.5q0 -7 -6.5 -15.5t-16.5 -8.5q-18 0 -42 19t-41 36l-23 24l-41 40l-15 -18q-45 -55 -68.5 -80t-38.5 -25q-8 0 -12.5 5.5t-4.5 10.5q0 8 42 53q42 49 70 83z" />
    <glyph glyph-name="idieresis" unicode="&#xef;" horiz-adv-x="218" 
d="M133.5 -18.5q-8.5 -5.5 -19.5 -4.5q-14 1 -20.5 45t-13.5 167q-11 176 -11 228q0 11 3.5 16.5t13.5 5.5q23 0 29 -18t6 -69l-1 -100q0 -83 6 -135q0 -3 9 -64q7 -42 7 -56q0 -10 -8.5 -15.5zM194 513.5q-11 -7.5 -21 -7.5q-17 0 -34 24t-17 42q0 11 13 20.5t23 9.5
q9 0 20 -14.5t19 -32.5t8 -25q0 -9 -11 -16.5zM-8 506q-15 0 -28 14t-21 31.5t-8 23.5q0 8 9.5 14t20.5 6q17 0 35 -27.5t18 -49.5q0 -12 -26 -12z" />
    <glyph glyph-name="eth" unicode="&#xf0;" 
d="M383.5 735.5q10.5 -9.5 10.5 -24.5q0 -9 -5.5 -16t-22.5 -23q-54 -49 -89 -75q55 -64 88 -151.5t33 -173.5q0 -59 -39.5 -122.5t-103 -105t-129.5 -41.5q-32 0 -61.5 23t-29.5 69q0 52 19 113t42 112q27 63 72.5 96.5t94.5 33.5q9 0 16.5 -4.5t7.5 -11.5q0 -16 -9 -22
t-30 -12q-28 -7 -40 -13q-49 -22 -75 -89q-25 -64 -36.5 -109t-11.5 -86q0 -50 56 -50q48 0 96.5 34t80 85.5t31.5 100.5q0 78 -29 158.5t-77 140.5q-62 -43 -86 -43q-10 0 -16 6t-6 14q0 5 11 10t28 13.5t45 27.5q-48 49 -96 64q-12 4 -17 8.5t-5 12.5q0 4 4 8.5t13 4.5
q10 0 22 -5q58 -18 110 -68q30 24 58.5 54t31.5 43q2 8 6.5 15.5t9.5 7.5q17 0 27.5 -9.5z" />
    <glyph glyph-name="ntilde" unicode="&#xf1;" horiz-adv-x="460" 
d="M384 -27.5q-10 -8.5 -24 -8.5q-10 0 -17 4.5t-7 12.5q0 41 6 127q6 92 6 153q0 59 -3.5 96.5t-16.5 37.5q-34 0 -74.5 -84.5t-92.5 -222.5l-15 -40q-4 -10 -13.5 -16t-19.5 -6q-12 0 -16 2t-5 12l-8 82l-15 144q-7 86 -17 150q-3 15 -3 23q0 15 13 24.5t30 9.5
q10 0 14.5 -48t9.5 -155l4 -53q8 -101 9 -128q3 6 5.5 13.5t6.5 16.5q54 140 101.5 233.5t91.5 93.5q31 0 42.5 -52.5t14.5 -134.5q3 -91 3 -266q0 -12 -10 -20.5zM391.5 583.5q-12.5 -24.5 -33 -40.5t-42.5 -16q-23 0 -40.5 11.5t-42.5 33.5q-20 18 -32 26t-25 8
q-46 0 -74 -57q-2 -4 -3.5 -10.5t-4 -10t-6.5 -3.5q-7 0 -13.5 5.5t-6.5 13.5q0 20 13 41q18 29 45 47t57 18q18 0 32 -9.5t36 -30.5q21 -21 36 -31.5t34 -10.5q17 0 25 10.5t12.5 22.5t5.5 16q10 24 21 24q7 0 13 -2.5t6 -6.5q0 -24 -12.5 -48.5z" />
    <glyph glyph-name="ograve" unicode="&#xf2;" 
d="M369 117q-29 -51 -82 -87.5t-121 -36.5q-67 0 -99 37t-32 92q0 48 17.5 119t49.5 127q2 4 16.5 29.5t32.5 39t38 13.5q9 0 16.5 -4.5t7.5 -11.5q0 -2 -5.5 -9.5t-8.5 -11.5q-34 -41 -55 -81q-28 -51 -43.5 -101t-15.5 -109q0 -79 96 -79q45 0 83.5 26t61.5 63.5t23 68.5
q0 35 -23 61t-63 55q-26 19 -38 31t-12 20q0 12 17 19.5t40 7.5q13 0 17 -1.5t4 -5.5q0 -2 -3.5 -6.5t-3.5 -7.5t20 -20q40 -33 67 -67t27 -80q0 -39 -29 -90zM288.5 496q-5.5 -5 -14.5 -5q-13 0 -50.5 30t-69.5 64.5t-32 47.5q0 10 11 21t21 11q7 0 11.5 -5t15.5 -22
q9 -15 24 -36q18 -23 56 -57q33 -31 33 -36q0 -8 -5.5 -13z" />
    <glyph glyph-name="oacute" unicode="&#xf3;" 
d="M369 117q-29 -51 -82 -87.5t-121 -36.5q-67 0 -99 37t-32 92q0 48 17.5 119t49.5 127q2 4 16.5 29.5t32.5 39t38 13.5q9 0 16.5 -4.5t7.5 -11.5q0 -2 -5.5 -9.5t-8.5 -11.5q-34 -41 -55 -81q-28 -51 -43.5 -101t-15.5 -109q0 -79 96 -79q45 0 83.5 26t61.5 63.5t23 68.5
q0 35 -23 61t-63 55q-26 19 -38 31t-12 20q0 12 17 19.5t40 7.5q13 0 17 -1.5t4 -5.5q0 -2 -3.5 -6.5t-3.5 -7.5t20 -20q40 -33 67 -67t27 -80q0 -39 -29 -90zM321 597.5q-32 -34.5 -69.5 -64.5t-50.5 -30q-9 0 -14.5 5t-5.5 13q0 5 33 36q38 34 56 57q15 21 24 36
q11 17 15.5 22t11.5 5q10 0 21 -11t11 -21q0 -13 -32 -47.5z" />
    <glyph glyph-name="ocircumflex" unicode="&#xf4;" 
d="M369 117q-29 -51 -82 -87.5t-121 -36.5q-67 0 -99 37t-32 92q0 48 17.5 119t49.5 127q2 4 16.5 29.5t32.5 39t38 13.5q9 0 16.5 -4.5t7.5 -11.5q0 -2 -5.5 -9.5t-8.5 -11.5q-34 -41 -55 -81q-28 -51 -43.5 -101t-15.5 -109q0 -79 96 -79q45 0 83.5 26t61.5 63.5t23 68.5
q0 35 -23 61t-63 55q-26 19 -38 31t-12 20q0 12 17 19.5t40 7.5q13 0 17 -1.5t4 -5.5q0 -2 -3.5 -6.5t-3.5 -7.5t20 -20q40 -33 67 -67t27 -80q0 -39 -29 -90zM214 684q6 9 14 9q4 0 13.5 -10t12.5 -14q66 -72 124 -109q9 -6 14.5 -10.5t5.5 -9.5q0 -7 -6.5 -15.5
t-16.5 -8.5q-18 0 -42 19t-41 36l-23 24l-41 40l-15 -18q-45 -55 -68.5 -80t-38.5 -25q-8 0 -12.5 5.5t-4.5 10.5q0 8 42 53q42 49 70 83z" />
    <glyph glyph-name="otilde" unicode="&#xf5;" 
d="M369 117q-29 -51 -82 -87.5t-121 -36.5q-67 0 -99 37t-32 92q0 48 17.5 119t49.5 127q2 4 16.5 29.5t32.5 39t38 13.5q9 0 16.5 -4.5t7.5 -11.5q0 -2 -5.5 -9.5t-8.5 -11.5q-34 -41 -55 -81q-28 -51 -43.5 -101t-15.5 -109q0 -79 96 -79q45 0 83.5 26t61.5 63.5t23 68.5
q0 35 -23 61t-63 55q-26 19 -38 31t-12 20q0 12 17 19.5t40 7.5q13 0 17 -1.5t4 -5.5q0 -2 -3.5 -6.5t-3.5 -7.5t20 -20q40 -33 67 -67t27 -80q0 -39 -29 -90zM397.5 559.5q-12.5 -24.5 -33 -40.5t-42.5 -16q-23 0 -40.5 11.5t-42.5 33.5q-20 18 -32 26t-25 8q-46 0 -74 -57
q-2 -4 -3.5 -10.5t-4 -10t-6.5 -3.5q-7 0 -13.5 5.5t-6.5 13.5q0 20 13 41q18 29 45 47t57 18q18 0 32 -9.5t36 -30.5q21 -21 36 -31.5t34 -10.5q17 0 25 10.5t12.5 22.5t5.5 16q10 24 21 24q7 0 13 -2.5t6 -6.5q0 -24 -12.5 -48.5z" />
    <glyph glyph-name="odieresis" unicode="&#xf6;" 
d="M369 117q-29 -51 -82 -87.5t-121 -36.5q-67 0 -99 37t-32 92q0 48 17.5 119t49.5 127q2 4 16.5 29.5t32.5 39t38 13.5q9 0 16.5 -4.5t7.5 -11.5q0 -2 -5.5 -9.5t-8.5 -11.5q-34 -41 -55 -81q-28 -51 -43.5 -101t-15.5 -109q0 -79 96 -79q45 0 83.5 26t61.5 63.5t23 68.5
q0 35 -23 61t-63 55q-26 19 -38 31t-12 20q0 12 17 19.5t40 7.5q13 0 17 -1.5t4 -5.5q0 -2 -3.5 -6.5t-3.5 -7.5t20 -20q40 -33 67 -67t27 -80q0 -39 -29 -90zM339 517.5q-11 -7.5 -21 -7.5q-17 0 -34 24t-17 42q0 11 13 20.5t23 9.5q9 0 20 -14.5t19 -32.5t8 -25
q0 -9 -11 -16.5zM137 510q-15 0 -28 14t-21 31.5t-8 23.5q0 8 9.5 14t20.5 6q17 0 35 -27.5t18 -49.5q0 -12 -26 -12z" />
    <glyph glyph-name="divide" unicode="&#xf7;" horiz-adv-x="472" 
d="M239 365q-19 0 -31.5 14.5t-18.5 32t-6 25.5q0 11 10.5 21t21.5 10q10 0 16.5 -3.5t13 -9.5t9.5 -9q7 -6 12.5 -24.5t5.5 -41.5q0 -15 -33 -15zM387 305q8 2 13.5 13.5t11.5 11.5q11 0 22.5 -12.5t11.5 -25.5q0 -16 -11 -23.5t-36 -12.5q-26 -5 -80 -12.5t-98 -12.5
q-115 -12 -165 -12q-12 0 -22.5 6.5t-10.5 15.5q0 13 9 17t30 4q27 0 92.5 6t114.5 13q58 8 118 24zM269 35q-19 0 -31.5 14.5t-18.5 32t-6 25.5q0 11 10.5 21t21.5 10q10 0 16.5 -3.5t13 -9.5t9.5 -9q7 -6 12.5 -24.5t5.5 -41.5q0 -15 -33 -15z" />
    <glyph glyph-name="oslash" unicode="&#xf8;" 
d="M369 160.5q-29 -44.5 -76.5 -85.5t-99.5 -60q-22 -84 -28 -142q-2 -9 -3.5 -18t-3.5 -18t-8 -14t-14 -5q-11 0 -14 9t-3 24q0 49 26 153q-6 -1 -19 -1q-39 0 -65 22t-26 60q0 60 24.5 131t71 121.5t108.5 53.5q5 2 11 2.5t8 0.5q28 96 51 152q8 17 24 17q7 0 10 -9.5
t3 -21.5t-8 -29.5t-11 -25.5q-4 -15 -9 -28q-24 -83 -25 -86q6 -5 35 -27.5t49.5 -50t20.5 -53.5q0 -27 -29 -71.5zM160 297.5q-36 -41.5 -55.5 -99t-19.5 -105.5q0 -17 16 -28.5t40 -11.5q12 0 19 1q48 189 82 289q-46 -4 -82 -45.5zM275 115.5q33 29.5 53.5 60.5t20.5 51
q0 17 -22 44t-49 47q-42 -123 -72 -249q36 17 69 46.5z" />
    <glyph glyph-name="ugrave" unicode="&#xf9;" horiz-adv-x="499" 
d="M459 -8q-9 -9 -25 -9q-20 0 -36.5 42t-20.5 87q-4 43 -6 174q-1 21 -1 42.5t-1 36.5q-29 -69 -79 -157t-100.5 -151t-82.5 -63q-33 0 -43.5 35t-10.5 111q0 71 18.5 161t42.5 137q10 21 17 28.5t16 7.5q25 0 25 -10q0 -5 -10 -23q-27 -50 -47 -120t-20 -188q0 -79 22 -79
q26 0 70.5 57.5t88.5 137.5t67 139q8 20 18 62q3 17 6 24.5t7 7.5q11 0 24 -9t13 -19q0 -48 3.5 -164.5t8.5 -161.5q4 -39 14.5 -61t20.5 -34.5t10 -15.5q0 -16 -9 -25zM348.5 552q-5.5 -5 -14.5 -5q-13 0 -50.5 30t-69.5 64.5t-32 47.5q0 10 11 21t21 11q7 0 11.5 -5
t15.5 -22q9 -15 24 -36q18 -23 56 -57q33 -31 33 -36q0 -8 -5.5 -13z" />
    <glyph glyph-name="uacute" unicode="&#xfa;" horiz-adv-x="499" 
d="M459 -8q-9 -9 -25 -9q-20 0 -36.5 42t-20.5 87q-4 43 -6 174q-1 21 -1 42.5t-1 36.5q-29 -69 -79 -157t-100.5 -151t-82.5 -63q-33 0 -43.5 35t-10.5 111q0 71 18.5 161t42.5 137q10 21 17 28.5t16 7.5q25 0 25 -10q0 -5 -10 -23q-27 -50 -47 -120t-20 -188q0 -79 22 -79
q26 0 70.5 57.5t88.5 137.5t67 139q8 20 18 62q3 17 6 24.5t7 7.5q11 0 24 -9t13 -19q0 -48 3.5 -164.5t8.5 -161.5q4 -39 14.5 -61t20.5 -34.5t10 -15.5q0 -16 -9 -25zM375 627.5q-32 -34.5 -69.5 -64.5t-50.5 -30q-9 0 -14.5 5t-5.5 13q0 5 33 36q38 34 56 57q15 21 24 36
q11 17 15.5 22t11.5 5q10 0 21 -11t11 -21q0 -13 -32 -47.5z" />
    <glyph glyph-name="ucircumflex" unicode="&#xfb;" horiz-adv-x="499" 
d="M459 -8q-9 -9 -25 -9q-20 0 -36.5 42t-20.5 87q-4 43 -6 174q-1 21 -1 42.5t-1 36.5q-29 -69 -79 -157t-100.5 -151t-82.5 -63q-33 0 -43.5 35t-10.5 111q0 71 18.5 161t42.5 137q10 21 17 28.5t16 7.5q25 0 25 -10q0 -5 -10 -23q-27 -50 -47 -120t-20 -188q0 -79 22 -79
q26 0 70.5 57.5t88.5 137.5t67 139q8 20 18 62q3 17 6 24.5t7 7.5q11 0 24 -9t13 -19q0 -48 3.5 -164.5t8.5 -161.5q4 -39 14.5 -61t20.5 -34.5t10 -15.5q0 -16 -9 -25zM267 727q6 9 14 9q4 0 13.5 -10t12.5 -14q66 -72 124 -109q9 -6 14.5 -10.5t5.5 -9.5q0 -7 -6.5 -15.5
t-16.5 -8.5q-18 0 -42 19t-41 36l-23 24l-41 40l-15 -18q-45 -55 -68.5 -80t-38.5 -25q-8 0 -12.5 5.5t-4.5 10.5q0 8 42 53q42 49 70 83z" />
    <glyph glyph-name="udieresis" unicode="&#xfc;" horiz-adv-x="499" 
d="M459 -8q-9 -9 -25 -9q-20 0 -36.5 42t-20.5 87q-4 43 -6 174q-1 21 -1 42.5t-1 36.5q-29 -69 -79 -157t-100.5 -151t-82.5 -63q-33 0 -43.5 35t-10.5 111q0 71 18.5 161t42.5 137q10 21 17 28.5t16 7.5q25 0 25 -10q0 -5 -10 -23q-27 -50 -47 -120t-20 -188q0 -79 22 -79
q26 0 70.5 57.5t88.5 137.5t67 139q8 20 18 62q3 17 6 24.5t7 7.5q11 0 24 -9t13 -19q0 -48 3.5 -164.5t8.5 -161.5q4 -39 14.5 -61t20.5 -34.5t10 -15.5q0 -16 -9 -25zM392 561.5q-11 -7.5 -21 -7.5q-17 0 -34 24t-17 42q0 11 13 20.5t23 9.5q9 0 20 -14.5t19 -32.5t8 -25
q0 -9 -11 -16.5zM190 554q-15 0 -28 14t-21 31.5t-8 23.5q0 8 9.5 14t20.5 6q17 0 35 -27.5t18 -49.5q0 -12 -26 -12z" />
    <glyph glyph-name="yacute" unicode="&#xfd;" horiz-adv-x="425" 
d="M371 342q-12 -88 -13 -99q-13 -123 -18.5 -187.5t-5.5 -116.5q0 -43 6.5 -68t14 -39.5t7.5 -17.5q0 -9 -16 -16t-33 -7q-13 0 -20.5 35t-7.5 109q0 56 11 151l15 138q-27 -52 -66.5 -99.5t-81.5 -47.5q-39 0 -70 68t-48.5 154t-17.5 126q0 25 15 25q22 0 28 -41
q38 -278 106 -278q27 0 47.5 21.5t48.5 66.5q13 21 28 56t23 58l7 101q2 23 6 32.5t16 9.5q10 0 20 -11.5t10 -22.5q0 -23 -11 -100zM284 595.5q-32 -34.5 -69.5 -64.5t-50.5 -30q-9 0 -14.5 5t-5.5 13q0 5 33 36q38 34 56 57q15 21 24 36q11 17 15.5 22t11.5 5q10 0 21 -11
t11 -21q0 -13 -32 -47.5z" />
    <glyph glyph-name="thorn" unicode="&#xfe;" horiz-adv-x="521" 
d="M125 563l1 21q1 29 10.5 54t33.5 25q9 0 12 -3t3 -12q0 -6 -4 -30q-14 -76 -14 -210q62 -9 138.5 -31t132.5 -55t56 -70q0 -20 -11.5 -42.5t-26.5 -34.5q-43 -35 -86 -54t-88 -26.5t-120 -14.5q-2 -68 -2 -111q0 -57 5 -104q2 -18 2 -25q0 -16 -7 -27.5t-20 -11.5
q-18 0 -20 13q-1 17 -2.5 52.5t-1.5 71.5l1 140q-5 0 -18.5 -1t-26.5 -1q-24 0 -24 33q0 24 12 24q4 0 24 -6t34 -6l4 253q-8 1 -34.5 3.5t-39 9.5t-12.5 20q0 8 4 17t10 9q8 0 29 -7q23 -10 43 -12q0 65 3 149zM362.5 319q-88.5 34 -196.5 51q-2 -78 -3 -151t-1 -99
q67 0 115.5 9.5t90.5 29.5q28 14 55.5 36t27.5 41q0 49 -88.5 83z" />
    <glyph glyph-name="ydieresis" unicode="&#xff;" horiz-adv-x="425" 
d="M371 342q-12 -88 -13 -99q-13 -123 -18.5 -187.5t-5.5 -116.5q0 -43 6.5 -68t14 -39.5t7.5 -17.5q0 -9 -16 -16t-33 -7q-13 0 -20.5 35t-7.5 109q0 56 11 151l15 138q-27 -52 -66.5 -99.5t-81.5 -47.5q-39 0 -70 68t-48.5 154t-17.5 126q0 25 15 25q22 0 28 -41
q38 -278 106 -278q27 0 47.5 21.5t48.5 66.5q13 21 28 56t23 58l7 101q2 23 6 32.5t16 9.5q10 0 20 -11.5t10 -22.5q0 -23 -11 -100zM318 520.5q-11 -7.5 -21 -7.5q-17 0 -34 24t-17 42q0 11 13 20.5t23 9.5q9 0 20 -14.5t19 -32.5t8 -25q0 -9 -11 -16.5zM116 513
q-15 0 -28 14t-21 31.5t-8 23.5q0 8 9.5 14t20.5 6q17 0 35 -27.5t18 -49.5q0 -12 -26 -12z" />
    <glyph glyph-name="OE" unicode="&#x152;" horiz-adv-x="1046" 
d="M538 140q-45 -59 -109 -98t-138 -39q-54 0 -108.5 24.5t-90 71t-35.5 108.5q0 94 49 208t156 216q10 9 19 12t21 3q10 0 19.5 -5t9.5 -12q0 -4 -3.5 -11.5t-4.5 -9.5q6 0 14.5 1.5t33.5 1.5q27 0 66.5 -9t63.5 -20q50 -22 80 -53l-1 30q19 21 42 21q4 0 6.5 -6.5
t2.5 -9.5q66 3 157 15q60 8 185 38l37 8q10 0 10 -12q0 -21 -70.5 -44t-159.5 -39q-37 -7 -89.5 -12.5t-68.5 -6.5q1 -41 3 -88.5t3 -66.5q7 2 47 6q8 1 36.5 5t46.5 10q41 14 66.5 30.5t44.5 41.5q11 17 20 17q7 0 15 -14.5t8 -26.5q0 -19 -39 -42.5t-85 -39.5
q-28 -9 -62.5 -16.5t-60 -11t-32.5 -4.5q4 -52 17.5 -102.5t36.5 -79.5q26 -33 52 -50t65 -17t75.5 21t59.5 52t23 57q0 14 -6 30q-2 6 -5.5 12t-3.5 9q0 10 11 10q10 0 18 -8q15 -15 15 -35q0 -47 -26 -93t-69 -75t-93 -29q-83 0 -128 48q-36 38 -54.5 88t-27.5 111
q-20 -61 -65 -120zM552.5 498q-25.5 27 -68.5 46q-28 12 -57 16t-68 5q-29 1 -39.5 2.5t-10.5 8.5q0 6 1 11.5t2 7.5q-21 0 -34 -12q-91 -86 -129.5 -186.5t-38.5 -182.5q0 -47 26.5 -83.5t69 -57t87.5 -20.5q74 0 138 46.5t106 119.5t53 149l-3 63q-9 40 -34.5 67z" />
    <glyph glyph-name="oe" unicode="&#x153;" horiz-adv-x="751" 
d="M253 40.5q-57 -40.5 -118 -40.5q-25 0 -50.5 17t-41.5 47t-16 66q0 60 30 133.5t73 116.5q5 5 21 21.5t30.5 24t29.5 7.5q22 0 46 -12q29 -13 63.5 -40t56.5 -65q22 52 56.5 95t72.5 67.5t70 24.5q47 0 78.5 -12.5t31.5 -42.5q0 -55 -78.5 -96t-192.5 -75
q-14 -42 -14 -90q0 -28 17.5 -54.5t45.5 -43.5t60 -17q54 0 91 29.5t56 63.5t38 79q10 27 17 27q12 0 12 -15t-25.5 -75t-75.5 -111t-123 -51q-52 0 -98.5 30.5t-61.5 90.5q-44 -59 -101 -99.5zM624 455q-17 7 -44 7q-50 0 -93 -47t-62 -100q68 20 142 56.5t74 62.5
q0 14 -17 21zM178 365q-48 -44 -74.5 -107.5t-26.5 -127.5q0 -37 22.5 -58.5t50.5 -21.5q43 0 91 32.5t81 75.5t33 70q0 70 -45 108.5t-95 53.5q-20 -9 -37 -25z" />
    <glyph glyph-name="Scaron" unicode="&#x160;" horiz-adv-x="550" 
d="M477.5 76.5q-33.5 -48.5 -94 -79t-137.5 -30.5q-65 0 -103 10.5t-38 29.5q0 10 14.5 33.5t22.5 23.5q12 0 12 -5q0 -3 -3.5 -7t-3.5 -8q0 -3 12.5 -9t38.5 -11t63 -5q59 0 103.5 23t68.5 58t24 68q0 43 -41.5 74t-133.5 59q-89 29 -137.5 48.5t-78.5 48t-30 69.5
q0 55 62 108.5t153 87t169 33.5q40 0 43 -16t3 -36q0 -15 -11 -15q-5 0 -11.5 3.5t-11.5 5.5q-6 2 -14 4t-23 2q-52 0 -125 -27t-126.5 -67t-53.5 -77q0 -30 24.5 -52t65.5 -37.5t116 -38.5q110 -32 162.5 -72t52.5 -98q0 -50 -33.5 -98.5zM279 733q-6 -9 -14 -9
q-4 0 -13.5 10t-12.5 14q-63 70 -124 109q-9 6 -14.5 10.5t-5.5 9.5q0 7 6.5 15.5t16.5 8.5q18 0 42 -19t41 -36l64 -64l15 18q45 55 68.5 80t38.5 25q8 0 12.5 -5t4.5 -11q0 -8 -42 -53q-42 -49 -70 -83z" />
    <glyph glyph-name="scaron" unicode="&#x161;" horiz-adv-x="445" 
d="M375.5 55.5q-35.5 -40.5 -93.5 -65t-121 -24.5q-43 0 -58 8t-15 22q0 9 23 31.5t31 22.5q12 0 12 -5q0 -4 -5 -8t-5 -7q0 -4 12.5 -8t30.5 -4q42 0 84.5 15.5t69.5 40.5t27 53q0 27 -17 43t-42.5 23.5t-85.5 21.5q-66 15 -102.5 26.5t-58.5 29t-22 44.5q0 48 47 88
t108 63t94 23q34 0 34 -20q0 -12 -8 -26.5t-24 -14.5q-6 0 -13 4.5t-14 4.5q-20 0 -63 -13t-78 -39t-35 -63q0 -24 27.5 -35.5t102.5 -28.5q9 -3 18 -4.5t16 -3.5q77 -18 118 -41t41 -69q0 -44 -35.5 -84.5zM222 546q-6 -9 -14 -9q-4 0 -13.5 10t-12.5 14q-63 70 -124 109
q-9 6 -14.5 10.5t-5.5 9.5q0 7 6.5 15.5t16.5 8.5q18 0 42 -19t41 -36l64 -64l15 18q45 55 68.5 80t38.5 25q8 0 12.5 -5t4.5 -11q0 -8 -42 -53q-42 -49 -70 -83z" />
    <glyph glyph-name="Ydieresis" unicode="&#x178;" horiz-adv-x="486" 
d="M449 606q-6 -19 -20 -56q-11 -26 -28 -75q-44 -129 -67 -285q-3 -26 -6 -56t-3 -51q0 -12 7.5 -23t7.5 -14q0 -6 -13 -21.5t-29 -28.5t-26 -13q-20 0 -20 17q0 22 25 150.5t42 197.5q-24 -27 -43 -42t-47 -15q-40 0 -81 63.5t-82 152.5l-10 20q-14 29 -28 50t-14 24
q0 5 7.5 7.5t16.5 2.5q33 0 59 -63q36 -86 71.5 -148.5t73.5 -62.5q25 0 44 17t31 40q11 21 26.5 60t23.5 64q32 96 35 111q5 21 9 29.5t13 8.5q11 0 21 -7.5t10 -17.5q0 -17 -6 -36zM335 713.5q-11 -7.5 -21 -7.5q-17 0 -34 24t-17 42q0 11 13 20.5t23 9.5q9 0 20 -14.5
t19 -32.5t8 -25q0 -9 -11 -16.5zM133 706q-15 0 -28 14t-21 31.5t-8 23.5q0 8 9.5 14t20.5 6q17 0 35 -27.5t18 -49.5q0 -12 -26 -12z" />
    <glyph glyph-name="Zcaron" unicode="&#x17d;" horiz-adv-x="598" 
d="M461 440.5q-6 -10.5 -13 -16.5q-14 -13 -40.5 -19.5t-87.5 -17.5q-23 -38 -80 -159.5t-57 -136.5q0 -17 56.5 -26.5t107.5 -9.5q35 0 79.5 3.5t55.5 6.5q33 9 51.5 24t22.5 15q5 0 7 -6.5t2 -25.5q0 -66 -211 -66q-79 0 -151 19t-72 51q0 23 45.5 119.5t92.5 185.5
q-22 -3 -45 -10.5t-28 -9.5q-15 -5 -30 -11t-18 -6q-12 0 -23 13t-11 25q0 7 8.5 10.5t31.5 7.5l141 24q34 59 61 114.5t27 70.5q0 6 -16 6t-84 -10l-37 -5q-115 -18 -132 -18q-21 0 -21 8q0 10 13.5 20t38.5 15l25 5q68 13 83 15q68 9 77 11q49 7 60 7q18 0 32.5 -6
t14.5 -16q0 -13 -29.5 -81.5t-63.5 -130.5q48 11 94 32q18 7 20 7q3 0 6 -3t3 -6q0 -8 -6 -18.5zM308 697q-6 -9 -14 -9q-4 0 -13.5 10t-12.5 14q-63 70 -124 109q-9 6 -14.5 10.5t-5.5 9.5q0 7 6.5 15.5t16.5 8.5q18 0 42 -19t41 -36l64 -64l15 18q45 55 68.5 80t38.5 25
q8 0 12.5 -5t4.5 -11q0 -8 -42 -53q-42 -49 -70 -83z" />
    <glyph glyph-name="zcaron" unicode="&#x17e;" horiz-adv-x="529" 
d="M469 66.5q-36 -32.5 -94.5 -56t-120.5 -23.5q-46 0 -89.5 10t-70.5 26.5t-27 34.5q0 24 19 56.5t61 93.5q-26 0 -61 8q-18 5 -18 22q0 7 18 7l91 1q23 43 41.5 91.5t18.5 65.5q0 8 -7 8q-11 0 -34 -11t-31 -15q-61 -29 -123 -29q-13 0 -13 9q0 7 29 16q40 13 105 49
q74 41 102 41q16 0 25 -7t9 -18q0 -25 -81 -197q23 1 75 14q17 5 22 5q3 0 5 -3t2 -6q0 -16 -16 -23q-41 -19 -115 -28l-21 -34q-28 -44 -43 -72t-15 -41t49 -20.5t97 -7.5q69 0 125 21t92 60q5 9 10 37q1 9 3 16.5t6 7.5q6 0 8.5 -14.5t2.5 -36.5q0 -25 -36 -57.5zM228 514
q-6 -9 -14 -9q-4 0 -13.5 10t-12.5 14q-63 70 -124 109q-9 6 -14.5 10.5t-5.5 9.5q0 7 6.5 15.5t16.5 8.5q18 0 42 -19t41 -36l64 -64l15 18q45 55 68.5 80t38.5 25q8 0 12.5 -5t4.5 -11q0 -8 -42 -53q-42 -49 -70 -83z" />
    <glyph glyph-name="florin" unicode="&#x192;" horiz-adv-x="420" 
d="M486 603q-7 -18 -21 -18q-11 0 -13 24q-6 34 -24 57.5t-44 23.5q-60 0 -101 -110.5t-70 -275.5q46 5 115 20q8 1 39.5 7.5t49.5 6.5q9 0 14 -4.5t5 -11.5q0 -20 -8 -36t-27 -16q-11 0 -21.5 5t-34.5 5q-9 0 -56 -9q-15 -2 -36 -6t-45 -7q-21 -111 -65 -482q-3 -20 -7 -27
t-19 -7q-11 0 -15.5 6t-4.5 20l4 43q10 90 28 235.5t28 202.5q-29 -5 -72 -11t-59 -6q-9 0 -15 5.5t-6 14.5q0 12 6 20.5t16 9.5q28 1 71.5 4.5t63.5 7.5q38 209 90 324t137 115q30 0 54 -14t37 -35t13 -40q0 -23 -7 -41z" />
    <glyph glyph-name="circumflex" unicode="&#x2c6;" horiz-adv-x="500" 
d="M231 737q6 9 14 9q4 0 13.5 -10t12.5 -14q66 -72 124 -109q9 -6 14.5 -10.5t5.5 -9.5q0 -7 -6.5 -15.5t-16.5 -8.5q-18 0 -42 19t-41 36l-23 24l-41 40l-15 -18q-45 -55 -68.5 -80t-38.5 -25q-8 0 -12.5 5.5t-4.5 10.5q0 8 42 53q42 49 70 83z" />
    <glyph glyph-name="tilde" unicode="&#x2dc;" horiz-adv-x="574" 
d="M444.5 633.5q-12.5 -24.5 -33 -40.5t-42.5 -16q-23 0 -40.5 11.5t-42.5 33.5q-20 18 -32 26t-25 8q-46 0 -74 -57q-2 -4 -3.5 -10.5t-4 -10t-6.5 -3.5q-7 0 -13.5 5.5t-6.5 13.5q0 20 13 41q18 29 45 47t57 18q18 0 32 -9.5t36 -30.5q21 -21 36 -31.5t34 -10.5
q17 0 25 10.5t12.5 22.5t5.5 16q10 24 21 24q7 0 13 -2.5t6 -6.5q0 -24 -12.5 -48.5z" />
    <glyph glyph-name="endash" unicode="&#x2013;" horiz-adv-x="500" 
d="M470 235.5q-14 -6.5 -53 -10.5q-38 -4 -71 -6.5t-44 -3.5l-23 -3l-48 -8q-25 -4 -94.5 -13t-84.5 -9q-13 0 -23 5t-10 17q0 13 9 17t30 4q55 7 142 17l93 12l86 11q2 0 46 7q8 1 13.5 13t11.5 12q11 0 22.5 -12.5t11.5 -25.5q0 -17 -14 -23.5z" />
    <glyph glyph-name="emdash" unicode="&#x2014;" horiz-adv-x="1000" 
d="M929.5 234.5q-14.5 -7.5 -52.5 -9.5q-72 -4 -239 -10l-214 -9q-50 -3 -164 -8.5t-178 -7.5q-13 0 -23 5t-10 17q0 13 9 17t30 4q98 5 165 7.5t96 3.5l73 3q41 2 136 6q34 2 160 7.5t167 11.5q8 1 17.5 9t15.5 8q11 0 18.5 -8.5t7.5 -21.5q0 -17 -14.5 -24.5z" />
    <glyph glyph-name="quoteleft" unicode="&#x2018;" horiz-adv-x="231" 
d="M100.5 547q23.5 50 51.5 92t42 42q10 0 16.5 -5.5t6.5 -14.5q0 -6 -11.5 -28.5t-14.5 -27.5l-28 -54l-18 -46q-11 -30 -18 -44.5t-14 -14.5q-11 0 -23.5 12.5t-12.5 23.5q0 15 23.5 65z" />
    <glyph glyph-name="quoteright" unicode="&#x2019;" horiz-adv-x="231" 
d="M160.5 579q-23.5 -50 -51.5 -92t-42 -42q-10 0 -16.5 5.5t-6.5 14.5q0 6 11.5 28.5t14.5 27.5l28 54l18 46q11 30 18 44.5t14 14.5q11 0 23.5 -12.5t12.5 -23.5q0 -15 -23.5 -65z" />
    <glyph glyph-name="quotesinglbase" unicode="&#x201a;" horiz-adv-x="212" 
d="M160.5 9q-23.5 -50 -51.5 -92t-42 -42q-10 0 -16.5 5.5t-6.5 14.5q0 6 11.5 28.5t14.5 27.5l28 54l18 46q11 30 18 44.5t14 14.5q11 0 23.5 -12.5t12.5 -23.5q0 -15 -23.5 -65z" />
    <glyph glyph-name="quotedblleft" unicode="&#x201c;" horiz-adv-x="391" 
d="M260.5 577q23.5 50 51.5 92t42 42q10 0 16.5 -5.5t6.5 -14.5q0 -6 -11.5 -28.5t-14.5 -27.5l-28 -54l-18 -46q-11 -30 -18 -44.5t-14 -14.5q-11 0 -23.5 12.5t-12.5 23.5q0 15 23.5 65zM100.5 547q23.5 50 51.5 92t42 42q10 0 16.5 -5.5t6.5 -14.5q0 -6 -11.5 -28.5
t-14.5 -27.5l-28 -54l-18 -46q-11 -30 -18 -44.5t-14 -14.5q-11 0 -23.5 12.5t-12.5 23.5q0 15 23.5 65z" />
    <glyph glyph-name="quotedblright" unicode="&#x201d;" horiz-adv-x="391" 
d="M320.5 609q-23.5 -50 -51.5 -92t-42 -42q-10 0 -16.5 5.5t-6.5 14.5q0 6 11.5 28.5t14.5 27.5l28 54l18 46q11 30 18 44.5t14 14.5q11 0 23.5 -12.5t12.5 -23.5q0 -15 -23.5 -65zM160.5 579q-23.5 -50 -51.5 -92t-42 -42q-10 0 -16.5 5.5t-6.5 14.5q0 6 11.5 28.5
t14.5 27.5l28 54l18 46q11 30 18 44.5t14 14.5q11 0 23.5 -12.5t12.5 -23.5q0 -15 -23.5 -65z" />
    <glyph glyph-name="quotedblbase" unicode="&#x201e;" horiz-adv-x="391" 
d="M160.5 9q-23.5 -50 -51.5 -92t-42 -42q-10 0 -16.5 5.5t-6.5 14.5q0 6 11.5 28.5t14.5 27.5l28 54l18 46q11 30 18 44.5t14 14.5q11 0 23.5 -12.5t12.5 -23.5q0 -15 -23.5 -65zM320.5 9q-23.5 -50 -51.5 -92t-42 -42q-10 0 -16.5 5.5t-6.5 14.5q0 6 11.5 28.5t14.5 27.5
l28 54l18 46q11 30 18 44.5t14 14.5q11 0 23.5 -12.5t12.5 -23.5q0 -15 -23.5 -65z" />
    <glyph glyph-name="dagger" unicode="&#x2020;" horiz-adv-x="516" 
d="M416.5 465.5q-14.5 -8.5 -52.5 -12.5q-28 -3 -85 -10v-123q0 -89 -9 -287q0 -18 -0.5 -25t-0.5 -8q0 -5 -0.5 -21.5t-3.5 -24t-10 -7.5q-4 0 -7 4.5t-3 10.5l-3 85q-7 182 -7 220q0 44 -4 168q-22 -3 -37 -6t-24 -4q-29 -5 -48 -5q-12 0 -22.5 7t-10.5 19q0 15 11 18
t43 3q10 0 28.5 2.5t57.5 9.5l-2 95q0 52 11.5 100.5t32.5 48.5q8 0 10.5 -6t2.5 -21q0 -6 -4 -47.5t-4 -78.5q0 -51 1 -83q21 0 59 10l36 7q8 1 13.5 13t11.5 12q11 0 22.5 -12.5t11.5 -25.5q0 -17 -14.5 -25.5z" />
    <glyph glyph-name="daggerdbl" unicode="&#x2021;" horiz-adv-x="516" 
d="M424.5 227q-14.5 -4 -56.5 -8q-30 -3 -91 -11q-3 -85 -7 -174q0 -19 -0.5 -26t-0.5 -8q0 -5 -0.5 -21.5t-3.5 -24t-10 -7.5q-4 0 -7 4.5t-3 10.5l-9 241q-24 -4 -38 -6.5t-22 -3.5q-29 -5 -48 -5q-12 0 -22.5 7t-10.5 19q0 13 9 17t30 4l31 -1q26 0 70 7v26q0 44 -4 168
q-22 -3 -37 -6t-24 -4q-29 -5 -48 -5q-12 0 -22.5 7t-10.5 19q0 13 9 17t30 4h19q12 0 82 12l-2 95q0 52 11.5 100.5t32.5 48.5q8 0 10.5 -6t2.5 -21q0 -6 -4 -47.5t-4 -78.5q0 -51 1 -83q21 0 59 10l36 7q8 1 13.5 13t11.5 12q11 0 22.5 -12.5t11.5 -25.5
q0 -17 -14.5 -25.5t-52.5 -12.5q-28 -3 -85 -10v-123q0 -45 -1 -72q95 13 115 13q17 0 31.5 -5.5t14.5 -14.5q0 -10 -14.5 -14z" />
    <glyph glyph-name="bullet" unicode="&#x2022;" horiz-adv-x="475" 
d="M138.5 115.5q-38.5 28.5 -62 71.5t-23.5 84q0 49 31 92t80 68t100 25q49 0 85 -26t54.5 -68.5t18.5 -89.5q0 -39 -30 -82.5t-77.5 -73t-96.5 -29.5q-41 0 -79.5 28.5z" />
    <glyph glyph-name="ellipsis" unicode="&#x2026;" horiz-adv-x="636" 
d="M139 -25q-19 0 -34.5 21.5t-25 48t-9.5 34.5q0 11 10.5 21t21.5 10q7 0 11 -5.5t12 -18.5q10 -18 17 -23q13 -10 21.5 -37t8.5 -36q0 -15 -33 -15zM351 -25q-19 0 -34.5 21.5t-25 48t-9.5 34.5q0 11 10.5 21t21.5 10q7 0 11 -5.5t12 -18.5q10 -18 17 -23q13 -10 21.5 -37
t8.5 -36q0 -15 -33 -15zM563 -25q-19 0 -34.5 21.5t-25 48t-9.5 34.5q0 11 10.5 21t21.5 10q7 0 11 -5.5t12 -18.5q10 -18 17 -23q13 -10 21.5 -37t8.5 -36q0 -15 -33 -15z" />
    <glyph glyph-name="perthousand" unicode="&#x2030;" horiz-adv-x="1338" 
d="M568 365q-13 -42 -42 -115q-5 -13 -26.5 -71.5t-34.5 -108.5q-6 -20 -42 -20q-16 0 -16 32q0 5 29 72q55 125 91 225.5t36 174.5q0 15 -4 21t-11 6q-38 0 -91.5 -17.5t-104.5 -47.5q-25 -47 -64.5 -96t-87.5 -82t-94 -33q-22 0 -39 21t-17 60q0 41 28.5 97t65 98t54.5 42
t27 -7.5t9 -17.5q0 -2 -16 -16q-47 -43 -81.5 -88.5t-34.5 -100.5q0 -16 8 -24.5t21 -8.5q19 0 55.5 25.5t64.5 59.5t28 59q0 6 -9.5 19t-9.5 21q0 15 13.5 25.5t34.5 10.5q16 0 40 -11q48 25 117.5 45.5t94.5 20.5q34 0 45 -14t11 -45q0 -56 -48 -211zM922.5 109.5
q-18.5 -54.5 -55 -90.5t-89.5 -36q-69 0 -104.5 43.5t-35.5 104.5q0 38 12 75t28.5 60.5t27.5 23.5q18 0 27 -14t9 -30q0 -5 -5 -14.5t-12 -19.5q-17 -26 -26.5 -46.5t-9.5 -44.5q0 -36 20.5 -62.5t62.5 -26.5q40 0 68.5 29.5t43 73.5t14.5 85q0 43 -18.5 72.5t-41.5 29.5
q-21 0 -54 -15q-23 -10 -39 -10q-9 0 -15 6.5t-6 14.5q0 21 30 36.5t66 15.5q61 0 91 -42t30 -109q0 -55 -18.5 -109.5zM1268 102q-21 -55 -60.5 -91.5t-92.5 -36.5q-62 0 -95.5 42t-33.5 102q0 78 28.5 134t65.5 77q12 14 37 23t51 9q61 0 91 -42t30 -109q0 -53 -21 -108z
M1087 264.5q-21 -21.5 -35.5 -60.5t-14.5 -92q0 -34 23 -61.5t60 -27.5q40 0 68.5 29.5t43 73.5t14.5 85q0 43 -18.5 72.5t-41.5 29.5q-17 0 -24.5 -2.5t-13 -7t-8.5 -6.5q-4 -3 -14 -4t-14 -2q-4 -5 -25 -26.5z" />
    <glyph glyph-name="guilsinglleft" unicode="&#x2039;" horiz-adv-x="339" 
d="M80 200q-10 6 -10 15q0 4 11.5 15t15.5 14q78 71 120 138q8 13 12.5 17.5t10.5 4.5q8 0 17.5 -7t9.5 -18q0 -31 -62 -93l-71 -71q76 -62 106.5 -90t30.5 -45q0 -9 -6 -14t-12 -5q-4 0 -17.5 11t-24.5 20.5t-16 13.5q-54 48 -93 79z" />
    <glyph glyph-name="guilsinglright" unicode="&#x203a;" horiz-adv-x="339" 
d="M260 264q10 -6 10 -15q0 -4 -11.5 -15t-15.5 -14q-78 -71 -120 -138q-8 -13 -12.5 -17.5t-10.5 -4.5q-8 0 -17.5 7t-9.5 18q0 31 62 93l71 71q-76 62 -106.5 90t-30.5 45q0 9 6 14t12 5q4 0 17.5 -11t24.5 -20.5t16 -13.5q54 -48 93 -79z" />
    <glyph glyph-name="Euro" unicode="&#x20ac;" horiz-adv-x="548" 
d="M328 178q45 5 60 5q13 0 20 -4.5t7 -11.5q0 -15 -14 -19.5t-51 -8.5q-41 -5 -128 -10l-70 -5q4 -65 45 -108.5t107 -43.5q54 0 94 15.5t77 57.5l15 20q5 9 10.5 15.5t9.5 6.5q6 0 8 -3t2 -11q0 -7 -5.5 -19.5t-12.5 -22.5q-25 -34 -45.5 -54.5t-56.5 -35.5t-91 -15
q-88 0 -145 49.5t-59 146.5q-20 -1 -59 -1q-15 0 -27.5 4.5t-12.5 15.5q0 13 9 17t30 4q38 0 61 1q3 39 12 79l-74 -2q-13 0 -23 5t-10 17q0 13 9 17t30 4h27q8 0 20 -0.5t31 0.5q22 86 57 154q33 65 76.5 108t87.5 43q43 0 66.5 -31t23.5 -77q0 -17 -6.5 -34.5t-14.5 -29.5
t-12 -12q-8 0 -8 9q0 3 3.5 13.5t3.5 17.5q0 25 -6 47q-5 19 -20 31.5t-33 12.5q-72 0 -135 -139q-24 -54 -39 -111l9 1q35 2 79 6.5t80 8.5q30 4 39 4q20 0 20 -17t-13.5 -22.5t-53.5 -9.5q-55 -5 -110 -8l-59 -3q-9 -47 -10 -81l62 3q41 2 113 11z" />
    <glyph glyph-name="trademark" unicode="&#x2122;" horiz-adv-x="772" 
d="M657 472q-8 11 -30 119l-6 33q-7 44 -12 59q-17 -51 -28 -92q-14 -49 -19 -63.5t-11 -20.5q-5 -4 -11.5 -7t-11.5 -3q-7 0 -10.5 2.5t-5.5 9.5q-4 12 -11.5 41t-15.5 60q-7 30 -15 49q-12 -25 -19 -75.5t-13 -112.5q-1 -8 -9.5 -13.5t-15.5 -5.5q-13 0 -17 20
q-2 17 -11.5 64.5t-15.5 67.5q-7 24 -22 63q-58 -2 -87 -7q3 -75 3 -126q0 -54 -3 -69q-1 -8 -9 -12.5t-15 -4.5t-11 5t-4 11t1.5 31t1.5 58q0 55 -2 101q-69 -12 -139 -27q-39 -11 -54 -11q-10 0 -20.5 9t-10.5 19q0 8 6.5 12t16.5 4q8 0 38 2q18 3 160 29q1 12 4.5 19.5
t6.5 7.5q12 0 21 -9q2 -2 4 -12l35 4q58 8 79 8q9 0 14 -12l5 -20q16 -58 27 -119l10 60q8 42 21.5 66.5t37.5 24.5q3 0 15 -30.5t18 -53.5q14 -58 18 -69l14 45q6 21 21 70t21 62q9 16 28 16q4 0 11.5 -17t12.5 -40l8 -36q29 -148 39 -156q10 -7 10 -18q0 -7 -7 -12.5
t-16 -5.5q-15 0 -20 8z" />
    <glyph glyph-name="glyph86" horiz-adv-x="218" 
d="M133.5 -18.5q-8.5 -5.5 -19.5 -4.5q-14 1 -20.5 45t-13.5 167q-11 176 -11 228q0 11 3.5 16.5t13.5 5.5q23 0 29 -18t6 -69l-1 -100q0 -83 6 -135q0 -3 9 -64q7 -42 7 -56q0 -10 -8.5 -15.5z" />
    <glyph glyph-name="glyph141" horiz-adv-x="1" 
d="M234 689.5q5 -5.5 5 -13.5q0 -28 -35 -81l-102 -149q-133 -192 -162 -237q-71 -109 -127 -217q-18 -34 -25 -42.5t-19 -8.5q-8 0 -13 5t-5 13q0 29 35.5 94.5t58.5 100.5q18 28 45.5 68t54.5 80q79 113 101 147q17 26 53 86q46 78 75 119t46 41q9 0 14 -5.5z" />
    <glyph glyph-name="glyph145" horiz-adv-x="516" 
d="M330 243q-14 -6 -24 -6q-13 0 -23 41.5t-14 98.5l-48 -10l-67 -14q-104 -20 -127 -20q-8 0 -12 7t-4 15q0 16 12 30q40 50 103 114q40 40 107 117l19 21q23 26 42 26q8 0 19.5 -7t11.5 -15q0 -9 -7 -17q-3 -60 -3 -140q0 -25 2 -57q44 9 92 16q5 1 8.5 5t5.5 9
q2 4 4.5 7.5t6.5 3.5q11 0 22.5 -12.5t11.5 -25.5q0 -17 -14 -23.5t-53 -10.5l-81 -10q4 -46 11 -74l8 -32q5 -18 5 -25q0 -6 -14 -12zM226.5 548.5q-32.5 -37.5 -61.5 -68.5q-60 -64 -97 -106q28 7 42 9l36 8l78 16q24 6 44 9q-2 30 -2 66q0 87 3 115q-10 -11 -42.5 -48.5z
" />
    <glyph glyph-name="glyph219" horiz-adv-x="500" 
d="M279 576q-6 -9 -14 -9q-4 0 -13.5 10t-12.5 14q-63 70 -124 109q-9 6 -14.5 10.5t-5.5 9.5q0 7 6.5 15.5t16.5 8.5q18 0 42 -19t41 -36l64 -64l15 18q45 55 68.5 80t38.5 25q8 0 12.5 -5t4.5 -11q0 -8 -42 -53q-42 -49 -70 -83z" />
    <glyph glyph-name="glyph224" horiz-adv-x="397" 
d="M299.5 573q-17.5 -35 -50 -61.5t-75.5 -26.5q-40 0 -67 18.5t-27 50.5q0 35 17.5 74.5t45.5 68.5t60 33q4 2 20 2q5 0 12.5 -2t13.5 -4q23 -8 45.5 -35.5t22.5 -58.5q0 -24 -17.5 -59zM144.5 643q-22.5 -38 -22.5 -79q0 -18 15 -29t43 -11q27 0 49 18.5t34.5 43
t12.5 42.5q0 21 -14.5 37.5t-34.5 24.5q-18 7 -23 9q-37 -18 -59.5 -56z" />
  </font>
</defs>
</svg>
